<svg xmlns="http://www.w3.org/2000/svg" xmlns:xlink="http://www.w3.org/1999/xlink" width="58" height="58" viewBox="0 0 58 58"><defs><clipPath id="a"><path d="M13.954-140.048s11.511,2.386,11.509,7.6-15.843.118-15.843.118Z" fill="none" clip-rule="evenodd"/></clipPath><clipPath id="b"><path d="M0-98H57v-57H0Z" fill="none"/></clipPath><clipPath id="c"><path d="M13.905-139.892a28.456,28.456,0,0,1,6.736,2.3,9.514,9.514,0,0,1,4.1,3.256c.842,1.412.786,3.06-.875,3.706-2.786,1.083-6.62.063-9.4-.568q-1.867-.424-3.708-.96a7.351,7.351,0,0,1-.9-.271c-.265-.116-.173.31.049-.077,1.418-2.472,2.792-4.969,4.188-7.454.1-.183-.173-.358-.276-.174L9.482-132.42a.166.166,0,0,0,.089.243C13.56-130.9,18.213-129.563,22.43-130c1.631-.167,3.323-.846,3.182-2.755-.193-2.607-2.993-4.259-5.086-5.259A29.123,29.123,0,0,0,14-140.2c-.2-.043-.3.268-.1.311" fill="none" clip-rule="evenodd"/></clipPath><clipPath id="e"><path d="M15.828-116.422,14.63-134.4a2.481,2.481,0,0,1,2.311-2.641L37.428-138.4a2.482,2.482,0,0,1,2.641,2.311l1.2,17.974a2.481,2.481,0,0,1-2.311,2.641L18.47-114.112a2.481,2.481,0,0,1-2.641-2.311" fill="none" clip-rule="evenodd"/></clipPath><clipPath id="g"><path d="M16.466-116.4l-1.527-17.125c-.142-1.592.3-3.054,2.652-3.338,1.067-.129,2.2-.106,3.276-.158l13.192-.636c2.774-.134,5.641-.461,8.424-.406s3.033,1.855,3.182,3.525q.205,2.3.41,4.6.468,5.239.934,10.479c.137,1.54.473,3.418-1.974,3.956a17.829,17.829,0,0,1-2.842.176l-14.241.687-6.429.31c-2.145.1-4.568.369-5.063-2.109-.041-.207-.428-.134-.387.073.667,3.344,5.456,2.361,8.35,2.221l14.872-.717c2.606-.126,7.779.418,8.233-2.542a11.487,11.487,0,0,0-.176-2.662q-.254-2.844-.507-5.688c-.3-3.307-.37-6.683-.889-9.975-.484-3.067-3.811-2.639-6.582-2.506l-14.758.712-5.865.283a5.607,5.607,0,0,0-3.318.781c-1.233.955-.95,2.276-.839,3.517q.271,3.041.542,6.081.466,5.226.932,10.451c.018.208.417.224.4.014" fill="none" clip-rule="evenodd"/></clipPath><clipPath id="i"><path d="M17.036-116.657,16-131.981a3.181,3.181,0,0,1,2.976-3.379L37-136.549a2.807,2.807,0,0,1,2.993,2.6l1.057,15.706a3.181,3.181,0,0,1-2.976,3.379L20.439-113.7a3.191,3.191,0,0,1-3.4-2.958" fill="none" clip-rule="evenodd"/></clipPath><clipPath id="k"><path d="M18.549-112.944l-1.964-21.879,28.487-1.362a2.669,2.669,0,0,1,2.95,2.109l1.572,17.51a2.3,2.3,0,0,1-2.42,2.253Z" fill="none" clip-rule="evenodd"/></clipPath><clipPath id="m"><path d="M18.752-112.937l-1.689-19.1c-.064-.719-.5-2.019-.24-2.718-.014.036-.346.138.137.083.546-.062,1.119-.054,1.67-.081l13.452-.655,11.876-.578c1.761-.086,3.251.4,3.573,2.089.235,1.235.224,2.537.334,3.783q.511,5.772,1.021,11.545c.129,1.457.71,3.421-1.574,3.99a16.026,16.026,0,0,1-2.995.223L18.56-113.107c-.252.012-.266.338-.011.326L36.4-113.65l9.327-.454c2.045-.1,3.791-.648,3.713-2.657-.207-5.364-.951-10.753-1.424-16.109-.157-1.776-.66-3.472-3.331-3.48-2.367-.007-4.771.233-7.132.348l-20.929,1.019c-.1.005-.212.061-.2.156q.967,10.939,1.934,21.877c.018.208.414.224.4.014" fill="none" clip-rule="evenodd"/></clipPath><clipPath id="o"><path d="M41.212-127.895l3.014-.241c1.288-.1,3.468-.691,3.733-1.866.274-1.211-1.925-1.364-2.918-1.285l-20.869,1.671-3.014.241c-1.288.1-3.468.69-3.733,1.865-.274,1.212,1.925,1.364,2.918,1.285Z" fill="none" clip-rule="evenodd"/></clipPath><clipPath id="q"><path d="M41.49-122.3l1.406-.1c.6-.045,1.618-.3,1.742-.808.128-.525-.9-.591-1.362-.557l-9.739.724-1.406.1c-.6.045-1.618.3-1.742.808-.128.525.9.591,1.362.557Z" fill="none" clip-rule="evenodd"/></clipPath><clipPath id="s"><path d="M50.435-116.811a4.451,4.451,0,0,1-4.145,4.736,4.451,4.451,0,0,1-4.736-4.145,4.451,4.451,0,0,1,4.145-4.737,4.45,4.45,0,0,1,4.736,4.145" fill="none" clip-rule="evenodd"/></clipPath><clipPath id="u"><path d="M49.984-116.707a4.189,4.189,0,0,1-2.4,4.067,3.984,3.984,0,0,1-4.544-1.145,4.328,4.328,0,0,1-.588-4.714,3.879,3.879,0,0,1,4.049-2.147,4.29,4.29,0,0,1,3.487,3.939c.027.33.932.158.9-.208a4.7,4.7,0,0,0-3.525-4.166,5.183,5.183,0,0,0-5.353,1.87,4.66,4.66,0,0,0-.029,5.487,4.934,4.934,0,0,0,5.272,1.746,4.87,4.87,0,0,0,3.635-4.936c-.017-.326-.922-.16-.9.208" fill="none" clip-rule="evenodd"/></clipPath><clipPath id="w"><path d="M47.564-118.476l-1.947,2.607-1.581-.977-.392,1,2.135,1.205,2.531-3.1Z" fill="none" clip-rule="evenodd"/></clipPath><clipPath id="y"><path d="M47.144-118.518,45.2-115.91l.78-.18-1.581-.978a.614.614,0,0,0-.811.253l-.393,1c-.027.069.036.16.092.191l2.135,1.2a.657.657,0,0,0,.78-.18l2.214-2.715c.105-.13.211-.26.317-.388a.18.18,0,0,0,0-.212l-.744-.729a.568.568,0,0,0-.6-.055c-.112.046-.4.243-.241.4l.744.728c0-.071,0-.142,0-.212l-2.213,2.714-.317.389.78-.18L44-116.071l.092.191.393-1-.811.253,1.581.978a.648.648,0,0,0,.78-.18l1.947-2.607c.131-.175-.1-.3-.244-.32a.673.673,0,0,0-.6.236" fill="none" clip-rule="evenodd"/></clipPath><clipPath id="aa"><path d="M25.326-119.347a5.023,5.023,0,0,0-2.98-1.628h0a4.358,4.358,0,0,0-4.138,2.116h0a4.863,4.863,0,0,0-.684,3.279h0l8.875-.7a4.571,4.571,0,0,0-1.073-3.063Z" fill="none" clip-rule="evenodd"/></clipPath><clipPath id="ac"><rect width="12" height="9" transform="translate(16 -123)" fill="none"/></clipPath><clipPath id="ad"><path d="M26.739-122.046l.435,6.526-10.319.688-.435-6.526Z" fill="none" clip-rule="evenodd"/></clipPath><clipPath id="ae"><path d="M17-115H27v-7H17Z" fill="none"/></clipPath><clipPath id="af"><path d="M26.175-118.074a5.009,5.009,0,0,0-.652-1.163h0a4.7,4.7,0,0,0-1.1-1.032h0a5.3,5.3,0,0,0-1.358-.665h0a4.1,4.1,0,0,0-.848-.174h0a4.046,4.046,0,0,0-2.311.465h0l0,0a4.911,4.911,0,0,0-1.761,1.6h0a4.7,4.7,0,0,0-.774,2.993h0a1.633,1.633,0,0,0,.071.379h0c.028.08.054.112.074.087h0a.428.428,0,0,0,.034-.069h0a.524.524,0,0,0,.037-.216h0c0-.1-.007-.248-.006-.469h0c0-.06,0-.119,0-.177h0c0-.058,0-.117.007-.176h0a4.618,4.618,0,0,1,.379-1.57h0a4.664,4.664,0,0,1,1.288-1.674h0a4.482,4.482,0,0,1,1.21-.709h0a3.847,3.847,0,0,1,1.106-.252h0a3.675,3.675,0,0,1,1.125.1h0a4.806,4.806,0,0,1,1.849.889h0a4.521,4.521,0,0,1,1.642,2.8h0a4.248,4.248,0,0,0,.172.711h0c.057.146.116.174.125,0h0c0-.012,0-.024,0-.036h0a4.088,4.088,0,0,0-.309-1.632Z" fill="none" clip-rule="evenodd"/></clipPath><clipPath id="ai"><path d="M26.822-122.174l.443,6.65-10.52.7-.443-6.651Z" fill="none" clip-rule="evenodd"/></clipPath><clipPath id="ak"><path d="M25.918-117.618a4.86,4.86,0,0,0-3.669-2.48h0a3.878,3.878,0,0,0-2.536.6h0a4.864,4.864,0,0,0-1.923,2.43h0a4.758,4.758,0,0,0,1.005,5.038h0a4.36,4.36,0,0,0,3.215.921h0a4.765,4.765,0,0,0,3.681-2.129h0a4.3,4.3,0,0,0,.718-2.239h0a4.21,4.21,0,0,0-.49-2.138Z" fill="none" clip-rule="evenodd"/></clipPath><clipPath id="am"><rect width="12" height="12" transform="translate(16 -122)" fill="none"/></clipPath><clipPath id="an"><path d="M27.474-110.8l-10.392.693-.688-10.335,10.392-.693Z" fill="none" clip-rule="evenodd"/></clipPath><clipPath id="ao"><path d="M17-111H27v-10H17Z" fill="none"/></clipPath><clipPath id="ap"><path d="M26.337-116.919a4.359,4.359,0,0,0-.309-.769h0a4.966,4.966,0,0,0-.45-.695h0a4.825,4.825,0,0,0-.563-.605h0l-.076-.071-.08-.066c-.053-.043-.106-.088-.161-.131h0c-.112-.08-.221-.166-.339-.237h0a4.982,4.982,0,0,0-1.515-.657h0c-.136-.028-.27-.063-.408-.079h0a3.606,3.606,0,0,0-.415-.044h0a3.925,3.925,0,0,0-.835.044h0a2.9,2.9,0,0,0-.807.257h0a2.3,2.3,0,0,0-.494.321h0c-.212.191-.212.26.067.1h0a4.12,4.12,0,0,1,1.459-.46h0a4.051,4.051,0,0,1,1.528.132h0a4.734,4.734,0,0,1,2.076,1.2h0a4.669,4.669,0,0,1,.813,1.084h0a4.1,4.1,0,0,1,.426,1.277h0a4.17,4.17,0,0,1-.006,1.345h0a4.471,4.471,0,0,1-.16.655h0a4.361,4.361,0,0,1-.267.618h0a4.608,4.608,0,0,1-.928,1.214h0a4.606,4.606,0,0,1-1.808,1.042h0a4.6,4.6,0,0,1-1.033.188h0A5.5,5.5,0,0,1,21-111.276h0v-.006a4.362,4.362,0,0,1-1.027-.238h0a3.353,3.353,0,0,1-.913-.5h0c-.035-.026-.067-.055-.1-.083h0a.95.95,0,0,1-.1-.087h0l-.185-.183a3.841,3.841,0,0,1-.32-.411h0a3.847,3.847,0,0,1-.462-.933h0a5.087,5.087,0,0,1-.121-2.776h0a4.963,4.963,0,0,1,1.312-2.376h0c.432-.427.722-.617.624-.619h0a.866.866,0,0,0-.124.032h0a.707.707,0,0,0-.155.063h0a1.514,1.514,0,0,0-.208.131h0a3.736,3.736,0,0,0-.66.639h0a4.657,4.657,0,0,0-.4.564h0a5.3,5.3,0,0,0-.747,3h0a5.8,5.8,0,0,0,.142,1.008h0a4.989,4.989,0,0,0,.352.962h0a4.193,4.193,0,0,0,.579.852h0c.059.062.122.122.182.184h0a2.208,2.208,0,0,0,.193.174h0c.066.056.138.1.207.156h0c.073.046.143.1.22.138h0a3.646,3.646,0,0,0,.62.287h0a4.392,4.392,0,0,0,.658.181h0a5.6,5.6,0,0,0,1.357.094h0a4.927,4.927,0,0,0,2.125-.585h0a4.921,4.921,0,0,0,1.648-1.463h0a4.365,4.365,0,0,0,.491-.886h0a4.549,4.549,0,0,0,.271-.977h0a4.356,4.356,0,0,0,.055-.555h0a4.593,4.593,0,0,0-.18-1.433Z" fill="none" clip-rule="evenodd"/></clipPath><clipPath id="ar"><rect width="12" height="13" transform="translate(16 -122)" fill="none"/></clipPath><clipPath id="as"><path d="M26.853-121.327l.709,10.634-10.511.7-.709-10.634Z" fill="none" clip-rule="evenodd"/></clipPath><clipPath id="at"><path d="M17-110H27v-11H17Z" fill="none"/></clipPath><clipPath id="au"><path d="M22.043-118.176l.043.649a2.223,2.223,0,0,1,1,.246l-.346.8a1.121,1.121,0,0,0-.694-.218.554.554,0,0,0-.327.116.266.266,0,0,0-.115.221.282.282,0,0,0,.116.2.746.746,0,0,0,.278.138l.324.086a1.8,1.8,0,0,1,.8.4,1,1,0,0,1,.282.674,1.613,1.613,0,0,1-.029.46.953.953,0,0,1-.169.367,1.242,1.242,0,0,1-.333.3,2.937,2.937,0,0,1-.514.25l.044.665-.494.033-.042-.638a1.715,1.715,0,0,1-.357-.017,2.822,2.822,0,0,1-.377-.082,2.363,2.363,0,0,1-.351-.133,1.281,1.281,0,0,1-.273-.168l.381-.839a1.51,1.51,0,0,0,1.011.38.572.572,0,0,0,.339-.13.332.332,0,0,0,.129-.289q-.015-.236-.372-.326l-.313-.076a2.818,2.818,0,0,1-.479-.157,1.152,1.152,0,0,1-.332-.215.864.864,0,0,1-.2-.291,1.185,1.185,0,0,1-.085-.385,1.475,1.475,0,0,1,.038-.449,1.147,1.147,0,0,1,.178-.4,1.183,1.183,0,0,1,.322-.307,1.2,1.2,0,0,1,.473-.174l-.043-.649Z" fill="none" clip-rule="evenodd"/></clipPath><clipPath id="aw"><path d="M21.94-118.156q.021.325.043.649c0,.038.034.046.068.048a2.244,2.244,0,0,1,.955.238l-.019-.057-.345.8.172-.059c-.337-.216-1-.4-1.269.041-.229.384.395.533.649.6.486.13.976.343,1.084.886a1.234,1.234,0,0,1-.16.951,1.712,1.712,0,0,1-.782.506c-.025.01-.085.037-.082.074l.044.665.135-.083-.493.033.067.047q-.021-.319-.043-.638c0-.035-.034-.049-.067-.048a2.23,2.23,0,0,1-.988-.2,1.645,1.645,0,0,1-.206-.106c-.031-.05-.065-.061-.1-.032l.006-.012c0-.031.041-.09.053-.118l.321-.708-.187.049a1.323,1.323,0,0,0,1.445.278.419.419,0,0,0,.212-.468c-.057-.179-.255-.248-.419-.29-.467-.119-1.052-.206-1.267-.7a1.167,1.167,0,0,1,.818-1.617c.033-.006.112-.036.109-.081q-.021-.325-.043-.649l-.135.083.493-.033c.083-.006.2-.14.068-.131l-.493.033c-.036,0-.139.028-.135.083q.022.324.043.649l.109-.081a1.31,1.31,0,0,0-1.068.906,1.159,1.159,0,0,0,.484,1.38,2.592,2.592,0,0,0,.644.226,1.756,1.756,0,0,1,.443.13.278.278,0,0,1,.154.311c-.043.191-.253.249-.423.244a1.549,1.549,0,0,1-.858-.364.142.142,0,0,0-.187.049l-.381.839a.04.04,0,0,0,0,.047,2.22,2.22,0,0,0,1.415.418l-.067-.048.042.638c0,.035.034.05.068.048l.494-.033c.036,0,.138-.028.135-.083l-.044-.665-.082.074a1.646,1.646,0,0,0,1.067-.875,1.262,1.262,0,0,0-.278-1.319,2.472,2.472,0,0,0-1.023-.434c-.179-.048-.591-.208-.38-.457s.682-.039.9.1a.148.148,0,0,0,.172-.059l.345-.8a.04.04,0,0,0-.019-.057,2.439,2.439,0,0,0-1.04-.254l.068.048q-.022-.325-.043-.649c-.006-.092-.207-.039-.2.036" fill="none" clip-rule="evenodd"/></clipPath><clipPath id="ay"><path d="M8.386-143.681l6.151,3-2.6,10.109L5.309-131.74" fill="none" clip-rule="evenodd"/></clipPath><clipPath id="ba"><path d="M14.83-143.358l-.462,13.244L6.274-130.4l.462-13.244Z" fill="none" clip-rule="evenodd"/></clipPath><clipPath id="bc"><rect width="9" height="14" transform="translate(6 -144)" fill="none"/></clipPath><clipPath id="bd"><path d="M9.126-143.26c1.676.923,3.337,1.892,5.031,2.77.059.031.3.117.338.186.018.035-.1-.3-.07-.064a4.158,4.158,0,0,1-.234,1.017l-.863,3.755-.886,3.854a8.377,8.377,0,0,1-.264,1.148c-.138.348.285.012-.075.05a12.081,12.081,0,0,1-3.118-.61L6.5-131.638c-.179-.035-.268.275-.087.311l5.813,1.137a.145.145,0,0,0,.18-.107l2.319-10.087a.176.176,0,0,0-.059-.186L9.28-143.536c-.164-.09-.319.185-.154.276" fill="none" clip-rule="evenodd"/></clipPath><clipPath id="be"><path d="M6-130h9v-14H6Z" fill="none"/></clipPath><clipPath id="bf"><path d="M13.769-131.9l1.006.45c.952.2,1.726.588,2.37.375a4.181,4.181,0,0,0,2.176-2.113s1.922,2.4,3.239,1.393-5.877-6.136-5.877-6.136" fill="none" clip-rule="evenodd"/></clipPath><clipPath id="bh"><path d="M15.259-130.992c1.742.747,4.119.816,5.409-.878.2-.266.416-.3.1-.357.185.032.727.715.865.823.576.453,1.861,1.225,2.561.5,1.4-1.453-4.887-5.454-5.894-6.142-.174-.119-.347.157-.174.276a44.92,44.92,0,0,1,3.76,2.846,7.165,7.165,0,0,1,1.984,2.017c.567,1.335-1.445.688-2.034.239a5.677,5.677,0,0,1-.858-.815.165.165,0,0,0-.257.024c-1.2,1.851-3.528,1.941-5.363,1.155-.193-.083-.289.229-.1.311" fill="none" clip-rule="evenodd"/></clipPath><clipPath id="bj"><path d="M16.993-135.914c-.8,2.7-2.291,3.677-3.271,2.516s.394-4.435.681-4.608a1.781,1.781,0,0,1,2.59,2.092" fill="none" clip-rule="evenodd"/></clipPath><clipPath id="bl"><path d="M13.285-137.286l.565-2.315a1.624,1.624,0,0,0-.584-1.6L9.189-143.08c-.2-.091.4.5.207.408-.47-.216-.849.158-.935.726q-.252,1.654-.5,3.308c0,.015,0,.031,0,.046a1.394,1.394,0,0,0-.016.268c0,.021,0,.042.006.062a1.45,1.45,0,0,0,.6,1.227.63.63,0,0,0,.093.032.714.714,0,0,0,.108.042c1.341.336,1.882-.008,3.222.328l.585.147c.422.106.641-.419.734-.8" fill="none" clip-rule="evenodd"/></clipPath></defs><g transform="translate(-198 -445)"><g transform="translate(43.691 14.681)"><g transform="translate(155 587)" clip-path="url(#a)"><g clip-path="url(#b)"><path d="M30.887-144.46,30.2-124.778l-25.815-.9.687-19.682Z" fill="#fff"/></g></g><g transform="translate(155 587)" clip-path="url(#c)"><g clip-path="url(#b)"><path d="M31.047-144.619l-.7,20.055-26.13-.912.7-20.055Z" fill="#221f1f"/></g></g><g transform="translate(155 587)" clip-path="url(#e)"><g clip-path="url(#b)"><path d="M47.155-143.08l-1.22,34.943-37.192-1.3,1.22-34.943Z" fill="#fff"/></g></g><g transform="translate(155 587)" clip-path="url(#g)"><g clip-path="url(#b)"><path d="M53.446-142.94l-1.228,35.153L8.6-109.311l1.228-35.153Z" fill="#221f1f"/></g></g><g transform="translate(155 587)" clip-path="url(#i)"><g clip-path="url(#b)"><path d="M46.877-141.222,45.71-107.8l-35.526-1.241,1.167-33.426Z" fill="#ccccca"/></g></g><g transform="translate(155 587)" clip-path="url(#k)"><g clip-path="url(#b)"><path d="M55.458-140.836l-1.192,34.143-43.613-1.523,1.192-34.143Z" fill="#fff"/></g></g><g transform="translate(155 587)" clip-path="url(#m)"><g clip-path="url(#b)"><path d="M55.3-140.987l-1.2,34.451-43.613-1.523,1.2-34.451Z" fill="#221f1f"/></g></g><g transform="translate(155 587)" clip-path="url(#o)"><g clip-path="url(#b)"><path d="M12.4-136.3H52.983v15.1H12.4Z" fill="#ccccca"/></g></g><g transform="translate(155 587)" clip-path="url(#q)"><g clip-path="url(#b)"><path d="M25.378-128.78H49.649v12.209H25.378Z" fill="#ccccca"/></g></g><g transform="translate(155 587)" clip-path="url(#s)"><g clip-path="url(#b)"><path d="M36.88-126.29l18.89.66-.66,18.89-18.89-.66Z" fill="#221f1f"/></g></g><g transform="translate(155 587)" clip-path="url(#u)"><g clip-path="url(#b)"><path d="M36.449-126.578l19.773.69-.679,19.433-19.773-.69Z" fill="#221f1f"/></g></g><g transform="translate(155 587)" clip-path="url(#w)"><g clip-path="url(#b)"><path d="M38.917-123.781l14.588.509-.485,13.883L38.433-109.9Z" fill="#fff"/></g></g><g transform="translate(155 587)" clip-path="url(#y)"><g clip-path="url(#b)"><path d="M38.472-124.084l15.494.541-.5,14.459-15.494-.541Z" fill="#fff"/></g></g><g transform="translate(155 587)" clip-path="url(#aa)"><g clip-path="url(#b)"><g clip-path="url(#ac)"><g clip-path="url(#ad)"><g clip-path="url(#ae)"><path d="M32.572-126.845,31.959-109.3l-20.938-.731.613-17.543Z" fill="#666"/></g></g></g></g></g><g transform="translate(155 587)" clip-path="url(#af)"><g clip-path="url(#b)"><g clip-path="url(#ac)"><g clip-path="url(#ai)"><g clip-path="url(#ae)"><path d="M32.668-126.973l-.618,17.688L10.9-110.024l.618-17.688Z" fill="#221f1f"/></g></g></g></g></g><g transform="translate(155 587)" clip-path="url(#ak)"><g clip-path="url(#b)"><g clip-path="url(#am)"><g clip-path="url(#an)"><g clip-path="url(#ao)"><path d="M32.26-104.576l-21.4-.747.745-21.347,21.4.747Z" fill="#ff533b"/></g></g></g></g></g><g transform="translate(155 587)" clip-path="url(#ap)"><g clip-path="url(#b)"><g clip-path="url(#ar)"><g clip-path="url(#as)"><g clip-path="url(#at)"><path d="M33.1-126.112l-.756,21.657L10.8-105.208l.756-21.656Z" fill="#221f1f"/></g></g></g></g></g><g transform="translate(155 587)" clip-path="url(#au)"><g clip-path="url(#b)"><path d="M15.823-123.4l12.873.45-.537,15.369-12.873-.45Z" fill="#fff"/></g></g><g transform="translate(155 587)" clip-path="url(#aw)"><g clip-path="url(#b)"><path d="M15.721-123.465l13.082.457-.541,15.5-13.082-.457Z" fill="#fff"/></g></g><g transform="translate(155 587)" clip-path="url(#ay)"><g clip-path="url(#b)"><path d="M19.806-148.285,19-125.322l-18.9-.66.8-22.964Z" fill="#fff"/></g></g><g transform="translate(155 587)" clip-path="url(#ba)"><g clip-path="url(#b)"><g clip-path="url(#bc)"><g clip-path="url(#bd)"><g clip-path="url(#be)"><path d="M20-148.18l-.811,23.238L1.1-125.574l.811-23.238Z" fill="#221f1f"/></g></g></g></g></g><g transform="translate(155 587)" clip-path="url(#bf)"><g clip-path="url(#b)"><path d="M28.088-142.531l-.59,16.9L8.57-126.289l.59-16.9Z" fill="#fff"/></g></g><g transform="translate(155 587)" clip-path="url(#bh)"><g clip-path="url(#b)"><path d="M29.758-141.673l-.579,16.593-19.216-.671.579-16.594Z" fill="#221f1f"/></g></g><g transform="translate(155 587)" clip-path="url(#bj)"><g clip-path="url(#b)"><path d="M22.317-142.992l-.535,15.33-13.638-.476.535-15.33Z" fill="#fff"/></g></g><g transform="translate(155 587)" clip-path="url(#bl)"><g clip-path="url(#b)"><path d="M19.16-147.743l-.576,16.481L2.7-131.817,3.28-148.3Z" fill="#ccccca"/></g></g></g><rect width="58" height="58" transform="translate(198 445)" fill="#fff" opacity="0"/></g></svg>