<svg xmlns="http://www.w3.org/2000/svg" xmlns:xlink="http://www.w3.org/1999/xlink" width="58" height="58" viewBox="0 0 58 58"><defs><clipPath id="a"><path d="M12.954-9.625H43.371V-36.007H12.954Z" fill="none" clip-rule="evenodd"/></clipPath><clipPath id="b"><path d="M0,0H57V-56H0Z" fill="none"/></clipPath><clipPath id="c"><path d="M12.11-11.278H42.33v-29.69H12.11Z" fill="none" clip-rule="evenodd"/></clipPath><clipPath id="e"><path d="M42.33-11.442H15.84c-.888,0-2.87.386-3.676,0,.2.094.083.146.114-.29.043-.609,0-1.237,0-1.847V-36.53c0-1.23-.339-3.037,0-4.232.111-.392-.357.068.042-.041a7.462,7.462,0,0,1,1.732,0H36.972c1.617,0,3.282.11,4.9,0,.449-.03.387.074.3-.112a4.09,4.09,0,0,1,0,1.324v28.313a.167.167,0,0,0,.334,0v-29.69a.168.168,0,0,0-.167-.164H12.11a.167.167,0,0,0-.166.164v29.69a.168.168,0,0,0,.166.164H42.33a.164.164,0,0,0,0-.328" fill="none" clip-rule="evenodd"/></clipPath><clipPath id="g"><path d="M37.931-11.948H13.048V-40.568H41.392v25.057Z" fill="none" clip-rule="evenodd"/></clipPath><clipPath id="i"><path d="M36.219-12.953H10.881v-29.69H42.33v23.908Z" fill="none" clip-rule="evenodd"/></clipPath><clipPath id="k"><path d="M36.219-13.135H16.7c-1.76,0-3.628-.171-5.383,0-.51.05-.3-.03-.25.09a4.109,4.109,0,0,1,0-1.284V-41.85c0-.154-.084-.648,0-.787-.212.348.186.176.592.176h28.41a11.729,11.729,0,0,0,1.716,0c.525-.081.472.14.36-.118a4.589,4.589,0,0,1,0,1.416v20.124a9.413,9.413,0,0,1,0,2.051c-.044.179-.033.26.018.158-.131.261-.566.535-.776.734l-5.3,5.014c-.172.163.09.421.262.258l5.2-4.923c1.06-1,.962-1.123.962-2.564V-42.643a.186.186,0,0,0-.185-.182H10.881a.187.187,0,0,0-.185.182v29.69a.186.186,0,0,0,.185.182H36.219a.182.182,0,0,0,0-.364" fill="none" clip-rule="evenodd"/></clipPath><clipPath id="m"><path d="M20.427-32.339a1.061,1.061,0,0,0-.243-.224,1.782,1.782,0,0,0-.475-.252,2.894,2.894,0,0,0-.9-.144,4.044,4.044,0,0,0-1.063.149,3.4,3.4,0,0,0-1.666.982,1.794,1.794,0,0,0-.269.458.992.992,0,0,0-.081.329,1.585,1.585,0,0,0,.028.524,1.567,1.567,0,0,0,.227.447,1.056,1.056,0,0,0,.222.245,1.79,1.79,0,0,0,.473.281,3.4,3.4,0,0,0,1.952.044,3.688,3.688,0,0,0,1.039-.41,2.873,2.873,0,0,0,.712-.585A1.666,1.666,0,0,0,20.67-31a1.116,1.116,0,0,0,.067-.362.471.471,0,0,0,.006-.194,1.31,1.31,0,0,0-.315-.782" fill="none" clip-rule="evenodd"/></clipPath><clipPath id="o"><path d="M32.94-30.071a1.049,1.049,0,0,0,.222.245,1.787,1.787,0,0,0,.472.281,3.4,3.4,0,0,0,1.952.044,3.677,3.677,0,0,0,1.039-.41,2.868,2.868,0,0,0,.712-.585A1.666,1.666,0,0,0,37.629-31a1.118,1.118,0,0,0,.067-.363.469.469,0,0,0,.006-.193,1.307,1.307,0,0,0-.315-.782,1.054,1.054,0,0,0-.243-.224,1.783,1.783,0,0,0-.475-.252,2.9,2.9,0,0,0-.9-.144,4.044,4.044,0,0,0-1.063.149,3.4,3.4,0,0,0-1.666.982,1.793,1.793,0,0,0-.269.458.992.992,0,0,0-.081.329,1.584,1.584,0,0,0,.028.524,1.567,1.567,0,0,0,.227.447" fill="none" clip-rule="evenodd"/></clipPath><clipPath id="q"><path d="M28.544-32.824a1.815,1.815,0,0,0-.738-.136,3.248,3.248,0,0,0-1.61.422,2.314,2.314,0,0,0-.593.481,1.66,1.66,0,0,0-.237.406,1.634,1.634,0,0,0-.133.625,2.21,2.21,0,0,0,.087.823,1.138,1.138,0,0,0,.369.554,1.3,1.3,0,0,0,.592.244,3.138,3.138,0,0,0,1.606-.219,2.433,2.433,0,0,0,.947-.641,1.565,1.565,0,0,0,.24-.4,1.752,1.752,0,0,0,.144-.71.478.478,0,0,0,0-.187,1.351,1.351,0,0,0-.679-1.266" fill="none" clip-rule="evenodd"/></clipPath><clipPath id="s"><path d="M20.427-26.289a1.061,1.061,0,0,0-.243-.224,1.781,1.781,0,0,0-.475-.252,2.894,2.894,0,0,0-.9-.144,4.03,4.03,0,0,0-1.063.15,3.4,3.4,0,0,0-1.666.981,1.79,1.79,0,0,0-.269.459.99.99,0,0,0-.081.329,1.587,1.587,0,0,0,.028.524,1.57,1.57,0,0,0,.227.446,1.056,1.056,0,0,0,.222.245,1.79,1.79,0,0,0,.473.281,3.4,3.4,0,0,0,1.952.044,3.688,3.688,0,0,0,1.039-.41,2.865,2.865,0,0,0,.712-.585,1.666,1.666,0,0,0,.292-.506,1.116,1.116,0,0,0,.067-.362.471.471,0,0,0,.006-.194,1.311,1.311,0,0,0-.315-.782" fill="none" clip-rule="evenodd"/></clipPath><clipPath id="u"><path d="M37.386-26.289a1.061,1.061,0,0,0-.243-.224,1.781,1.781,0,0,0-.475-.252,2.9,2.9,0,0,0-.9-.144,4.03,4.03,0,0,0-1.063.15,3.4,3.4,0,0,0-1.666.981,1.79,1.79,0,0,0-.269.459,1,1,0,0,0-.081.329,1.6,1.6,0,0,0,.029.524,1.569,1.569,0,0,0,.227.446,1.056,1.056,0,0,0,.222.245,1.79,1.79,0,0,0,.473.281,3.4,3.4,0,0,0,1.952.044,3.681,3.681,0,0,0,1.039-.41,2.86,2.86,0,0,0,.712-.585,1.666,1.666,0,0,0,.293-.506,1.118,1.118,0,0,0,.067-.363.469.469,0,0,0,.006-.193,1.311,1.311,0,0,0-.315-.782" fill="none" clip-rule="evenodd"/></clipPath><clipPath id="w"><path d="M28.544-26.773a1.809,1.809,0,0,0-.738-.136,3.252,3.252,0,0,0-1.61.423,2.314,2.314,0,0,0-.593.481,1.653,1.653,0,0,0-.237.406,1.634,1.634,0,0,0-.133.625,2.208,2.208,0,0,0,.087.822,1.139,1.139,0,0,0,.369.554,1.3,1.3,0,0,0,.592.244,3.142,3.142,0,0,0,1.606-.219,2.433,2.433,0,0,0,.947-.641,1.577,1.577,0,0,0,.24-.4,1.754,1.754,0,0,0,.144-.71.476.476,0,0,0,0-.186,1.351,1.351,0,0,0-.679-1.266" fill="none" clip-rule="evenodd"/></clipPath><clipPath id="y"><path d="M20.742-19.458a1.306,1.306,0,0,0-.315-.782,1.055,1.055,0,0,0-.243-.224,1.77,1.77,0,0,0-.475-.252,2.882,2.882,0,0,0-.9-.144,4.029,4.029,0,0,0-1.063.149,3.406,3.406,0,0,0-1.666.981,1.8,1.8,0,0,0-.269.459.983.983,0,0,0-.08.329,1.587,1.587,0,0,0,.028.524,1.576,1.576,0,0,0,.227.447,1.065,1.065,0,0,0,.222.245,1.8,1.8,0,0,0,.472.281,3.406,3.406,0,0,0,1.952.044,3.712,3.712,0,0,0,1.04-.41,2.88,2.88,0,0,0,.712-.585,1.691,1.691,0,0,0,.293-.506,1.11,1.11,0,0,0,.066-.363.471.471,0,0,0,.006-.194" fill="none" clip-rule="evenodd"/></clipPath><clipPath id="aa"><path d="M37.7-19.458a1.306,1.306,0,0,0-.315-.782,1.055,1.055,0,0,0-.243-.224,1.776,1.776,0,0,0-.475-.252,2.883,2.883,0,0,0-.9-.144,4.03,4.03,0,0,0-1.063.149,3.406,3.406,0,0,0-1.666.981,1.8,1.8,0,0,0-.269.459.993.993,0,0,0-.081.329,1.6,1.6,0,0,0,.028.524,1.576,1.576,0,0,0,.227.447,1.065,1.065,0,0,0,.222.245,1.8,1.8,0,0,0,.472.281,3.406,3.406,0,0,0,1.952.044,3.705,3.705,0,0,0,1.039-.41,2.875,2.875,0,0,0,.712-.585,1.691,1.691,0,0,0,.293-.506,1.11,1.11,0,0,0,.066-.363.469.469,0,0,0,.006-.193" fill="none" clip-rule="evenodd"/></clipPath><clipPath id="ac"><path d="M29.223-19.458a1.352,1.352,0,0,0-.679-1.266,1.815,1.815,0,0,0-.738-.136,3.249,3.249,0,0,0-1.61.423,2.313,2.313,0,0,0-.593.481,1.667,1.667,0,0,0-.237.406,1.637,1.637,0,0,0-.133.626,2.208,2.208,0,0,0,.087.822,1.137,1.137,0,0,0,.369.554,1.3,1.3,0,0,0,.592.244,3.138,3.138,0,0,0,1.606-.219,2.425,2.425,0,0,0,.947-.641,1.565,1.565,0,0,0,.24-.4,1.752,1.752,0,0,0,.144-.71.478.478,0,0,0,0-.187" fill="none" clip-rule="evenodd"/></clipPath><clipPath id="ae"><path d="M42.33-18.736l-6.112-.331v6.114Z" fill="none" clip-rule="evenodd"/></clipPath><clipPath id="ag"><path d="M42.33-18.9l-6.112-.332a.168.168,0,0,0-.167.164v6.114a.169.169,0,0,0,.285.116l6.112-5.782c.155-.147-.081-.378-.236-.232L36.1-13.069l.285.116v-4.97a3.629,3.629,0,0,1,0-1.131c-.113.245-.205.1.085.165a4.209,4.209,0,0,0,.657.036l2.023.11,3.18.173c.214.012.214-.316,0-.328" fill="none" clip-rule="evenodd"/></clipPath><clipPath id="ai"><path d="M41.463-32.053l1.483-.472,1.043,1.137,1.525.319.325,1.5L47-28.546l-.481,1.457L47-25.632l-1.158,1.025-.325,1.5-1.525.319-1.043,1.137-1.483-.473-1.483.473L38.937-22.79l-1.525-.319-.324-1.5L35.93-25.632l.481-1.457-.481-1.457,1.158-1.025.324-1.5,1.525-.319,1.044-1.137Z" fill="none" clip-rule="evenodd"/></clipPath><clipPath id="ak"><path d="M41.508-31.895c.742-.236,1.1-.522,1.629-.178.6.385.6.719,1.259.938a5.68,5.68,0,0,1,.975.193c.2.2.127.85.242,1.118.218.506.829.727,1.035,1.191s-.279.9-.294,1.5c-.011.436.553,1.12.46,1.441-.117.405-.922.689-1.145,1.082-.529.928.136,1.168-.962,1.5-.726.22-.724.13-1.246.649-.917.91-.642.252-1.871.2-.453-.019-.931.4-1.359.353-.528-.059-.665-.719-1.209-1.027-.428-.243-1.246-.086-1.489-.411-.3-.408-.147-1.078-.473-1.51-.705-.935-1.005-.439-.677-1.619.218-.781.053-.71-.1-1.544-.172-.923.454-.654.939-1.456.318-.527.106-1.188.541-1.5.607-.439,1.124-.168,1.706-.746.784-.779.83-.533,1.953-.175.2.065.292-.251.089-.316l-1.483-.473a.167.167,0,0,0-.162.042,3.6,3.6,0,0,1-2.494,1.414.161.161,0,0,0-.116.115,3.509,3.509,0,0,1-1.44,2.451.16.16,0,0,0-.043.16,3.459,3.459,0,0,1,0,2.826.16.16,0,0,0,.043.16,3.507,3.507,0,0,1,1.44,2.451.161.161,0,0,0,.116.115,3.6,3.6,0,0,1,2.494,1.414.166.166,0,0,0,.162.042,3.635,3.635,0,0,1,2.877,0,.166.166,0,0,0,.162-.042,3.6,3.6,0,0,1,2.495-1.414.162.162,0,0,0,.116-.115,3.509,3.509,0,0,1,1.44-2.451.16.16,0,0,0,.043-.16,3.456,3.456,0,0,1,0-2.826.16.16,0,0,0-.043-.16,3.51,3.51,0,0,1-1.44-2.451.162.162,0,0,0-.116-.115,3.6,3.6,0,0,1-2.495-1.414.167.167,0,0,0-.162-.042l-1.483.473c-.2.065-.116.381.089.316" fill="none" clip-rule="evenodd"/></clipPath><clipPath id="aq"><path d="M39.985-28.328a.43.43,0,0,0-.433.425.43.43,0,0,0,.433.425.43.43,0,0,0,.433-.425.43.43,0,0,0-.433-.425m0,1.353a.938.938,0,0,1-.945-.928.938.938,0,0,1,.945-.928.937.937,0,0,1,.945.928.937.937,0,0,1-.945.928" fill="none" clip-rule="evenodd"/></clipPath><clipPath id="as"><path d="M43.083-26.654a.43.43,0,0,0-.433.425.43.43,0,0,0,.433.425.43.43,0,0,0,.433-.425.43.43,0,0,0-.433-.425m0,1.353a.937.937,0,0,1-.945-.928.937.937,0,0,1,.945-.928.937.937,0,0,1,.945.928.937.937,0,0,1-.945.928" fill="none" clip-rule="evenodd"/></clipPath><clipPath id="au"><path d="M40.415-24.979a.256.256,0,0,1-.129-.035.249.249,0,0,1-.091-.344L42.432-29.1a.258.258,0,0,1,.35-.089.248.248,0,0,1,.091.344L40.636-25.1a.258.258,0,0,1-.221.124" fill="none" clip-rule="evenodd"/></clipPath><clipPath id="aw"><path d="M13.48-35.976l9-.064,14.216-.1,3.256-.023c.688,0,1.693-.515,1.782-1.257.1-.817-.87-1-1.478-1l-9,.064-14.216.1-3.256.023c-.688,0-1.692.515-1.781,1.257-.1.817.87,1,1.478,1" fill="none" clip-rule="evenodd"/></clipPath><clipPath id="ay"><path d="M41.445-37.824H11.911A2.053,2.053,0,0,1,9.84-39.858v-1.42a2.053,2.053,0,0,1,2.071-2.035H41.445a2.053,2.053,0,0,1,2.071,2.035v1.42a2.053,2.053,0,0,1-2.071,2.035" fill="none" clip-rule="evenodd"/></clipPath><clipPath id="ba"><path d="M41.445-37.988H14.1c-1.882,0-4.5.034-4.092-2.923.38-2.736,2.678-2.239,4.518-2.239H39.257a15.927,15.927,0,0,1,1.973,0c2.226.286,3.446,4.8.214,5.161-.211.024-.213.352,0,.328,2.766-.313,3.3-5.07.519-5.758a19.8,19.8,0,0,0-4.462-.059H17.532c-1.817,0-3.712-.153-5.524,0-2.409.2-3.419,3.82-1.51,5.322,1.07.841,3.109.495,4.369.495H41.445a.164.164,0,0,0,0-.328" fill="none" clip-rule="evenodd"/></clipPath><clipPath id="bc"><path d="M18.231-40.417H16.1v-4.849h1.785Z" fill="none" clip-rule="evenodd"/></clipPath><clipPath id="be"><path d="M15.835-45.369H18.5v5.055H15.835Z" fill="none" clip-rule="evenodd"/></clipPath><clipPath id="bg"><rect width="4" height="6" transform="translate(15 -46)" fill="none"/></clipPath><clipPath id="bh"><path d="M18.406-40.52H16.279l.093.032v-4.849l-.444.173h1.786l-.093-.032q.148,2.119.3,4.239.022.3.043.61c.006.084.546,0,.537-.141l-.3-4.239q-.022-.3-.043-.61c0-.03-.081-.032-.093-.032H16.279c-.09,0-.444.043-.444.174v4.849c0,.03.084.032.093.032h2.127a.683.683,0,0,0,.38-.1c.07-.054.087-.106-.029-.106" fill="none" clip-rule="evenodd"/></clipPath><clipPath id="bi"><path d="M15-40h4v-6H15Z" fill="none"/></clipPath><clipPath id="bj"><path d="M35.718-40.417H33.591l.341-4.849h1.785Z" fill="none" clip-rule="evenodd"/></clipPath><clipPath id="bl"><path d="M33.322-45.369h2.664v5.055H33.322Z" fill="none" clip-rule="evenodd"/></clipPath><clipPath id="bn"><rect width="4" height="6" transform="translate(33 -46)" fill="none"/></clipPath><clipPath id="bo"><path d="M35.893-40.52H33.767l.093.032q.149-2.119.3-4.239l.043-.61-.445.173h1.786l-.093-.032v4.849c0,.074.537,0,.537-.141v-4.849c0-.03-.084-.032-.093-.032H34.108c-.1,0-.435.04-.444.174l-.3,4.239q-.021.3-.043.61c0,.029.086.032.093.032h2.127a.684.684,0,0,0,.38-.1c.07-.054.088-.106-.029-.106" fill="none" clip-rule="evenodd"/></clipPath><clipPath id="bp"><path d="M33-40h3v-6H33Z" fill="none"/></clipPath></defs><g transform="translate(-205 -542)"><g transform="translate(50.5 11.369)"><g transform="translate(155 587)" clip-path="url(#a)"><g clip-path="url(#b)"><path d="M7.954-41.007H48.371V-4.625H7.954Z" fill="#dde2e7"/></g></g><g transform="translate(155 587)" clip-path="url(#c)"><g clip-path="url(#b)"><path d="M7.11-45.967H47.33v39.69H7.11Z" fill="#fff"/></g></g><g transform="translate(155 587)" clip-path="url(#e)"><g clip-path="url(#b)"><path d="M6.944-46.131H47.5V-6.114H6.944Z" fill="#221f1f"/></g></g><g transform="translate(155 587)" clip-path="url(#g)"><g clip-path="url(#b)"><path d="M8.048-45.568H46.392V-6.948H8.048Z" fill="#ccccca"/></g></g><g transform="translate(155 587)" clip-path="url(#i)"><g clip-path="url(#b)"><path d="M5.881-47.643H47.33v39.69H5.881Z" fill="#fff"/></g></g><g transform="translate(155 587)" clip-path="url(#k)"><g clip-path="url(#b)"><path d="M5.7-47.825H47.518V-7.771H5.7Z" fill="#221f1f"/></g></g><g transform="translate(155 587)" clip-path="url(#m)"><g clip-path="url(#b)"><path d="M10.717-37.96H25.75v13.58H10.717Z" fill="#ccccca"/></g></g><g transform="translate(155 587)" clip-path="url(#o)"><g clip-path="url(#b)"><path d="M27.676-37.96H42.709v13.58H27.676Z" fill="#ccccca"/></g></g><g transform="translate(155 587)" clip-path="url(#q)"><g clip-path="url(#b)"><path d="M20.229-37.959h14v13.588h-14Z" fill="#ccccca"/></g></g><g transform="translate(155 587)" clip-path="url(#s)"><g clip-path="url(#b)"><path d="M10.717-31.91H25.75v13.58H10.717Z" fill="#ccccca"/></g></g><g transform="translate(155 587)" clip-path="url(#u)"><g clip-path="url(#b)"><path d="M27.676-31.91H42.709v13.58H27.676Z" fill="#ccccca"/></g></g><g transform="translate(155 587)" clip-path="url(#w)"><g clip-path="url(#b)"><path d="M20.229-31.91h14v13.588h-14Z" fill="#ccccca"/></g></g><g transform="translate(155 587)" clip-path="url(#y)"><g clip-path="url(#b)"><path d="M10.717-25.86H25.749v13.58H10.717Z" fill="#ccccca"/></g></g><g transform="translate(155 587)" clip-path="url(#aa)"><g clip-path="url(#b)"><path d="M27.676-25.86H42.709v13.58H27.676Z" fill="#ccccca"/></g></g><g transform="translate(155 587)" clip-path="url(#ac)"><g clip-path="url(#b)"><path d="M20.229-25.86h14v13.588h-14Z" fill="#ccccca"/></g></g><g transform="translate(155 587)" clip-path="url(#ae)"><g clip-path="url(#b)"><path d="M31.219-24.067H47.33V-7.954H31.219Z" fill="#fff"/></g></g><g transform="translate(155 587)" clip-path="url(#ag)"><g clip-path="url(#b)"><path d="M31.052-24.231H47.5v16.44H31.052Z" fill="#221f1f"/></g></g><g transform="translate(155 587)" clip-path="url(#ai)"><g clip-path="url(#b)"><path d="M30.93-37.525H52v20.872H30.93Z" fill="#ff533b"/></g></g><g transform="translate(155 587)" clip-path="url(#ak)"><g clip-path="url(#b)"><path d="M30.763-37.69h21.4v21.2h-21.4Z" fill="#221f1f"/></g></g><g transform="translate(155 587)" clip-path="url(#ai)"><g clip-path="url(#b)"><path d="M30.93-37.525H52v20.872H30.93Z" fill="#ff533b"/></g></g><g transform="translate(155 587)" clip-path="url(#ak)"><g clip-path="url(#b)"><path d="M30.763-37.69h21.4v21.2h-21.4Z" fill="#221f1f"/></g></g><g transform="translate(155 587)" clip-path="url(#aq)"><g clip-path="url(#b)"><path d="M34.04-33.831H45.93v11.856H34.04Z" fill="#fff"/></g></g><g transform="translate(155 587)" clip-path="url(#as)"><g clip-path="url(#b)"><path d="M37.138-32.157H49.027V-20.3H37.138Z" fill="#fff"/></g></g><g transform="translate(155 587)" clip-path="url(#au)"><g clip-path="url(#b)"><path d="M35.159-34.226h12.75v14.247H35.159Z" fill="#fff"/></g></g><g transform="translate(155 587)" clip-path="url(#aw)"><g clip-path="url(#b)"><path d="M6.995-43.42H46.74v12.445H6.995Z" fill="#ccccca"/></g></g><g transform="translate(155 587)" clip-path="url(#ay)"><g clip-path="url(#b)"><path d="M4.84-48.313H48.516v15.489H4.84Z" fill="#ff533b"/></g></g><g transform="translate(155 587)" clip-path="url(#ba)"><g clip-path="url(#b)"><path d="M4.5-48.584H48.8v15.995H4.5Z" fill="#221f1f"/></g></g><g transform="translate(155 587)" clip-path="url(#bc)"><g clip-path="url(#b)"><path d="M11.1-50.266H23.231v14.849H11.1Z" fill="#221f1f"/></g></g><g transform="translate(155 587)" clip-path="url(#be)"><g clip-path="url(#b)"><g clip-path="url(#bg)"><g clip-path="url(#bh)"><g clip-path="url(#bi)"><path d="M10.835-50.369H23.5v15.055H10.835Z" fill="#221f1f"/></g></g></g></g></g><g transform="translate(155 587)" clip-path="url(#bj)"><g clip-path="url(#b)"><path d="M28.591-50.266H40.718v14.849H28.591Z" fill="#221f1f"/></g></g><g transform="translate(155 587)" clip-path="url(#bl)"><g clip-path="url(#b)"><g clip-path="url(#bn)"><g clip-path="url(#bo)"><g clip-path="url(#bp)"><path d="M28.322-50.369H40.987v15.055H28.322Z" fill="#221f1f"/></g></g></g></g></g></g><rect width="58" height="58" transform="translate(205 542)" fill="#fff" opacity="0"/></g></svg>