<svg xmlns="http://www.w3.org/2000/svg" width="25" height="25" viewBox="0 0 25 25"><g><g><path fill="silver" d="M12.475 0C8.842 0 5.788 1.344 3.31 4.03 1.103 6.447 0 9.27 0 12.5c.034 3.503 1.256 6.446 3.666 8.827C6.076 23.776 9.012 25 12.475 25c3.632 0 6.704-1.36 9.215-4.082 2.173-2.415 3.276-5.22 3.31-8.418 0-3.673-1.358-6.752-4.073-9.235C18.517 1.088 15.699 0 12.475 0z"/></g><g><path fill="#f7f7f7" d="M17.96 17.169c.224.3.224.582 0 .845a.535.535 0 0 1-.392.17 1.243 1.243 0 0 1-.448-.17l-4.646-4.68-4.646 4.68a.535.535 0 0 1-.392.17 1.243 1.243 0 0 1-.448-.17c-.224-.3-.224-.582 0-.845l4.646-4.681-4.59-4.681c-.261-.3-.261-.583 0-.846.261-.188.541-.188.84 0l4.59 4.68 4.702-4.68c.261-.188.541-.188.84 0 .224.3.224.583 0 .846l-4.702 4.68z"/><path fill="none" stroke="#fff" stroke-miterlimit="50" stroke-width=".5" d="M17.96 17.169c.224.3.224.582 0 .845a.535.535 0 0 1-.392.17 1.243 1.243 0 0 1-.448-.17l-4.646-4.68v0l-4.646 4.68a.535.535 0 0 1-.392.17 1.243 1.243 0 0 1-.448-.17c-.224-.3-.224-.582 0-.845l4.646-4.681v0l-4.59-4.681c-.261-.3-.261-.583 0-.846.261-.188.541-.188.84 0l4.59 4.68v0l4.702-4.68c.261-.188.541-.188.84 0 .224.3.224.583 0 .846l-4.702 4.68v0z"/></g></g></svg>