<?xml version="1.0" encoding="UTF-8"?>
<svg width="18px" height="11px" viewBox="0 0 18 11" version="1.1" xmlns="http://www.w3.org/2000/svg" xmlns:xlink="http://www.w3.org/1999/xlink">
    <!-- Generator: Sketch 58 (84663) - https://sketch.com -->
    <title></title>
    <desc>Created with Sketch.</desc>
    <defs>
        <path d="M238.403508,15.0813012 C238.239765,14.9728996 238.099415,14.9728996 237.982456,15.0813012 L231,21.5528457 L224.017544,15.0813012 C223.900585,14.9728996 223.760235,14.9728996 223.596492,15.0813012 L222.122808,16.4796751 C221.959064,16.5880768 221.959064,16.7181568 222.122808,16.869919 L230.789474,24.902439 C230.85965,24.96748 230.929824,25 231,25 C231.070176,25 231.140351,24.96748 231.210526,24.902439 L239.91228,16.869919 C240.02924,16.7181568 240.02924,16.5880768 239.91228,16.4796751 L238.403508,15.0813012 Z" id="path-1"></path>
        <filter x="-2.8%" y="-5.0%" width="105.6%" height="120.0%" filterUnits="objectBoundingBox" id="filter-2">
            <feOffset dx="0" dy="1" in="SourceAlpha" result="shadowOffsetOuter1"></feOffset>
            <feColorMatrix values="0 0 0 0 1   0 0 0 0 1   0 0 0 0 1  0 0 0 1 0" type="matrix" in="shadowOffsetOuter1"></feColorMatrix>
        </filter>
    </defs>
    <g id="📱-Mobile" stroke="none" stroke-width="1" fill="none" fill-rule="evenodd">
        <g id="M-electricity-landing" transform="translate(-254.000000, -588.000000)">
            <g id="Group-4" transform="translate(16.000000, 452.000000)">
                <g id="Dropdown-5x-Copy" transform="translate(16.000000, 121.000000)">
                    <g id="">
                        <use fill="black" fill-opacity="1" filter="url(#filter-2)" xlink:href="#path-1"></use>
                        <use fill="#FF3333" fill-rule="evenodd" xlink:href="#path-1"></use>
                    </g>
                </g>
            </g>
        </g>
    </g>
</svg>