<svg xmlns="http://www.w3.org/2000/svg" xmlns:xlink="http://www.w3.org/1999/xlink" width="58" height="58" viewBox="0 0 58 58"><defs><clipPath id="a"><path d="M13.6-208.336s2.262-13.215,8.2-13.421.765,18.054.765,18.054Z" fill="none" clip-rule="evenodd"/></clipPath><clipPath id="b"><path d="M0-192H57v-57H0Z" fill="none"/></clipPath><clipPath id="c"><path d="M13.778-208.287a32.454,32.454,0,0,1,2.352-7.769,10.851,10.851,0,0,1,3.548-4.8c1.576-1.016,3.457-1.018,4.259.85,1.346,3.133.335,7.544-.273,10.736q-.409,2.145-.946,4.265a8.4,8.4,0,0,1-.273,1.042c-.122.307.36.185-.09-.052-2.874-1.518-5.775-2.985-8.662-4.477-.212-.11-.4.211-.188.322l8.966,4.633a.189.189,0,0,0,.273-.111c1.3-4.6,2.636-9.954,1.974-14.744-.256-1.852-1.1-3.754-3.267-3.517-2.964.324-4.736,3.581-5.792,6.006a33.211,33.211,0,0,0-2.241,7.522c-.041.234.318.335.359.1" fill="none" clip-rule="evenodd"/></clipPath><clipPath id="e"><path d="M40.453-211.413l-20.44,2.081a2.83,2.83,0,0,1-3.1-2.529l-2.372-23.3a2.83,2.83,0,0,1,2.529-3.1l20.44-2.081a2.83,2.83,0,0,1,3.1,2.529l2.371,23.3a2.83,2.83,0,0,1-2.529,3.1" fill="none" clip-rule="evenodd"/></clipPath><clipPath id="g"><path d="M40.453-211.6l-19.458,1.981c-1.809.184-3.493-.176-3.911-2.364-.189-.99-.208-2.047-.31-3.049l-1.25-12.279c-.263-2.582-.75-5.244-.8-7.841s1.993-2.888,3.891-3.082l5.224-.532,11.907-1.212c1.749-.178,3.877-.552,4.587,1.711a13.712,13.712,0,0,1,.313,2.645q.675,6.628,1.35,13.256l.609,5.984c.2,2,.6,4.247-2.2,4.789-.235.045-.135.4.1.358,3.785-.731,2.474-5.164,2.2-7.858q-.7-6.921-1.409-13.843c-.247-2.425.167-7.266-3.225-7.593a15.915,15.915,0,0,0-3.027.251l-6.463.658c-3.758.383-7.6.563-11.334,1.154-3.477.551-2.857,3.639-2.594,6.218l1.4,13.737q.278,2.73.556,5.459a4.545,4.545,0,0,0,1.022,3.068c1.137,1.119,2.631.811,4.042.668l6.91-.7,11.876-1.209c.236-.024.238-.4,0-.372" fill="none" clip-rule="evenodd"/></clipPath><clipPath id="i"><path d="M39.556-212.179l-17.541,1.786a3.646,3.646,0,0,1-4-3.258l-2.087-20.5a3.207,3.207,0,0,1,2.865-3.515l17.978-1.83a3.646,3.646,0,0,1,4,3.258l2.042,20.061a3.645,3.645,0,0,1-3.257,4" fill="none" clip-rule="evenodd"/></clipPath><clipPath id="k"><path d="M44.31-214.073l-24.86,2.531-2.686-26.383a2.558,2.558,0,0,1,2.286-2.8l19.9-2.026a2.431,2.431,0,0,1,2.665,2.172Z" fill="none" clip-rule="evenodd"/></clipPath><clipPath id="m"><path d="M44.31-214.259,22.6-212.049c-.817.083-2.282.538-3.088.314.042.012.171.32.089-.131-.093-.51-.106-1.048-.159-1.564l-1.282-12.6q-.566-5.56-1.132-11.12c-.168-1.648.328-3.063,2.239-3.42,1.4-.261,2.883-.294,4.3-.437l13.118-1.336c1.655-.169,3.871-.778,4.61,1.345a12.491,12.491,0,0,1,.373,2.8q1.228,12.059,2.456,24.119c.024.236.4.239.372,0q-.851-8.358-1.7-16.717-.445-4.367-.889-8.734c-.195-1.915-.89-3.535-3.177-3.4-6.106.37-12.219,1.244-18.305,1.864-2.018.205-3.931.733-3.834,3.239.086,2.221.455,4.468.68,6.678q1,9.8,1.995,19.6c.01.092.078.2.186.186l24.86-2.531c.236-.024.238-.4,0-.372" fill="none" clip-rule="evenodd"/></clipPath><clipPath id="o"><path d="M23.5-233.1l10.184-1.037,1.471-.15c.628-.064,1.692-.428,1.822-1.158.134-.751-.939-.846-1.424-.8L25.364-235.2l-1.471.15c-.628.064-1.692.428-1.822,1.157-.134.752.939.847,1.424.8" fill="none" clip-rule="evenodd"/></clipPath><clipPath id="q"><path d="M24-228.169l10.184-1.037,1.471-.15c.628-.064,1.692-.428,1.822-1.158.134-.751-.939-.846-1.424-.8l-10.184,1.036-1.471.15c-.628.064-1.692.428-1.822,1.158-.134.751.939.847,1.424.8" fill="none" clip-rule="evenodd"/></clipPath><clipPath id="s"><path d="M24.5-223.237l10.184-1.037,1.471-.15c.628-.064,1.692-.429,1.822-1.158.134-.752-.939-.846-1.424-.8l-10.184,1.037-1.471.149c-.628.064-1.692.428-1.822,1.158-.134.752.939.847,1.424.8" fill="none" clip-rule="evenodd"/></clipPath><clipPath id="u"><path d="M25-218.306l10.184-1.037,1.471-.15c.628-.064,1.692-.429,1.822-1.158.134-.752-.939-.847-1.424-.8L26.87-220.41l-1.471.15c-.628.064-1.692.428-1.822,1.157-.134.752.939.847,1.424.8" fill="none" clip-rule="evenodd"/></clipPath><clipPath id="w"><path d="M25.255-236.187a2.68,2.68,0,0,1-2.395,2.938,2.681,2.681,0,0,1-2.938-2.395,2.68,2.68,0,0,1,2.395-2.938,2.68,2.68,0,0,1,2.938,2.395" fill="none" clip-rule="evenodd"/></clipPath><clipPath id="y"><path d="M24.985-236.115a2.522,2.522,0,0,1-1.361,2.5,2.4,2.4,0,0,1-2.759-.594,2.606,2.606,0,0,1-.453-2.825,2.336,2.336,0,0,1,2.392-1.377,2.583,2.583,0,0,1,2.182,2.3c.023.2.564.075.539-.144a2.832,2.832,0,0,0-2.209-2.433,3.121,3.121,0,0,0-3.182,1.238,2.806,2.806,0,0,0,.1,3.3,2.971,2.971,0,0,0,3.209.94,2.932,2.932,0,0,0,2.084-3.047c-.017-.2-.558-.077-.539.144" fill="none" clip-rule="evenodd"/></clipPath><clipPath id="aa"><path d="M23.492-237.129l-1.117,1.61-.972-.555-.215.608,1.31.681,1.458-1.921Z" fill="none" clip-rule="evenodd"/></clipPath><clipPath id="ac"><path d="M23.238-237.145l-1.117,1.61.465-.125-.972-.555a.37.37,0,0,0-.483.169l-.215.608c-.015.042.025.1.06.113l1.31.68a.4.4,0,0,0,.465-.125l1.275-1.68.183-.24a.108.108,0,0,0-.005-.128l-.463-.423a.342.342,0,0,0-.361-.02c-.066.03-.234.154-.137.243l.463.423c0-.043,0-.085-.005-.128l-1.275,1.68-.183.241.465-.125-1.31-.68.06.113.215-.608-.483.169.972.555a.39.39,0,0,0,.465-.125l1.117-1.61c.075-.108-.064-.181-.154-.188a.405.405,0,0,0-.354.155" fill="none" clip-rule="evenodd"/></clipPath><clipPath id="ae"><path d="M36.742-222.122A5.729,5.729,0,0,0,35-218.66h0a4.971,4.971,0,0,0,2.576,4.632h0a5.546,5.546,0,0,0,3.765.649h0L40.19-223.467a5.213,5.213,0,0,0-3.449,1.345Z" fill="none" clip-rule="evenodd"/></clipPath><clipPath id="ag"><rect width="10" height="14" transform="translate(33 -225)" fill="none"/></clipPath><clipPath id="ah"><path d="M33.609-223.625l7.421-.755,1.195,11.734-7.421.756Z" fill="none" clip-rule="evenodd"/></clipPath><clipPath id="ai"><path d="M34-213h8v-11H34Z" fill="none"/></clipPath><clipPath id="aj"><path d="M38.159-223.14a5.709,5.709,0,0,0-1.3.79h0a5.354,5.354,0,0,0-1.133,1.292h0a6.048,6.048,0,0,0-.7,1.575h0a4.669,4.669,0,0,0-.165.974h0a4.614,4.614,0,0,0,.622,2.616h0l-.005,0a5.6,5.6,0,0,0,1.9,1.944h0a5.36,5.36,0,0,0,3.443.763h0a1.863,1.863,0,0,0,.429-.1h0c.09-.035.126-.066.1-.088h0a.49.49,0,0,0-.08-.036h0a.6.6,0,0,0-.248-.033h0c-.118,0-.283.018-.535.026h0c-.068,0-.135.005-.2,0h0c-.067,0-.134,0-.2,0h0a5.264,5.264,0,0,1-1.8-.369h0a5.319,5.319,0,0,1-1.96-1.4h0a5.113,5.113,0,0,1-.856-1.35h0a4.387,4.387,0,0,1-.331-1.25h0a4.186,4.186,0,0,1,.065-1.286h0a5.48,5.48,0,0,1,.94-2.143h0a5.156,5.156,0,0,1,3.126-1.983h0a4.848,4.848,0,0,0,.8-.224h0c.164-.071.194-.139-.009-.142h-.042a4.662,4.662,0,0,0-1.848.417Z" fill="none" clip-rule="evenodd"/></clipPath><clipPath id="am"><path d="M33.459-223.715l7.563-.77,1.218,11.964-7.563.77Z" fill="none" clip-rule="evenodd"/></clipPath><clipPath id="ao"><path d="M38.689-222.866a5.543,5.543,0,0,0-2.681,4.281h0a4.423,4.423,0,0,0,.782,2.867h0a5.547,5.547,0,0,0,2.846,2.1h0a5.427,5.427,0,0,0,5.7-1.346h0a4.973,4.973,0,0,0,.922-3.7h0a5.435,5.435,0,0,0-2.573-4.112h0a4.905,4.905,0,0,0-2.58-.729h0a4.8,4.8,0,0,0-2.418.644Z" fill="none" clip-rule="evenodd"/></clipPath><clipPath id="aq"><rect width="14" height="14" transform="translate(34 -225)" fill="none"/></clipPath><clipPath id="ar"><path d="M34.614-223.679l11.818-1.2,1.2,11.753-11.818,1.2Z" fill="none" clip-rule="evenodd"/></clipPath><clipPath id="as"><path d="M35-213H47v-11H35Z" fill="none"/></clipPath><clipPath id="at"><path d="M39.468-223.37a4.972,4.972,0,0,0-.864.382h0a5.661,5.661,0,0,0-.774.541h0a5.507,5.507,0,0,0-.668.666h0l-.077.089-.072.094c-.047.063-.1.125-.142.188h0c-.087.131-.18.258-.257.4h0a5.683,5.683,0,0,0-.689,1.753h0c-.026.156-.061.311-.074.468h0a4.116,4.116,0,0,0-.033.475h0a4.477,4.477,0,0,0,.084.95h0a3.307,3.307,0,0,0,.326.91h0a2.617,2.617,0,0,0,.385.55h0c.227.234.305.231.117-.08h0a4.7,4.7,0,0,1-.583-1.645h0a4.622,4.622,0,0,1,.09-1.746h0a5.4,5.4,0,0,1,1.282-2.413h0a5.327,5.327,0,0,1,1.2-.97h0a4.681,4.681,0,0,1,1.439-.536h0a4.757,4.757,0,0,1,1.533-.047h0a5.1,5.1,0,0,1,.753.156h0a4.975,4.975,0,0,1,.715.279h0a5.258,5.258,0,0,1,1.42,1.009h0a5.253,5.253,0,0,1,1.259,2.02h0a5.247,5.247,0,0,1,.256,1.171h0a6.279,6.279,0,0,1,.017,1.2h-.007a4.975,4.975,0,0,1-.231,1.18h0a3.821,3.821,0,0,1-.531,1.06h0c-.029.041-.06.078-.09.117h0a1.09,1.09,0,0,1-.1.112h0l-.2.218a4.375,4.375,0,0,1-.455.381h0a4.385,4.385,0,0,1-1.045.563h0a5.8,5.8,0,0,1-3.159.249h0a5.661,5.661,0,0,1-2.761-1.4h0c-.5-.475-.732-.8-.73-.687h0a.993.993,0,0,0,.041.14h0a.81.81,0,0,0,.078.174h0a1.715,1.715,0,0,0,.158.232h0a4.262,4.262,0,0,0,.755.727h0a5.306,5.306,0,0,0,.659.432h0a6.043,6.043,0,0,0,3.449.732h0a6.621,6.621,0,0,0,1.143-.2h0a5.69,5.69,0,0,0,1.083-.439h0a4.78,4.78,0,0,0,.948-.693h0c.069-.07.134-.144.2-.215h0a2.546,2.546,0,0,0,.19-.227h0c.061-.077.114-.161.17-.243h0c.049-.086.105-.167.148-.256h0a4.15,4.15,0,0,0,.3-.718h0a5,5,0,0,0,.181-.757h0a6.382,6.382,0,0,0,.052-1.55h0a5.617,5.617,0,0,0-.751-2.4h0a5.612,5.612,0,0,0-1.733-1.82h0a4.978,4.978,0,0,0-1.029-.525h0a5.192,5.192,0,0,0-1.124-.27h0a4.98,4.98,0,0,0-.634-.04h0a5.24,5.24,0,0,0-1.627.262Z" fill="none" clip-rule="evenodd"/></clipPath><clipPath id="av"><rect width="14" height="15" transform="translate(34 -226)" fill="none"/></clipPath><clipPath id="aw"><path d="M34.424-223.784l12.093-1.231,1.217,11.953L35.641-211.83Z" fill="none" clip-rule="evenodd"/></clipPath><clipPath id="ay"><path d="M41.226-221.542l.075.738a2.534,2.534,0,0,1,1.147.241l-.362.925a1.279,1.279,0,0,0-.8-.221.632.632,0,0,0-.368.145.3.3,0,0,0-.122.256.322.322,0,0,0,.14.219.852.852,0,0,0,.323.146l.372.085a2.053,2.053,0,0,1,.925.421,1.142,1.142,0,0,1,.348.757,1.84,1.84,0,0,1-.015.526,1.085,1.085,0,0,1-.179.425,1.414,1.414,0,0,1-.368.352,3.351,3.351,0,0,1-.576.306l.077.756-.561.057-.074-.726a1.947,1.947,0,0,1-.407,0,3.211,3.211,0,0,1-.433-.079,2.682,2.682,0,0,1-.406-.138,1.464,1.464,0,0,1-.317-.18l.4-.972a1.722,1.722,0,0,0,1.168.393.653.653,0,0,0,.381-.162.378.378,0,0,0,.135-.335q-.027-.268-.436-.356l-.359-.074a3.223,3.223,0,0,1-.552-.16,1.318,1.318,0,0,1-.387-.232.985.985,0,0,1-.243-.323,1.351,1.351,0,0,1-.112-.436,1.683,1.683,0,0,1,.025-.514,1.31,1.31,0,0,1,.188-.46,1.349,1.349,0,0,1,.355-.363,1.373,1.373,0,0,1,.532-.217l-.075-.739Z" fill="none" clip-rule="evenodd"/></clipPath><clipPath id="bc"><path d="M41.111-221.517q.037.369.075.738c0,.043.041.051.079.052a2.557,2.557,0,0,1,1.1.234l-.024-.064-.362.925.193-.074c-.393-.232-1.161-.418-1.445.1-.246.446.471.592.763.659.56.128,1.126.352,1.271.967a1.407,1.407,0,0,1-.145,1.09,1.953,1.953,0,0,1-.872.608c-.028.013-.095.046-.09.088l.077.756.15-.1-.561.057.078.051q-.037-.363-.074-.726c0-.04-.041-.055-.079-.052a2.542,2.542,0,0,1-1.134-.187,1.883,1.883,0,0,1-.238-.113c-.038-.056-.077-.067-.118-.032l.006-.014c0-.035.043-.1.056-.136l.338-.82-.211.063a1.509,1.509,0,0,0,1.658.259.477.477,0,0,0,.223-.542c-.072-.2-.3-.273-.489-.314-.537-.118-1.208-.193-1.472-.753a1.331,1.331,0,0,1,.868-1.875c.037-.008.126-.045.121-.1q-.037-.369-.075-.739l-.15.1.561-.057c.095-.01.227-.168.072-.152l-.561.057c-.041,0-.157.037-.151.1q.038.369.075.738l.121-.1a1.5,1.5,0,0,0-1.182,1.075,1.322,1.322,0,0,0,.607,1.554,2.954,2.954,0,0,0,.743.232,2,2,0,0,1,.51.131.317.317,0,0,1,.188.348c-.042.219-.278.294-.472.295a1.767,1.767,0,0,1-.993-.381.162.162,0,0,0-.211.063l-.4.971a.045.045,0,0,0,.007.053,2.532,2.532,0,0,0,1.63.42l-.078-.052.074.726a.064.064,0,0,0,.079.052l.561-.057c.041,0,.157-.038.15-.1l-.077-.756-.091.087a1.877,1.877,0,0,0,1.181-1.04,1.439,1.439,0,0,0-.37-1.493,2.82,2.82,0,0,0-1.184-.454c-.206-.047-.682-.214-.452-.505.242-.308.776-.072,1.034.08a.168.168,0,0,0,.194-.074l.362-.924a.045.045,0,0,0-.024-.064,2.783,2.783,0,0,0-1.2-.248l.079.052q-.038-.369-.075-.739c-.011-.1-.238-.036-.229.049" fill="none" clip-rule="evenodd"/></clipPath><clipPath id="be"><path d="M9.679-201.844l3.175-7.131,11.626,2.556-1.068,7.606" fill="none" clip-rule="evenodd"/></clipPath><clipPath id="bg"><path d="M9.5-209.159H24.662v10.531H9.5Z" fill="none" clip-rule="evenodd"/></clipPath><clipPath id="bi"><rect width="16" height="12" transform="translate(9 -210)" fill="none"/></clipPath><clipPath id="bj"><path d="M9.839-201.75c.988-2.219,2.031-4.422,2.967-6.663.033-.078.122-.4.2-.448.04-.025-.338.139-.07.094a4.255,4.255,0,0,1,1.173.258l4.328.952,4.443.977a8.562,8.562,0,0,1,1.323.291c.4.163,0-.371.061.1.152,1.228-.4,2.855-.573,4.08q-.229,1.626-.457,3.253c-.033.234.326.335.359.1q.534-3.8,1.068-7.606a.19.19,0,0,0-.13-.228L12.9-209.154a.189.189,0,0,0-.21.085l-3.176,7.131c-.1.217.224.407.321.188" fill="none" clip-rule="evenodd"/></clipPath><clipPath id="bk"><path d="M9-198H25v-12H9Z" fill="none"/></clipPath><clipPath id="bl"><path d="M22.589-208.449l.452-1.165a4.875,4.875,0,0,0-2.066-5.113s2.546-2.287,1.394-3.748-6.46,6.943-6.46,6.943" fill="none" clip-rule="evenodd"/></clipPath><clipPath id="bn"><path d="M22.768-208.4c.782-2.015.766-4.727-1.215-6.131-.311-.221-.361-.462-.41-.1.029-.212.785-.857.9-1.019.494-.675,1.323-2.171.468-2.939-1.712-1.54-6.023,5.788-6.766,6.962-.129.2.193.389.321.188a51.207,51.207,0,0,1,3.094-4.4,8.172,8.172,0,0,1,2.22-2.342c1.5-.7.842,1.62.354,2.309a6.468,6.468,0,0,1-.895,1.011.188.188,0,0,0,.038.292c2.158,1.293,2.352,3.944,1.529,6.067-.087.224.273.32.359.1" fill="none" clip-rule="evenodd"/></clipPath><clipPath id="bp"><path d="M18.19-211.964c3.115.8,4.282,2.466,3,3.628s-5.071-.273-5.279-.593a2.031,2.031,0,0,1,2.281-3.036" fill="none" clip-rule="evenodd"/></clipPath><clipPath id="br"><path d="M16.773-207.574l-2.661-.656a1.731,1.731,0,0,0-1.8.868l-1.976,5.613c-.1.272.552-.572.457-.3a.922.922,0,0,0,.864,1.233l3.791.525c.017,0,.035,0,.052,0a1.339,1.339,0,0,0,.306.008c.023,0,.047-.007.071-.011a1.608,1.608,0,0,0,1.375-.868.986.986,0,0,0,.032-.128,1.106,1.106,0,0,0,.044-.148c.33-1.833-.084-2.549.245-4.382l.144-.8c.1-.577-.5-.849-.941-.956" fill="none" clip-rule="evenodd"/></clipPath></defs><g transform="translate(-200 -346)"><g transform="translate(46.5 8.928)"><g transform="translate(155 587)" clip-path="url(#a)"><g clip-path="url(#b)"><path d="M8.6-226.758H29.654V-198.7H8.6Z" fill="#fff"/></g></g><g transform="translate(155 587)" clip-path="url(#c)"><g clip-path="url(#b)"><path d="M8.411-226.934H29.893v28.415H8.411Z" fill="#221f1f"/></g></g><g transform="translate(155 587)" clip-path="url(#e)"><g clip-path="url(#b)"><path d="M9.524-245.356H48v41.039H9.524Z" fill="#fff"/></g></g><g transform="translate(155 587)" clip-path="url(#g)"><g clip-path="url(#b)"><path d="M9.432-245.548H48.144v41.384H9.432Z" fill="#221f1f"/></g></g><g transform="translate(155 587)" clip-path="url(#i)"><g clip-path="url(#b)"><path d="M10.915-244.512H47.832v39.138H10.915Z" fill="#ccccca"/></g></g><g transform="translate(155 587)" clip-path="url(#k)"><g clip-path="url(#b)"><path d="M11.751-247.769H49.31v41.226H11.751Z" fill="#fff"/></g></g><g transform="translate(155 587)" clip-path="url(#m)"><g clip-path="url(#b)"><path d="M11.585-247.928H49.5v41.573H11.585Z" fill="#221f1f"/></g></g><g transform="translate(155 587)" clip-path="url(#o)"><g clip-path="url(#b)"><path d="M17.06-241.252H41.984v13.163H17.06Z" fill="#ccccca"/></g></g><g transform="translate(155 587)" clip-path="url(#q)"><g clip-path="url(#b)"><path d="M17.562-236.321H42.486v13.163H17.562Z" fill="#ccccca"/></g></g><g transform="translate(155 587)" clip-path="url(#s)"><g clip-path="url(#b)"><path d="M18.064-231.389H42.988v13.163H18.064Z" fill="#ccccca"/></g></g><g transform="translate(155 587)" clip-path="url(#u)"><g clip-path="url(#b)"><path d="M18.566-226.458H43.49v13.163H18.566Z" fill="#ccccca"/></g></g><g transform="translate(155 587)" clip-path="url(#w)"><g clip-path="url(#b)"><path d="M14.908-243.6h15.36v15.36H14.908Z" fill="#221f1f"/></g></g><g transform="translate(155 587)" clip-path="url(#y)"><g clip-path="url(#b)"><path d="M14.643-243.76H30.536v15.688H14.643Z" fill="#221f1f"/></g></g><g transform="translate(155 587)" clip-path="url(#aa)"><g clip-path="url(#b)"><path d="M16.188-242.129H28.956v12.344H16.188Z" fill="#fff"/></g></g><g transform="translate(155 587)" clip-path="url(#ac)"><g clip-path="url(#b)"><path d="M15.913-242.3H29.227v12.691H15.913Z" fill="#fff"/></g></g><g transform="translate(155 587)" clip-path="url(#ae)"><g clip-path="url(#b)"><g clip-path="url(#ag)"><g clip-path="url(#ah)"><g clip-path="url(#ai)"><path d="M28.609-229.38H47.225v22.49H28.609Z" fill="#666"/></g></g></g></g></g><g transform="translate(155 587)" clip-path="url(#aj)"><g clip-path="url(#b)"><g clip-path="url(#ag)"><g clip-path="url(#am)"><g clip-path="url(#ai)"><path d="M28.459-229.485H47.24v22.733H28.459Z" fill="#221f1f"/></g></g></g></g></g><g transform="translate(155 587)" clip-path="url(#ao)"><g clip-path="url(#b)"><g clip-path="url(#aq)"><g clip-path="url(#ar)"><g clip-path="url(#as)"><path d="M29.614-229.882H52.628v22.957H29.614Z" fill="#ff533b"/></g></g></g></g></g><g transform="translate(155 587)" clip-path="url(#at)"><g clip-path="url(#b)"><g clip-path="url(#av)"><g clip-path="url(#aw)"><g clip-path="url(#as)"><path d="M29.424-230.015h23.31v23.185H29.424Z" fill="#221f1f"/></g></g></g></g></g><g transform="translate(155 587)" clip-path="url(#ay)"><g clip-path="url(#b)"><path d="M34.631-226.542H47.917v16.134H34.631Z" fill="#fff"/></g></g><g transform="translate(155 587)" clip-path="url(#ay)"><g clip-path="url(#b)"><path d="M34.631-226.542H47.917v16.134H34.631Z" fill="#fff"/></g></g><g transform="translate(155 587)" clip-path="url(#bc)"><g clip-path="url(#b)"><path d="M34.514-226.619H48.039v16.288H34.514Z" fill="#fff"/></g></g><g transform="translate(155 587)" clip-path="url(#be)"><g clip-path="url(#b)"><path d="M4.679-213.975h24.8v20.162H4.679Z" fill="#fff"/></g></g><g transform="translate(155 587)" clip-path="url(#bg)"><g clip-path="url(#b)"><g clip-path="url(#bi)"><g clip-path="url(#bj)"><g clip-path="url(#bk)"><path d="M4.5-214.159H29.662v20.531H4.5Z" fill="#221f1f"/></g></g></g></g></g><g transform="translate(155 587)" clip-path="url(#bl)"><g clip-path="url(#b)"><path d="M10.908-223.645H28.131v20.2H10.908Z" fill="#fff"/></g></g><g transform="translate(155 587)" clip-path="url(#bn)"><g clip-path="url(#b)"><path d="M10.718-223.8H28.25v20.524H10.718Z" fill="#221f1f"/></g></g><g transform="translate(155 587)" clip-path="url(#bp)"><g clip-path="url(#b)"><path d="M10.612-217.048H26.7v14.159H10.612Z" fill="#fff"/></g></g><g transform="translate(155 587)" clip-path="url(#br)"><g clip-path="url(#b)"><path d="M5.322-213.261h17.4v17.986H5.322Z" fill="#ccccca"/></g></g></g><rect width="58" height="58" transform="translate(200 346)" fill="#fff" opacity="0"/></g></svg>