<?xml version="1.0" encoding="UTF-8"?>
<svg width="34px" height="48px" viewBox="0 0 34 48" version="1.1" xmlns="http://www.w3.org/2000/svg" xmlns:xlink="http://www.w3.org/1999/xlink">
    <!-- Generator: Sketch 58 (84663) - https://sketch.com -->
    <title>Group 22</title>
    <desc>Created with Sketch.</desc>
    <defs>
        <polygon id="path-1" points="0 0.16335 27.0959354 0.16335 27.0959354 35.843005 0 35.843005"></polygon>
        <polygon id="path-3" points="0 47.68665 33.2431 47.68665 33.2431 0.55 0 0.55"></polygon>
    </defs>
    <g id="-" stroke="none" stroke-width="1" fill="none" fill-rule="evenodd">
        <g id="Landing-electricity" transform="translate(-328.000000, -901.000000)">
            <g id="Group-11" transform="translate(256.000000, 538.000000)">
                <g id="Group-3" transform="translate(72.000000, 330.000000)">
                    <g id="Group" transform="translate(0.000000, 33.000000)">
                        <g id="Group-22">
                            <g id="Group-21">
                                <path d="M6.1985,35.954875 L18.44205,35.954875 C18.44205,35.954875 20.17785,26.503675 24.42165,20.910175 C28.6649,15.317225 28.27935,0.919325 14.39185,0.919325 C-0.3366,0.919325 -2.21815,14.913525 2.6906,23.803175 C7.4822,32.483275 6.1985,35.954875 6.1985,35.954875" id="Fill-1" fill="#FFFFFF"></path>
                                <g id="Group-5" transform="translate(0.000000, 0.386870)">
                                    <mask id="mask-2" fill="white">
                                        <use xlink:href="#path-1"></use>
                                    </mask>
                                    <g id="Clip-4"></g>
                                    <path d="M6.1985,35.843005 L18.44205,35.843005 C18.5548,35.843005 18.6857,35.758305 18.7077,35.641155 C19.20105,33.012155 19.96555,30.404605 20.89835,27.900455 C21.67605,25.812105 22.60115,23.744655 23.81665,21.870255 C24.5498,20.739455 25.35995,19.729105 25.89895,18.482255 C27.8498,13.961805 27.5077,7.961305 24.19395,4.150905 C20.0387,-0.626945 11.78595,-0.823295 6.49495,2.034505 C1.22925,4.878555 -0.6061,10.994555 0.1705,16.639205 C0.76835,20.987505 3.1922,24.352955 4.74155,28.369055 C5.49945,30.334755 6.6726,33.336655 5.9334,35.494855 C5.81845,35.830905 6.3492,35.974455 6.4636,35.641155 C6.8981,34.372855 6.5681,32.777305 6.292,31.518905 C5.368,27.301505 2.7269,23.866205 1.44485,19.807755 C-0.97075,12.158905 1.62855,3.239555 10.16565,1.255705 C14.4485,0.261305 19.7747,0.641905 23.1077,3.811005 C25.6553,6.233205 26.6596,9.819205 26.5034,13.257805 C26.3384,16.903755 24.74725,19.226405 22.9471,22.229955 C20.9374,25.581105 19.64985,29.388205 18.70165,33.161755 C18.57515,33.665005 18.5273,34.647855 18.25615,35.098305 C17.8926,35.702205 18.5889,35.148905 18.2468,35.293005 C17.3261,35.679655 15.4308,35.293005 14.44135,35.293005 L6.1985,35.293005 C5.8443,35.293005 5.84375,35.843005 6.1985,35.843005" id="Fill-3" fill="#231F20" mask="url(#mask-2)"></path>
                                </g>
                                <mask id="mask-4" fill="white">
                                    <use xlink:href="#path-3"></use>
                                </mask>
                                <g id="Clip-7"></g>
                                <polygon id="Fill-6" fill="#FF543C" mask="url(#mask-4)" points="6.0291 39.41927 19.0498 39.41927 19.0498 37.38867 6.0291 37.38867"></polygon>
                                <path d="M19.049635,39.171605 L11.515185,39.171605 C9.986735,39.171605 8.425835,39.077555 6.900135,39.171605 C6.775285,39.179855 6.156535,39.261255 6.055885,39.171605 C6.492585,39.559355 6.247835,37.507305 6.165885,37.587055 C6.188435,37.565605 8.208585,37.636005 8.670585,37.636005 L13.815835,37.636005 C15.260135,37.636005 16.736335,37.724555 18.178435,37.636005 C18.303835,37.627755 18.922585,37.546355 19.023235,37.636005 C18.675085,37.326905 18.802135,39.089105 18.802135,39.419105 C18.802135,39.737555 19.297135,39.738105 19.297135,39.419105 L19.297135,37.388505 C19.297135,37.254855 19.183835,37.141005 19.049635,37.141005 L6.028935,37.141005 C5.895285,37.141005 5.781435,37.254305 5.781435,37.388505 L5.781435,39.419105 C5.781435,39.552755 5.894735,39.666605 6.028935,39.666605 L19.049635,39.666605 C19.368085,39.666605 19.368635,39.171605 19.049635,39.171605" id="Fill-8" fill="#231F20" mask="url(#mask-4)"></path>
                                <polygon id="Fill-9" fill="#FF543C" mask="url(#mask-4)" points="7.2369 42.88372 17.84145 42.88372 17.84145 40.85312 7.2369 40.85312"></polygon>
                                <path d="M17.841725,42.636 L11.293975,42.636 C10.116425,42.636 8.915775,42.7031 7.739325,42.636 C7.030375,42.5953 7.538025,42.8472 7.484675,42.56615 C7.439575,42.32855 7.511075,40.85345 7.371375,41.0201 C7.298775,41.10755 9.203975,41.1004 9.565325,41.1004 L13.986775,41.1004 C15.119225,41.1004 16.298425,41.00525 17.426475,41.1004 C18.058975,41.15375 17.516675,40.84355 17.594225,41.17025 C17.715775,41.68175 17.594225,42.35385 17.594225,42.8835 C17.594225,43.20195 18.089225,43.2025 18.089225,42.8835 L18.089225,40.8529 C18.089225,40.71925 17.975925,40.6054 17.841725,40.6054 L7.237175,40.6054 C7.103525,40.6054 6.989675,40.7187 6.989675,40.8529 L6.989675,42.8835 C6.989675,43.01715 7.102975,43.131 7.237175,43.131 L17.841725,43.131 C18.160175,43.131 18.160725,42.636 17.841725,42.636" id="Fill-10" fill="#231F20" mask="url(#mask-4)"></path>
                                <path d="M10.46342,44.058795 L14.76387,44.058795 C14.76387,44.058795 14.37062,47.129445 13.14137,47.373645 C9.98712,48.000645 10.46342,44.058795 10.46342,44.058795" id="Fill-11" fill="#231F20" mask="url(#mask-4)"></path>
                                <path d="M10.31382,44.305305 L14.08132,44.305305 L14.61427,44.305305 L14.36347,44.102355 C14.30077,44.589105 14.19132,45.074755 14.05107,45.545005 C13.94327,45.907455 13.81237,46.264955 13.62317,46.594405 C13.53682,46.744555 13.44772,46.878755 13.33057,46.995905 C13.25687,47.068505 13.27997,47.052005 13.20187,47.103155 C13.12597,47.153205 13.21672,47.090505 13.16172,47.127355 C13.11112,47.159805 13.21452,47.124055 13.12872,47.139455 C12.49127,47.252755 11.87197,47.187305 11.42372,46.642805 C11.06347,46.205005 10.92377,45.619255 10.86602,45.066505 C10.82862,44.710655 10.81927,44.384505 10.86327,44.015455 C10.90452,43.668405 10.09877,43.803155 10.06302,44.102355 C9.95192,45.032955 10.06467,46.171455 10.65702,46.929905 C11.18117,47.600905 12.05347,47.764255 12.85922,47.656455 C13.32452,47.593755 13.73647,47.439205 14.05327,47.080605 C14.34312,46.752255 14.53012,46.357905 14.68467,45.952005 C14.92062,45.333805 15.07902,44.671605 15.16372,44.015455 C15.18187,43.878505 15.02787,43.812505 14.91292,43.812505 L11.14542,43.812505 L10.61247,43.812505 C10.43647,43.812505 10.18017,43.864755 10.08887,44.038555 C10.00417,44.199705 10.16202,44.305305 10.31382,44.305305" id="Fill-12" fill="#231F20" mask="url(#mask-4)"></path>
                                <path d="M4.103495,21.85359 C4.103495,21.85359 6.392595,25.81304 7.198895,29.03824 C8.005195,32.26399 10.327845,38.70614 12.600995,32.08469 C14.873595,25.46324 7.236845,16.00709 4.063345,16.13689 C1.770395,16.23094 3.205895,20.19809 4.103495,21.85359" id="Fill-13" fill="#DDE3E7" mask="url(#mask-4)"></path>
                                <path d="M10.61621,33.25267 C11.10186,29.54402 11.68321,25.29197 10.82961,21.61192 C10.54911,20.40467 10.12231,19.32007 8.74236,19.28322 C7.91956,19.26122 6.93011,19.67537 6.96806,20.63072 C7.08686,23.61777 16.13766,23.31967 17.29431,21.38587 C18.09676,20.04332 15.93416,18.57647 15.04316,19.83652 C14.70876,20.30952 14.80721,21.39192 14.76981,21.91497 C14.66036,23.44617 14.61196,24.98342 14.56246,26.51737 C14.49041,28.76192 14.43926,31.00702 14.40626,33.25267 C14.40076,33.60687 14.95076,33.60687 14.95626,33.25267 C14.99806,30.42072 15.06186,27.58822 15.17516,24.75847 C15.20816,23.93677 14.89356,20.83917 15.49416,20.20942 C16.24161,19.42567 17.20466,20.47012 16.55786,21.31877 C15.85386,22.24277 12.98671,22.08327 12.06876,22.08382 C10.99021,22.08437 8.81716,22.18887 8.03121,21.25112 C6.99171,20.01087 9.00416,19.35307 9.87151,20.47892 C10.79111,21.67407 10.59476,24.14742 10.59751,25.57137 C10.60246,28.13272 10.39841,30.71277 10.06621,33.25267 C10.02056,33.60247 10.57111,33.59917 10.61621,33.25267" id="Fill-14" fill="#231F20" mask="url(#mask-4)"></path>
                                <path d="M32.99571,29.704015 C32.99571,33.710215 29.74796,36.957965 25.74176,36.957965 C21.73501,36.957965 18.48726,33.710215 18.48726,29.704015 C18.48726,25.697815 21.73501,22.450065 25.74176,22.450065 C29.74796,22.450065 32.99571,25.697815 32.99571,29.704015" id="Fill-15" fill="#FF543C" mask="url(#mask-4)"></path>
                                <path d="M32.7481,29.704015 C32.55615,33.494615 29.68845,36.710465 25.74165,36.710465 C21.94115,36.710465 18.73465,33.502865 18.73465,29.704015 C18.73465,26.135615 21.5182,23.108415 25.04315,22.766865 C29.25945,22.358215 32.54075,25.596065 32.7481,29.704015 C32.76405,30.020815 33.25905,30.023015 33.24255,29.704015 C33.03685,25.624665 29.9794,22.202015 25.74165,22.202015 C21.6711,22.202015 18.2215,25.617515 18.2395787,29.704015 C18.2578,33.789965 21.64415,37.206015 25.74165,37.206015 C29.9783,37.206015 33.03685,33.782265 33.24255,29.704015 C33.25905,29.385565 32.76405,29.386665 32.7481,29.704015" id="Fill-16" fill="#231F20" mask="url(#mask-4)"></path>
                                <path d="M24.043415,29.6406 L22.956065,27.98565 L21.631665,29.6406 L22.293865,29.6406 C22.293865,29.6406 22.104665,33.2002 25.131315,33.2002 C26.263215,33.2002 27.653615,33.0308 27.653615,33.0308 L27.741065,32.175 C27.741065,32.175 26.165315,32.4951 25.036715,32.2861 C22.779515,31.8659 23.151315,29.6879 23.151315,29.6879 L24.043415,29.6406 Z" id="Fill-17" fill="#FFFFFF" mask="url(#mask-4)"></path>
                                <path d="M24.2572,29.516025 C23.89475,28.964375 23.5323,28.412175 23.1693,27.860525 C23.09065,27.740625 22.8866,27.679025 22.781,27.810475 C22.3399,28.362125 21.89825,28.913775 21.45715,29.465425 C21.329,29.625475 21.4005,29.888375 21.63205,29.888375 L22.29425,29.888375 C22.2112,29.805875 22.1287,29.723375 22.0462,29.640875 C22.00605,30.582475 22.24585,31.647275 22.8327,32.396925 C23.97175,33.852225 26.04635,33.467775 27.65345,33.278575 C27.79755,33.262075 27.8861,33.177925 27.90095,33.031075 C27.9301,32.745625 27.95925,32.460725 27.98895,32.175275 C28.006,32.002575 27.8168,31.909075 27.6749,31.936025 C26.33455,32.196175 24.21265,32.442025 23.5488,30.914125 C23.3915,30.551675 23.39095,30.203525 23.38435,29.821825 C23.38325,29.771775 23.09285,29.865825 23.3827,29.923025 C23.5774,29.962075 23.84305,29.898825 24.04325,29.888375 C24.36005,29.871325 24.36225,29.376325 24.04325,29.393375 C23.74625,29.409325 23.4487,29.424725 23.1517,29.440675 C23.05325,29.445625 22.9295,29.512725 22.913,29.622175 C22.4686,32.536075 25.70535,32.820975 27.8069,32.413975 C27.7024,32.334225 27.5979,32.254475 27.4934,32.175275 C27.4648,32.460725 27.4351,32.745625 27.40595,33.031075 C27.48845,32.948575 27.57095,32.866075 27.65345,32.783575 C26.1613,32.959025 24.07735,33.392975 23.1033,31.927225 C22.67375,31.280975 22.5082,30.410325 22.5412,29.640875 C22.54725,29.506675 22.4235,29.393375 22.29425,29.393375 L21.63205,29.393375 C21.69035,29.534175 21.74865,29.674975 21.80695,29.815775 C22.2486,29.264125 22.6897,28.712475 23.1308,28.160825 C23.00155,28.144325 22.87175,28.127825 22.7425,28.110775 L23.82985,29.765725 C24.0042,30.031375 24.43265,29.782775 24.2572,29.516025" id="Fill-18" fill="#FFFFFF" mask="url(#mask-4)"></path>
                                <path d="M27.053125,29.767375 L28.141025,31.422325 L29.464875,29.767375 L28.802675,29.767375 C28.802675,29.767375 28.991875,26.208325 25.965225,26.208325 C24.833875,26.208325 23.443475,26.377175 23.443475,26.377175 L23.355475,27.233525 C23.355475,27.233525 24.931775,26.912875 26.059825,27.122425 C28.317025,27.542075 27.944675,29.720075 27.944675,29.720075 L27.053125,29.767375 Z" id="Fill-19" fill="#FFFFFF" mask="url(#mask-4)"></path>
                                <path d="M26.83934,29.8925 C27.20179,30.44415 27.56424,30.9958 27.92724,31.54745 C28.00534,31.66735 28.20994,31.7295 28.31609,31.5975 C28.75664,31.04585 29.19829,30.4942 29.63994,29.94255 C29.76754,29.7825 29.69604,29.5196 29.46449,29.5196 L28.80229,29.5196 C28.88534,29.60265 28.96784,29.6846 29.05034,29.7671 C29.09104,28.82605 28.85069,27.7607 28.26384,27.01105 C27.12479,25.5563 25.04964,25.9402 23.44309,26.1294 C23.29899,26.14645 23.21044,26.23005 23.19559,26.3769 C23.16644,26.66235 23.13729,26.9478 23.10814,27.23325 C23.09054,27.4054 23.27974,27.4989 23.42164,27.47195 C24.76199,27.21235 26.88389,26.96595 27.54774,28.49385 C27.70504,28.8563 27.70559,29.205 27.71274,29.58615 C27.71329,29.6362 28.00369,29.54215 27.71384,29.48495 C27.51914,29.4459 27.25404,29.50915 27.05329,29.5196 C26.73649,29.53665 26.73429,30.03165 27.05329,30.01515 C27.35029,29.99865 27.64784,29.98325 27.94484,29.96785 C28.04329,29.96235 28.16704,29.89525 28.18354,29.7858 C28.62794,26.8719 25.39119,26.58755 23.28964,26.994 C23.39414,27.07375 23.49864,27.1535 23.60314,27.23325 C23.63229,26.9478 23.66144,26.66235 23.69059,26.3769 C23.60809,26.45995 23.52559,26.5419 23.44309,26.62495 C24.93469,26.44895 27.01919,26.01555 27.99379,27.48075 C28.42334,28.127 28.58834,28.99765 28.55534,29.7671 C28.54929,29.9013 28.67304,30.01515 28.80229,30.01515 L29.46449,30.01515 C29.40619,29.87435 29.34844,29.733 29.28959,29.5922 C28.84794,30.14385 28.40739,30.6955 27.96574,31.2477 C28.09499,31.2642 28.22534,31.2807 28.35459,31.29775 C27.99214,30.7461 27.62969,30.19445 27.26669,29.64225 C27.09234,29.37715 26.66389,29.6252 26.83934,29.8925" id="Fill-20" fill="#FFFFFF" mask="url(#mask-4)"></path>
                            </g>
                        </g>
                    </g>
                </g>
            </g>
        </g>
    </g>
</svg>