<svg xmlns="http://www.w3.org/2000/svg" xmlns:xlink="http://www.w3.org/1999/xlink" width="20" height="20" viewBox="0 0 20 20">
  <defs>
    <clipPath id="clip-path">
      <path id="Path_424" data-name="Path 424" d="M0-16a4,4,0,0,1,4-4H16a4,4,0,0,1,4,4V-4a4,4,0,0,1-4,4H4A4,4,0,0,1,0-4Z" fill="none" clip-rule="evenodd"/>
    </clipPath>
    <clipPath id="clip-path-2">
      <rect id="Rectangle_25" data-name="Rectangle 25" width="40" height="40" transform="translate(-10 -30)" fill="none"/>
    </clipPath>
    <clipPath id="clip-path-4">
      <path id="Path_420" data-name="Path 420" d="M0,0H20V-20H0Z" fill="none"/>
    </clipPath>
    <clipPath id="clip-path-6">
      <path id="Path_427" data-name="Path 427" d="M15.54-15l1.429,1.429L8.3-4.9,6.873-6.333l.012-.013L4-9.23l1.444-1.444L8.329-7.79Z" fill="none" clip-rule="evenodd"/>
    </clipPath>
    <clipPath id="clip-path-7">
      <rect id="Rectangle_26" data-name="Rectangle 26" width="24" height="22" transform="translate(-2 -21)" fill="none"/>
    </clipPath>
    <clipPath id="clip-path-8">
      <path id="Path_426" data-name="Path 426" d="M3-4H17V-16H3Z" fill="none"/>
    </clipPath>
  </defs>
  <g id="Group_326" data-name="Group 326" transform="translate(-213 -118)">
    <g id="Group_325" data-name="Group 325" transform="translate(213 138)">
      <g id="Group_321" data-name="Group 321" clip-path="url(#clip-path)">
        <g id="Group_320" data-name="Group 320" clip-path="url(#clip-path-2)">
          <g id="Group_317" data-name="Group 317" clip-path="url(#clip-path)">
            <g id="Group_316" data-name="Group 316" clip-path="url(#clip-path-4)">
              <path id="Path_419" data-name="Path 419" d="M0-16a4,4,0,0,1,4-4H16a4,4,0,0,1,4,4V-4a4,4,0,0,1-4,4H4A4,4,0,0,1,0-4Z" fill="#fff"/>
            </g>
          </g>
          <g id="Group_319" data-name="Group 319" clip-path="url(#clip-path-4)">
            <g id="Group_318" data-name="Group 318" transform="translate(0 -20)">
              <path id="Path_422" data-name="Path 422" d="M0,4A4,4,0,0,1,4,0H16a4,4,0,0,1,4,4V16a4,4,0,0,1-4,4H4a4,4,0,0,1-4-4Z" fill="none" stroke="silver" stroke-width="2"/>
            </g>
          </g>
        </g>
      </g>
      <g id="Group_324" data-name="Group 324" clip-path="url(#clip-path-6)">
        <g id="Group_323" data-name="Group 323" clip-path="url(#clip-path-7)">
          <g id="Group_322" data-name="Group 322" clip-path="url(#clip-path-8)">
            <path id="Path_425" data-name="Path 425" d="M-1-20H21.968V.1H-1Z" fill="#f33"/>
          </g>
        </g>
      </g>
    </g>
  </g>
</svg>
