<svg xmlns="http://www.w3.org/2000/svg" xmlns:xlink="http://www.w3.org/1999/xlink" width="20" height="20" viewBox="0 0 20 20"><defs><clipPath id="a"><path d="M10,0A10,10,0,0,0,20-10,10,10,0,0,0,10-20,10,10,0,0,0,0-10,10,10,0,0,0,10,0Z" fill="none" clip-rule="evenodd"/></clipPath><clipPath id="b"><path d="M17.264-12.073c-3.3,1.7-2.1,6.205-9.428,5.394A9.5,9.5,0,0,0,6.96-5c-.168-.022-.3-.04-.473-.067C8.015-10.56,10.374-13.3,17.264-12.073Z" fill="none"/></clipPath><clipPath id="c"><path d="M4-14c1.914,1.651-.387,3.543,3.224,5.727a11.874,11.874,0,0,1,.921-1.907C8.138-12.128,7-13.985,4-14Z" fill="none"/></clipPath></defs><g transform="translate(0 20)"><g clip-path="url(#a)"><path d="M-5-25H25V5H-5Z" fill="#68c36e"/></g><g clip-path="url(#b)"><path d="M1.487-17.364H22.264V0H1.487Z" fill="#fefefe"/></g><g clip-path="url(#c)"><path d="M-1-19H13.145V-3.273H-1Z" fill="#fefefe"/></g></g></svg>