<svg xmlns="http://www.w3.org/2000/svg" xmlns:xlink="http://www.w3.org/1999/xlink" width="100" height="100" viewBox="0 0 100 100">
  <defs>
    <clipPath id="clip-path">
      <path id="Path_63" data-name="Path 63" d="M24.481-70.768s20.194,4.186,20.191,13.329-27.795.206-27.795.206Z" fill="none" clip-rule="evenodd"/>
    </clipPath>
    <clipPath id="clip-path-2">
      <path id="Path_62" data-name="Path 62" d="M0,3H100V-97H0Z" fill="none"/>
    </clipPath>
    <clipPath id="clip-path-3">
      <path id="Path_66" data-name="Path 66" d="M24.4-70.5a49.923,49.923,0,0,1,11.818,4.032c2.686,1.332,5.618,3.066,7.194,5.712,1.477,2.478,1.379,5.369-1.535,6.5-4.889,1.9-11.615.11-16.489-1q-3.276-.743-6.505-1.683a12.927,12.927,0,0,1-1.587-.475c-.465-.2-.3.543.085-.135,2.487-4.336,4.9-8.718,7.347-13.076.18-.321-.3-.628-.484-.306q-3.8,6.767-7.6,13.535a.291.291,0,0,0,.156.426c7,2.241,15.161,4.587,22.559,3.827,2.861-.293,5.83-1.484,5.582-4.833-.338-4.574-5.25-7.472-8.922-9.226a51.085,51.085,0,0,0-11.443-3.849c-.358-.075-.532.47-.172.546" fill="none" clip-rule="evenodd"/>
    </clipPath>
    <clipPath id="clip-path-5">
      <path id="Path_69" data-name="Path 69" d="M27.769-29.32l-2.1-31.534a4.353,4.353,0,0,1,4.055-4.634l35.942-2.4A4.354,4.354,0,0,1,70.3-63.828l2.1,31.534a4.353,4.353,0,0,1-4.055,4.634L32.4-25.266a4.353,4.353,0,0,1-4.634-4.054" fill="none" clip-rule="evenodd"/>
    </clipPath>
    <clipPath id="clip-path-7">
      <path id="Path_72" data-name="Path 72" d="M28.888-29.281,26.209-59.324c-.249-2.793.518-5.358,4.652-5.857,1.871-.226,3.858-.186,5.747-.277l23.143-1.116c4.866-.235,9.9-.809,14.78-.713,4.9.1,5.321,3.254,5.583,6.184q.36,4.032.719,8.065.82,9.192,1.639,18.384c.241,2.7.83,6-3.463,6.94a31.284,31.284,0,0,1-4.987.308L49.037-26.2l-11.278.544c-3.764.181-8.014.648-8.882-3.7-.073-.364-.751-.235-.679.129,1.171,5.867,9.572,4.142,14.649,3.9l26.091-1.257c4.571-.221,13.647.733,14.443-4.459a20.152,20.152,0,0,0-.309-4.67q-.445-4.99-.889-9.979c-.518-5.8-.649-11.725-1.561-17.5-.849-5.382-6.686-4.631-11.547-4.4L43.185-66.345l-10.289.5c-2.1.1-4.186.1-5.821,1.37-2.164,1.675-1.666,3.992-1.473,6.17q.475,5.334.951,10.668.817,9.168,1.635,18.336c.032.364.731.393.7.024" fill="none" clip-rule="evenodd"/>
    </clipPath>
    <clipPath id="clip-path-9">
      <path id="Path_75" data-name="Path 75" d="M29.888-29.731l-1.81-26.885A5.581,5.581,0,0,1,33.3-62.544l31.622-2.087a4.924,4.924,0,0,1,5.25,4.564l1.855,27.555A5.581,5.581,0,0,1,66.8-26.583L35.857-24.542a5.6,5.6,0,0,1-5.97-5.189" fill="none" clip-rule="evenodd"/>
    </clipPath>
    <clipPath id="clip-path-11">
      <path id="Path_78" data-name="Path 78" d="M32.542-23.217,29.1-61.6l49.977-2.389c2.664-.127,4.981,1.529,5.175,3.7L87.007-29.57c.185,2.062-1.716,3.832-4.246,3.953Z" fill="none" clip-rule="evenodd"/>
    </clipPath>
    <clipPath id="clip-path-13">
      <path id="Path_81" data-name="Path 81" d="M32.9-23.2,29.936-56.719c-.112-1.262-.883-3.543-.422-4.768-.024.063-.608.242.241.145.957-.109,1.964-.1,2.93-.142l23.6-1.15L77.12-63.649c3.089-.15,5.7.7,6.269,3.665.413,2.168.394,4.452.587,6.636q.9,10.127,1.791,20.254c.226,2.556,1.246,6-2.761,7a28.106,28.106,0,0,1-5.254.391l-45.19,2.2c-.443.021-.467.594-.02.572l31.321-1.526,16.363-.8c3.587-.175,6.651-1.137,6.515-4.662-.364-9.41-1.668-18.865-2.5-28.262-.275-3.116-1.158-6.092-5.844-6.106-4.153-.012-8.37.408-12.512.61L29.168-61.885c-.172.009-.372.107-.358.274q1.7,19.191,3.394,38.382c.032.365.727.392.7.024" fill="none" clip-rule="evenodd"/>
    </clipPath>
    <clipPath id="clip-path-15">
      <path id="Path_84" data-name="Path 84" d="M72.3-49.447q2.642-.211,5.287-.423c2.259-.181,6.084-1.212,6.55-3.273.48-2.125-3.377-2.394-5.12-2.254L42.406-52.466l-5.287.423c-2.259.181-6.084,1.211-6.55,3.272-.48,2.126,3.377,2.394,5.12,2.255Q54-47.983,72.3-49.447Z" fill="none" clip-rule="evenodd"/>
    </clipPath>
    <clipPath id="clip-path-17">
      <path id="Path_87" data-name="Path 87" d="M72.789-39.637l2.467-.183c1.054-.078,2.839-.525,3.057-1.418.224-.921-1.576-1.037-2.389-.977l-17.086,1.27-2.467.183c-1.054.078-2.839.525-3.057,1.418-.224.921,1.576,1.037,2.389.977Z" fill="none" clip-rule="evenodd"/>
    </clipPath>
    <clipPath id="clip-path-19">
      <path id="Path_90" data-name="Path 90" d="M88.483-30a7.809,7.809,0,0,1-7.271,8.31,7.809,7.809,0,0,1-8.31-7.271,7.808,7.808,0,0,1,7.271-8.31A7.808,7.808,0,0,1,88.483-30" fill="none" clip-rule="evenodd"/>
    </clipPath>
    <clipPath id="clip-path-21">
      <path id="Path_93" data-name="Path 93" d="M87.691-29.82a7.349,7.349,0,0,1-4.218,7.135A6.989,6.989,0,0,1,75.5-24.694a7.593,7.593,0,0,1-1.032-8.271,6.806,6.806,0,0,1,7.1-3.766,7.526,7.526,0,0,1,6.118,6.911c.047.58,1.636.276,1.584-.365a8.252,8.252,0,0,0-6.185-7.309,9.092,9.092,0,0,0-9.391,3.28,8.176,8.176,0,0,0-.051,9.626A8.656,8.656,0,0,0,82.9-21.526a8.543,8.543,0,0,0,6.378-8.66c-.03-.572-1.618-.28-1.584.365" fill="none" clip-rule="evenodd"/>
    </clipPath>
    <clipPath id="clip-path-23">
      <path id="Path_96" data-name="Path 96" d="M83.446-32.923,80.03-28.348l-2.774-1.714-.688,1.747L80.312-26.2l4.44-5.444Z" fill="none" clip-rule="evenodd"/>
    </clipPath>
    <clipPath id="clip-path-25">
      <path id="Path_99" data-name="Path 99" d="M82.709-33l-3.417,4.575,1.368-.316-2.774-1.715a1.077,1.077,0,0,0-1.422.444l-.689,1.748c-.048.122.064.28.162.335l3.745,2.113a1.152,1.152,0,0,0,1.368-.316l3.884-4.762c.185-.228.371-.456.556-.681a.316.316,0,0,0,0-.372l-1.306-1.279a1,1,0,0,0-1.049-.1c-.2.081-.7.426-.422.693l1.306,1.278c0-.125,0-.248,0-.372l-3.883,4.761-.556.682,1.368-.316L77.2-28.7l.162.334.689-1.747-1.422.444L79.4-27.958a1.137,1.137,0,0,0,1.368-.317l3.417-4.575c.23-.308-.169-.534-.428-.562A1.18,1.18,0,0,0,82.709-33" fill="none" clip-rule="evenodd"/>
    </clipPath>
    <clipPath id="clip-path-27">
      <path id="Path_104" data-name="Path 104" d="M44.432-34.45A8.812,8.812,0,0,0,39.2-37.307h0a7.646,7.646,0,0,0-7.26,3.712h0a8.531,8.531,0,0,0-1.2,5.753h0l15.57-1.234a8.02,8.02,0,0,0-1.883-5.374Z" fill="none" clip-rule="evenodd"/>
    </clipPath>
    <clipPath id="clip-path-29">
      <rect id="Rectangle_6" data-name="Rectangle 6" width="20" height="14" transform="translate(28 -40)" fill="none"/>
    </clipPath>
    <clipPath id="clip-path-30">
      <path id="Path_102" data-name="Path 102" d="M46.91-39.185l.763,11.448L29.57-26.53l-.763-11.449Z" fill="none" clip-rule="evenodd"/>
    </clipPath>
    <clipPath id="clip-path-31">
      <path id="Path_101" data-name="Path 101" d="M30-27H47V-38H30Z" fill="none"/>
    </clipPath>
    <clipPath id="clip-path-32">
      <path id="Path_109" data-name="Path 109" d="M45.921-32.217a8.787,8.787,0,0,0-1.144-2.04h0a8.238,8.238,0,0,0-1.926-1.81h0a9.3,9.3,0,0,0-2.383-1.166h0a7.183,7.183,0,0,0-1.489-.306h0a7.1,7.1,0,0,0-4.055.816h0l-.007-.008a8.616,8.616,0,0,0-3.09,2.813h0a8.243,8.243,0,0,0-1.357,5.251h0A2.866,2.866,0,0,0,30.6-28h0c.048.141.094.2.13.152h0a.752.752,0,0,0,.059-.122h0a.92.92,0,0,0,.065-.379h0c0-.181-.013-.436-.011-.823h0c0-.1,0-.208,0-.311h0c0-.1,0-.205.013-.309h0a8.1,8.1,0,0,1,.665-2.755h0a8.182,8.182,0,0,1,2.26-2.938h0A7.865,7.865,0,0,1,35.9-36.731h0a6.748,6.748,0,0,1,1.939-.441h0A6.44,6.44,0,0,1,39.816-37h0a8.431,8.431,0,0,1,3.244,1.56h0a7.931,7.931,0,0,1,2.88,4.912h0a7.448,7.448,0,0,0,.3,1.247h0c.1.256.2.306.219-.006h0c0-.022,0-.043,0-.064h0a7.171,7.171,0,0,0-.543-2.863Z" fill="none" clip-rule="evenodd"/>
    </clipPath>
    <clipPath id="clip-path-35">
      <path id="Path_107" data-name="Path 107" d="M47.057-39.411l.777,11.667-18.457,1.23L28.6-38.181Z" fill="none" clip-rule="evenodd"/>
    </clipPath>
    <clipPath id="clip-path-37">
      <path id="Path_114" data-name="Path 114" d="M45.471-31.417a8.527,8.527,0,0,0-6.437-4.351h0a6.8,6.8,0,0,0-4.449,1.048h0a8.533,8.533,0,0,0-3.375,4.263h0c-1.058,2.886-.621,6.7,1.763,8.838h0A7.649,7.649,0,0,0,38.613-20h0a8.359,8.359,0,0,0,6.459-3.735h0a7.545,7.545,0,0,0,1.259-3.927h0a7.386,7.386,0,0,0-.86-3.751Z" fill="none" clip-rule="evenodd"/>
    </clipPath>
    <clipPath id="clip-path-39">
      <rect id="Rectangle_8" data-name="Rectangle 8" width="21" height="20" transform="translate(28 -38)" fill="none"/>
    </clipPath>
    <clipPath id="clip-path-40">
      <path id="Path_112" data-name="Path 112" d="M48.2-19.459,29.968-18.244,28.76-36.376l18.232-1.216Z" fill="none" clip-rule="evenodd"/>
    </clipPath>
    <clipPath id="clip-path-41">
      <path id="Path_111" data-name="Path 111" d="M30-19H47V-36H30Z" fill="none"/>
    </clipPath>
    <clipPath id="clip-path-42">
      <path id="Path_119" data-name="Path 119" d="M46.2-30.192a7.652,7.652,0,0,0-.542-1.349h0a8.709,8.709,0,0,0-.789-1.219h0a8.467,8.467,0,0,0-.987-1.062h0l-.133-.124-.14-.116c-.094-.076-.186-.154-.282-.229h0c-.2-.141-.387-.291-.595-.416h0a8.742,8.742,0,0,0-2.659-1.153h0c-.238-.048-.474-.11-.716-.138h0a6.328,6.328,0,0,0-.728-.077h0A6.887,6.887,0,0,0,37.168-36h0a5.085,5.085,0,0,0-1.416.452h0a4.029,4.029,0,0,0-.866.562h0c-.372.336-.372.457.117.184h0a7.228,7.228,0,0,1,2.559-.807h0a7.109,7.109,0,0,1,2.68.232h0a8.306,8.306,0,0,1,3.641,2.1h0a8.194,8.194,0,0,1,1.426,1.9h0a7.2,7.2,0,0,1,.747,2.241h0a7.315,7.315,0,0,1-.01,2.359h0a7.845,7.845,0,0,1-.281,1.149h0a7.66,7.66,0,0,1-.468,1.084h0a8.088,8.088,0,0,1-1.627,2.129h0A8.081,8.081,0,0,1,40.5-20.583h0a8.069,8.069,0,0,1-1.813.331h0a9.658,9.658,0,0,1-1.85-.039h0l0-.01a7.653,7.653,0,0,1-1.8-.418h0a5.88,5.88,0,0,1-1.6-.873h0c-.061-.046-.117-.1-.175-.145h0a1.672,1.672,0,0,1-.168-.152h0l-.324-.322a6.718,6.718,0,0,1-.561-.72h0a6.748,6.748,0,0,1-.81-1.637h0a8.925,8.925,0,0,1-.213-4.87h0a8.707,8.707,0,0,1,2.3-4.169h0c.757-.749,1.267-1.083,1.094-1.086h0a1.532,1.532,0,0,0-.217.056h0a1.245,1.245,0,0,0-.272.111h0a2.645,2.645,0,0,0-.365.23h0a6.548,6.548,0,0,0-1.158,1.121h0a8.173,8.173,0,0,0-.7.99h0a9.3,9.3,0,0,0-1.311,5.263h0a10.179,10.179,0,0,0,.25,1.768h0a8.757,8.757,0,0,0,.617,1.688h0a7.357,7.357,0,0,0,1.015,1.494h0c.1.11.214.214.32.322h0a3.9,3.9,0,0,0,.338.305h0c.116.1.242.184.364.274h0c.129.08.251.171.386.242h0a6.385,6.385,0,0,0,1.088.5h0a7.689,7.689,0,0,0,1.154.319h0a9.817,9.817,0,0,0,2.38.164h0A8.641,8.641,0,0,0,42.2-20.869h0a8.632,8.632,0,0,0,2.89-2.567h0a7.658,7.658,0,0,0,.862-1.554h0a7.978,7.978,0,0,0,.476-1.714h0a7.644,7.644,0,0,0,.1-.973h0a8.059,8.059,0,0,0-.315-2.515Z" fill="none" clip-rule="evenodd"/>
    </clipPath>
    <clipPath id="clip-path-45">
      <path id="Path_117" data-name="Path 117" d="M47.111-37.924l1.244,18.656L29.914-18.039,28.67-36.7Z" fill="none" clip-rule="evenodd"/>
    </clipPath>
    <clipPath id="clip-path-46">
      <path id="Path_116" data-name="Path 116" d="M30-19H47V-37H30Z" fill="none"/>
    </clipPath>
    <clipPath id="clip-path-47">
      <path id="Path_122" data-name="Path 122" d="M38.672-32.4l.076,1.139a3.9,3.9,0,0,1,1.75.432l-.607,1.4a1.968,1.968,0,0,0-1.217-.383.971.971,0,0,0-.573.2.467.467,0,0,0-.2.388.5.5,0,0,0,.2.345,1.311,1.311,0,0,0,.489.242l.568.151a3.159,3.159,0,0,1,1.4.7,1.757,1.757,0,0,1,.495,1.182,2.831,2.831,0,0,1-.051.807,1.671,1.671,0,0,1-.3.644,2.177,2.177,0,0,1-.585.521,5.156,5.156,0,0,1-.9.439l.078,1.167-.866.057-.074-1.12a3,3,0,0,1-.626-.029,4.942,4.942,0,0,1-.662-.145,4.138,4.138,0,0,1-.616-.234,2.251,2.251,0,0,1-.478-.294l.668-1.472a2.649,2.649,0,0,0,1.774.666,1,1,0,0,0,.595-.228.582.582,0,0,0,.226-.507q-.027-.414-.652-.571l-.549-.133a4.954,4.954,0,0,1-.841-.275,2.027,2.027,0,0,1-.583-.378,1.515,1.515,0,0,1-.356-.51,2.079,2.079,0,0,1-.149-.676,2.589,2.589,0,0,1,.066-.789,2.014,2.014,0,0,1,.313-.7,2.076,2.076,0,0,1,.565-.539,2.112,2.112,0,0,1,.83-.305l-.075-1.139Z" fill="none" clip-rule="evenodd"/>
    </clipPath>
    <clipPath id="clip-path-49">
      <path id="Path_125" data-name="Path 125" d="M38.49-32.361q.038.57.076,1.139c0,.067.06.081.118.084a3.933,3.933,0,0,1,1.675.418l-.034-.1q-.3.7-.606,1.4l.3-.1c-.592-.379-1.763-.705-2.227.073-.4.673.693.935,1.138,1.054.853.227,1.712.6,1.9,1.555a2.164,2.164,0,0,1-.281,1.669,3,3,0,0,1-1.373.888c-.044.018-.148.065-.144.13l.078,1.167.236-.146-.866.058.118.083q-.037-.56-.075-1.12c0-.062-.06-.086-.118-.084a3.909,3.909,0,0,1-1.733-.349,2.9,2.9,0,0,1-.361-.187c-.055-.088-.114-.107-.18-.056l.01-.021c0-.054.072-.158.094-.206l.563-1.242-.328.085c.68.511,1.72,1.015,2.535.488a.734.734,0,0,0,.372-.821c-.1-.313-.448-.436-.735-.51-.819-.21-1.846-.362-2.222-1.237a2.047,2.047,0,0,1,1.436-2.836c.058-.011.2-.062.192-.142q-.038-.57-.076-1.139l-.236.146.866-.057c.146-.01.358-.246.119-.231l-.866.058c-.063,0-.243.049-.237.146q.039.569.076,1.139l.192-.142a2.3,2.3,0,0,0-1.874,1.589,2.033,2.033,0,0,0,.849,2.422,4.544,4.544,0,0,0,1.13.4,3.077,3.077,0,0,1,.777.228.487.487,0,0,1,.271.545c-.076.335-.443.437-.742.428a2.718,2.718,0,0,1-1.505-.638.249.249,0,0,0-.328.085L35.8-24.779a.07.07,0,0,0,.008.082,3.9,3.9,0,0,0,2.483.733l-.118-.084.074,1.12c0,.061.06.088.118.084l.866-.057c.063,0,.243-.049.236-.146l-.078-1.167-.144.129a2.888,2.888,0,0,0,1.871-1.535,2.214,2.214,0,0,0-.488-2.314,4.337,4.337,0,0,0-1.8-.761c-.314-.084-1.036-.365-.667-.8.389-.46,1.2-.069,1.585.178a.259.259,0,0,0,.3-.1l.606-1.4a.069.069,0,0,0-.034-.1,4.279,4.279,0,0,0-1.825-.446l.118.084q-.039-.57-.076-1.139c-.011-.161-.364-.068-.355.063" fill="none" clip-rule="evenodd"/>
    </clipPath>
    <clipPath id="clip-path-51">
      <path id="Path_128" data-name="Path 128" d="M14.712-77.142,25.5-71.878,20.95-54.143,9.315-56.192" fill="none" clip-rule="evenodd"/>
    </clipPath>
    <clipPath id="clip-path-53">
      <path id="Path_133" data-name="Path 133" d="M26.018-76.575,25.207-53.34l-14.2-.5.811-23.235Z" fill="none" clip-rule="evenodd"/>
    </clipPath>
    <clipPath id="clip-path-55">
      <rect id="Rectangle_10" data-name="Rectangle 10" width="16" height="25" transform="translate(10 -78)" fill="none"/>
    </clipPath>
    <clipPath id="clip-path-56">
      <path id="Path_131" data-name="Path 131" d="M16.01-76.4c2.94,1.619,5.854,3.32,8.826,4.861.1.054.53.205.593.327.032.062-.169-.525-.123-.112a7.3,7.3,0,0,1-.41,1.785L23.38-62.956l-1.555,6.762a14.7,14.7,0,0,1-.463,2.014c-.242.61.5.021-.132.088-1.664.175-3.829-.749-5.471-1.07L11.4-56.014c-.314-.061-.469.483-.152.545l10.2,1.994a.254.254,0,0,0,.315-.188q2.035-8.848,4.069-17.7a.309.309,0,0,0-.1-.326l-9.446-5.2c-.287-.158-.56.324-.271.484" fill="none" clip-rule="evenodd"/>
    </clipPath>
    <clipPath id="clip-path-57">
      <path id="Path_130" data-name="Path 130" d="M11-53H27V-78H11Z" fill="none"/>
    </clipPath>
    <clipPath id="clip-path-58">
      <path id="Path_136" data-name="Path 136" d="M24.156-56.465l1.765.789c1.671.358,3.027,1.032,4.158.657A7.335,7.335,0,0,0,33.9-58.725s3.373,4.218,5.683,2.444S29.269-67.045,29.269-67.045" fill="none" clip-rule="evenodd"/>
    </clipPath>
    <clipPath id="clip-path-60">
      <path id="Path_139" data-name="Path 139" d="M26.77-54.88c3.056,1.31,7.226,1.432,9.49-1.539.356-.467.73-.531.174-.626.324.055,1.276,1.253,1.517,1.444,1.011.8,3.266,2.15,4.494.878C44.9-57.272,33.87-64.292,32.1-65.5c-.3-.209-.609.276-.305.484a78.769,78.769,0,0,1,6.6,4.992c1.073.912,2.91,2.2,3.481,3.539,1,2.342-2.535,1.207-3.568.42a9.953,9.953,0,0,1-1.506-1.43.289.289,0,0,0-.452.042c-2.1,3.247-6.189,3.4-9.409,2.026-.339-.145-.507.4-.171.546" fill="none" clip-rule="evenodd"/>
    </clipPath>
    <clipPath id="clip-path-62">
      <path id="Path_142" data-name="Path 142" d="M29.812-63.515c-1.4,4.745-4.02,6.45-5.738,4.413s.692-7.78,1.194-8.083a3.124,3.124,0,0,1,4.544,3.67" fill="none" clip-rule="evenodd"/>
    </clipPath>
    <clipPath id="clip-path-64">
      <path id="Path_145" data-name="Path 145" d="M23.307-65.923l.992-4.061A2.848,2.848,0,0,0,23.274-72.8l-7.152-3.291c-.347-.16.71.875.363.716-.824-.38-1.49.278-1.64,1.273q-.442,2.9-.882,5.8c0,.026,0,.054-.007.081a2.445,2.445,0,0,0-.028.47c0,.036.007.073.01.109a2.544,2.544,0,0,0,1.049,2.153,1.115,1.115,0,0,0,.163.056,1.265,1.265,0,0,0,.19.074c2.352.59,3.3-.015,5.653.575l1.027.257c.741.186,1.124-.736,1.287-1.4" fill="none" clip-rule="evenodd"/>
    </clipPath>
  </defs>
  <g id="Group_108" data-name="Group 108" transform="translate(-170 -91)">
    <g id="Group_107" data-name="Group 107" transform="translate(170.685 189.142)">
      <g id="Group_43" data-name="Group 43" clip-path="url(#clip-path)">
        <g id="Group_42" data-name="Group 42" clip-path="url(#clip-path-2)">
          <path id="Path_61" data-name="Path 61" d="M50.286-74.87l-.943,26.99L11.594-49.2l.943-26.99Z" fill="#fff"/>
        </g>
      </g>
      <g id="Group_45" data-name="Group 45" clip-path="url(#clip-path-3)">
        <g id="Group_44" data-name="Group 44" clip-path="url(#clip-path-2)">
          <path id="Path_64" data-name="Path 64" d="M50.567-75.149,49.6-47.5,11.3-48.841l.965-27.645Z" fill="#221f1f"/>
        </g>
      </g>
      <g id="Group_47" data-name="Group 47" clip-path="url(#clip-path-5)">
        <g id="Group_46" data-name="Group 46" clip-path="url(#clip-path-2)">
          <path id="Path_67" data-name="Path 67" d="M78.827-72.449,76.949-18.684,19.239-20.7l1.878-53.765Z" fill="#fff"/>
        </g>
      </g>
      <g id="Group_49" data-name="Group 49" clip-path="url(#clip-path-7)">
        <g id="Group_48" data-name="Group 48" clip-path="url(#clip-path-2)">
          <path id="Path_70" data-name="Path 70" d="M89.863-72.2l-1.89,54.132L19-20.481l1.89-54.132Z" fill="#221f1f"/>
        </g>
      </g>
      <g id="Group_51" data-name="Group 51" clip-path="url(#clip-path-9)">
        <g id="Group_50" data-name="Group 50" clip-path="url(#clip-path-2)">
          <path id="Path_73" data-name="Path 73" d="M78.339-69.191l-1.785,51.1L21.767-20l1.785-51.1Z" fill="#ccccca"/>
        </g>
      </g>
      <g id="Group_53" data-name="Group 53" clip-path="url(#clip-path-11)">
        <g id="Group_52" data-name="Group 52" clip-path="url(#clip-path-2)">
          <path id="Path_76" data-name="Path 76" d="M93.394-68.513l-1.828,52.36L22.59-18.562l1.828-52.36Z" fill="#fff"/>
        </g>
      </g>
      <g id="Group_55" data-name="Group 55" clip-path="url(#clip-path-13)">
        <g id="Group_54" data-name="Group 54" clip-path="url(#clip-path-2)">
          <path id="Path_79" data-name="Path 79" d="M93.115-68.777l-1.847,52.9L22.293-18.284l1.847-52.9Z" fill="#221f1f"/>
        </g>
      </g>
      <g id="Group_57" data-name="Group 57" clip-path="url(#clip-path-15)">
        <g id="Group_56" data-name="Group 56" clip-path="url(#clip-path-2)">
          <path id="Path_82" data-name="Path 82" d="M25.528-60.428H89.18v18.942H25.528Z" fill="#ccccca"/>
        </g>
      </g>
      <g id="Group_59" data-name="Group 59" clip-path="url(#clip-path-17)">
        <g id="Group_58" data-name="Group 58" clip-path="url(#clip-path-2)">
          <path id="Path_85" data-name="Path 85" d="M48.295-47.228H83.332v13.875H48.295Z" fill="#ccccca"/>
        </g>
      </g>
      <g id="Group_61" data-name="Group 61" clip-path="url(#clip-path-19)">
        <g id="Group_60" data-name="Group 60" clip-path="url(#clip-path-2)">
          <path id="Path_88" data-name="Path 88" d="M68.339-42.73l25.6.894-.894,25.6-25.6-.894Z" fill="#221f1f"/>
        </g>
      </g>
      <g id="Group_63" data-name="Group 63" clip-path="url(#clip-path-21)">
        <g id="Group_62" data-name="Group 62" clip-path="url(#clip-path-2)">
          <path id="Path_91" data-name="Path 91" d="M67.584-43.235l27.15.948-.927,26.554-27.15-.948Z" fill="#221f1f"/>
        </g>
      </g>
      <g id="Group_65" data-name="Group 65" clip-path="url(#clip-path-23)">
        <g id="Group_64" data-name="Group 64" clip-path="url(#clip-path-2)">
          <path id="Path_94" data-name="Path 94" d="M71.914-38.329l18.053.63L89.38-20.881l-18.053-.63Z" fill="#fff"/>
        </g>
      </g>
      <g id="Group_67" data-name="Group 67" clip-path="url(#clip-path-25)">
        <g id="Group_66" data-name="Group 66" clip-path="url(#clip-path-2)">
          <path id="Path_97" data-name="Path 97" d="M71.133-38.86l19.644.686-.623,17.828L70.51-21.032Z" fill="#fff"/>
        </g>
      </g>
      <g id="Group_72" data-name="Group 72" clip-path="url(#clip-path-27)">
        <g id="Group_71" data-name="Group 71" clip-path="url(#clip-path-2)">
          <g id="Group_70" data-name="Group 70" clip-path="url(#clip-path-29)">
            <g id="Group_69" data-name="Group 69" clip-path="url(#clip-path-30)">
              <g id="Group_68" data-name="Group 68" clip-path="url(#clip-path-31)">
                <path id="Path_100" data-name="Path 100" d="M53.243-43.967l-.812,23.238-29.195-1.02.811-23.238Z" fill="#666"/>
              </g>
            </g>
          </g>
        </g>
      </g>
      <g id="Group_77" data-name="Group 77" clip-path="url(#clip-path-32)">
        <g id="Group_76" data-name="Group 76" clip-path="url(#clip-path-2)">
          <g id="Group_75" data-name="Group 75" clip-path="url(#clip-path-29)">
            <g id="Group_74" data-name="Group 74" clip-path="url(#clip-path-35)">
              <g id="Group_73" data-name="Group 73" clip-path="url(#clip-path-31)">
                <path id="Path_105" data-name="Path 105" d="M53.411-44.192,52.591-20.7,23.022-21.732l.82-23.492Z" fill="#221f1f"/>
              </g>
            </g>
          </g>
        </g>
      </g>
      <g id="Group_82" data-name="Group 82" clip-path="url(#clip-path-37)">
        <g id="Group_81" data-name="Group 81" clip-path="url(#clip-path-2)">
          <g id="Group_80" data-name="Group 80" clip-path="url(#clip-path-39)">
            <g id="Group_79" data-name="Group 79" clip-path="url(#clip-path-40)">
              <g id="Group_78" data-name="Group 78" clip-path="url(#clip-path-41)">
                <path id="Path_110" data-name="Path 110" d="M52.958-12.438l-30-1.048L24-43.4,54-42.35Z" fill="#ff533b"/>
              </g>
            </g>
          </g>
        </g>
      </g>
      <g id="Group_87" data-name="Group 87" clip-path="url(#clip-path-42)">
        <g id="Group_86" data-name="Group 86" clip-path="url(#clip-path-2)">
          <g id="Group_85" data-name="Group 85" clip-path="url(#clip-path-39)">
            <g id="Group_84" data-name="Group 84" clip-path="url(#clip-path-45)">
              <g id="Group_83" data-name="Group 83" clip-path="url(#clip-path-46)">
                <path id="Path_115" data-name="Path 115" d="M54.176-42.681,53.112-12.226,22.849-13.283l1.063-30.455Z" fill="#221f1f"/>
              </g>
            </g>
          </g>
        </g>
      </g>
      <g id="Group_89" data-name="Group 89" clip-path="url(#clip-path-47)">
        <g id="Group_88" data-name="Group 88" clip-path="url(#clip-path-2)">
          <path id="Path_120" data-name="Path 120" d="M31.4-37.654l15.045.525L45.764-17.7l-15.045-.525Z" fill="#fff"/>
        </g>
      </g>
      <g id="Group_91" data-name="Group 91" clip-path="url(#clip-path-49)">
        <g id="Group_90" data-name="Group 90" clip-path="url(#clip-path-2)">
          <path id="Path_123" data-name="Path 123" d="M31.218-37.774l15.412.538-.687,19.661-15.412-.538Z" fill="#fff"/>
        </g>
      </g>
      <g id="Group_93" data-name="Group 93" clip-path="url(#clip-path-51)">
        <g id="Group_92" data-name="Group 92" clip-path="url(#clip-path-2)">
          <path id="Path_126" data-name="Path 126" d="M30.845-81.582,29.7-48.834,4.086-49.728,5.23-82.477Z" fill="#fff"/>
        </g>
      </g>
      <g id="Group_98" data-name="Group 98" clip-path="url(#clip-path-53)">
        <g id="Group_97" data-name="Group 97" clip-path="url(#clip-path-2)">
          <g id="Group_96" data-name="Group 96" clip-path="url(#clip-path-55)">
            <g id="Group_95" data-name="Group 95" clip-path="url(#clip-path-56)">
              <g id="Group_94" data-name="Group 94" clip-path="url(#clip-path-57)">
                <path id="Path_129" data-name="Path 129" d="M31.189-81.4l-1.16,33.229L5.836-49.013,7-82.242Z" fill="#221f1f"/>
              </g>
            </g>
          </g>
        </g>
      </g>
      <g id="Group_100" data-name="Group 100" clip-path="url(#clip-path-58)">
        <g id="Group_99" data-name="Group 99" clip-path="url(#clip-path-2)">
          <path id="Path_134" data-name="Path 134" d="M45.377-71.486,44.6-49.371l-25.668-.9.772-22.115Z" fill="#fff"/>
        </g>
      </g>
      <g id="Group_102" data-name="Group 102" clip-path="url(#clip-path-60)">
        <g id="Group_101" data-name="Group 101" clip-path="url(#clip-path-2)">
          <path id="Path_137" data-name="Path 137" d="M48.306-69.982,47.553-48.41,21.38-49.324,22.133-70.9Z" fill="#221f1f"/>
        </g>
      </g>
      <g id="Group_104" data-name="Group 104" clip-path="url(#clip-path-62)">
        <g id="Group_103" data-name="Group 103" clip-path="url(#clip-path-2)">
          <path id="Path_140" data-name="Path 140" d="M35.251-72.3l-.676,19.355-16.387-.572.676-19.355Z" fill="#fff"/>
        </g>
      </g>
      <g id="Group_106" data-name="Group 106" clip-path="url(#clip-path-64)">
        <g id="Group_105" data-name="Group 105" clip-path="url(#clip-path-2)">
          <path id="Path_143" data-name="Path 143" d="M29.713-80.631l-.746,21.374-20.321-.71.746-21.374Z" fill="#ccccca"/>
        </g>
      </g>
    </g>
    <rect id="Rectangle_11" data-name="Rectangle 11" width="100" height="100" transform="translate(170 91)" fill="#fff" opacity="0"/>
  </g>
</svg>
