<svg xmlns="http://www.w3.org/2000/svg" xmlns:xlink="http://www.w3.org/1999/xlink" width="63.461" height="76.204" viewBox="0 0 63.461 76.204"><defs><clipPath id="a"><path d="M7.05-16.855S10.94-39.587,21.159-39.941,22.474-8.885,22.474-8.885Z" fill="none" clip-rule="evenodd"/></clipPath><clipPath id="b"><path d="M7.358-16.77A55.83,55.83,0,0,1,11.4-30.135c1.384-3.054,3.208-6.4,6.1-8.264,2.712-1.748,5.946-1.75,7.326,1.462,2.315,5.389.576,12.977-.469,18.468q-.7,3.69-1.628,7.336a14.459,14.459,0,0,1-.469,1.792c-.21.528.619.317-.154-.09-4.943-2.611-9.935-5.134-14.9-7.7-.365-.189-.69.364-.323.553l15.423,7.97a.325.325,0,0,0,.47-.191c2.231-7.909,4.534-17.123,3.4-25.362-.44-3.186-1.886-6.458-5.619-6.051-5.1.557-8.147,6.159-9.964,10.332A57.128,57.128,0,0,0,6.741-16.94c-.07.4.547.577.617.171" fill="none" clip-rule="evenodd"/></clipPath><clipPath id="c"><path d="M53.246-22.147l-35.162,3.58a4.868,4.868,0,0,1-5.337-4.351L8.667-62.994a4.869,4.869,0,0,1,4.351-5.337l35.162-3.58a4.868,4.868,0,0,1,5.337,4.351L57.6-27.484a4.868,4.868,0,0,1-4.35,5.337" fill="none" clip-rule="evenodd"/></clipPath><clipPath id="d"><path d="M53.246-22.467,19.773-19.059c-3.112.317-6.008-.3-6.727-4.066-.325-1.7-.358-3.521-.534-5.245l-2.15-21.122c-.452-4.441-1.291-9.021-1.373-13.489-.083-4.484,3.429-4.968,6.693-5.3l8.986-.915L45.15-71.282c3.009-.307,6.669-.95,7.891,2.944a23.588,23.588,0,0,1,.539,4.549q1.162,11.4,2.322,22.8L56.95-30.693c.349,3.435,1.037,7.306-3.789,8.238-.4.078-.233.694.17.616,6.511-1.258,4.256-8.883,3.784-13.517Q55.9-47.261,54.691-59.168c-.425-4.172.287-12.5-5.548-13.062a27.384,27.384,0,0,0-5.208.431L32.818-70.667c-6.464.659-13.078.968-19.5,1.985-5.981.948-4.915,6.26-4.463,10.7l2.406,23.63q.478,4.7.956,9.391c.195,1.916.28,3.823,1.759,5.277,1.956,1.924,4.527,1.4,6.953,1.149l11.886-1.21,20.429-2.08c.406-.041.41-.681,0-.64" fill="none" clip-rule="evenodd"/></clipPath><clipPath id="e"><path d="M51.7-23.465,21.527-20.393A6.271,6.271,0,0,1,14.653-26l-3.59-35.26A5.516,5.516,0,0,1,15.992-67.3l30.927-3.148a6.272,6.272,0,0,1,6.874,5.6l3.512,34.508a6.271,6.271,0,0,1-5.6,6.874" fill="none" clip-rule="evenodd"/></clipPath><clipPath id="f"><path d="M59.88-26.724,17.116-22.37,12.5-67.754a4.4,4.4,0,0,1,3.933-4.825l34.225-3.485a4.182,4.182,0,0,1,4.584,3.737Z" fill="none" clip-rule="evenodd"/></clipPath><clipPath id="g"><path d="M59.88-27.044l-37.341,3.8c-1.406.143-3.925.925-5.313.541.072.02.294.551.152-.226-.159-.877-.183-1.8-.273-2.69L14.9-47.286q-.973-9.564-1.948-19.129c-.289-2.836.564-5.268,3.852-5.883,2.406-.449,4.96-.5,7.394-.753l22.566-2.3c2.847-.29,6.659-1.339,7.93,2.314a21.487,21.487,0,0,1,.642,4.819Q57.449-47.47,59.56-26.724c.041.406.682.41.64,0Q58.737-41.1,57.272-55.48q-.765-7.512-1.53-15.023c-.335-3.293-1.53-6.08-5.464-5.842-10.5.637-21.02,2.14-31.489,3.206-3.471.353-6.763,1.261-6.6,5.571.148,3.82.783,7.685,1.17,11.487Q15.079-39.226,16.8-22.37c.017.158.134.339.32.32L59.88-26.4c.406-.041.41-.681,0-.64" fill="none" clip-rule="evenodd"/></clipPath><clipPath id="h"><path d="M24.076-59.454,41.6-61.238l2.53-.257c1.081-.11,2.911-.737,3.134-1.992.23-1.292-1.615-1.456-2.45-1.371L27.29-63.074l-2.53.257c-1.081.11-2.911.736-3.134,1.991-.23,1.293,1.616,1.457,2.45,1.372" fill="none" clip-rule="evenodd"/></clipPath><clipPath id="i"><path d="M24.939-50.971l17.519-1.784,2.53-.257c1.081-.11,2.911-.737,3.134-1.992.23-1.292-1.616-1.456-2.45-1.371L28.154-54.591l-2.53.257c-1.081.111-2.911.737-3.134,1.992-.23,1.293,1.615,1.457,2.45,1.372" fill="none" clip-rule="evenodd"/></clipPath><clipPath id="j"><path d="M25.8-42.488l17.519-1.784,2.53-.257c1.081-.11,2.911-.737,3.134-1.992.23-1.293-1.615-1.456-2.45-1.372L29.017-46.108l-2.53.257c-1.081.11-2.911.737-3.134,1.991-.23,1.293,1.616,1.457,2.45,1.372" fill="none" clip-rule="evenodd"/></clipPath><clipPath id="k"><path d="M26.667-34l17.519-1.784,2.53-.257c1.081-.11,2.911-.737,3.134-1.992.23-1.293-1.616-1.457-2.45-1.372L29.881-37.625l-2.53.257c-1.081.11-2.911.737-3.134,1.991-.23,1.293,1.616,1.457,2.45,1.372" fill="none" clip-rule="evenodd"/></clipPath><clipPath id="l"><path d="M27.1-64.764a4.611,4.611,0,0,1-4.12,5.053,4.611,4.611,0,0,1-5.053-4.12,4.611,4.611,0,0,1,4.12-5.053,4.61,4.61,0,0,1,5.053,4.12" fill="none" clip-rule="evenodd"/></clipPath><clipPath id="m"><path d="M26.638-64.64a4.339,4.339,0,0,1-2.342,4.3,4.127,4.127,0,0,1-4.746-1.021,4.484,4.484,0,0,1-.78-4.86,4.019,4.019,0,0,1,4.114-2.369,4.444,4.444,0,0,1,3.753,3.952c.04.341.971.129.927-.248a4.873,4.873,0,0,0-3.8-4.186,5.369,5.369,0,0,0-5.474,2.129,4.828,4.828,0,0,0,.168,5.681,5.111,5.111,0,0,0,5.521,1.617,5.045,5.045,0,0,0,3.585-5.242c-.029-.337-.961-.132-.927.248" fill="none" clip-rule="evenodd"/></clipPath><clipPath id="n"><path d="M24.069-66.384l-1.922,2.77-1.672-.954-.37,1.045,2.253,1.171,2.508-3.3Z" fill="none" clip-rule="evenodd"/></clipPath><clipPath id="o"><path d="M23.633-66.412l-1.922,2.77.8-.214-1.672-.955a.636.636,0,0,0-.83.291l-.371,1.046c-.026.073.044.164.1.195l2.253,1.17a.68.68,0,0,0,.8-.214l2.194-2.89c.1-.138.209-.276.314-.413a.186.186,0,0,0-.009-.22l-.8-.728a.589.589,0,0,0-.621-.035c-.114.052-.4.266-.235.418l.8.727c0-.074-.006-.147-.009-.22L22.236-62.8l-.314.414.8-.214-2.254-1.17.1.194.371-1.045-.83.291,1.672.955a.671.671,0,0,0,.8-.215l1.922-2.77c.129-.186-.111-.312-.264-.323a.7.7,0,0,0-.609.266" fill="none" clip-rule="evenodd"/></clipPath><clipPath id="p"><path d="M46.861-40.569a9.855,9.855,0,0,0-2.989,5.955h0A8.551,8.551,0,0,0,48.3-26.646h0a9.54,9.54,0,0,0,6.476,1.116h0L52.794-42.884a8.969,8.969,0,0,0-5.932,2.314Z" fill="none" clip-rule="evenodd"/></clipPath><clipPath id="q"><rect width="16" height="23" transform="translate(41 -45)" fill="none"/></clipPath><clipPath id="r"><path d="M41.473-43.155l12.765-1.3,2.055,20.186-12.765,1.3Z" fill="none" clip-rule="evenodd"/></clipPath><clipPath id="s"><path d="M43-25H55V-43H43Z" fill="none"/></clipPath><clipPath id="t"><path d="M49.3-42.321a9.827,9.827,0,0,0-2.235,1.359h0a9.212,9.212,0,0,0-1.948,2.223h0a10.4,10.4,0,0,0-1.21,2.708h0a8.033,8.033,0,0,0-.284,1.676h0a7.937,7.937,0,0,0,1.07,4.5h0l-.009.008A9.635,9.635,0,0,0,47.948-26.5h0a9.218,9.218,0,0,0,5.922,1.312h0a3.2,3.2,0,0,0,.737-.166h0c.156-.06.216-.113.165-.152h0a.841.841,0,0,0-.138-.061h0a1.029,1.029,0,0,0-.426-.058h0c-.2,0-.486.031-.92.044h0c-.117.006-.233.009-.348.008h0c-.115,0-.23.005-.346,0h0a9.061,9.061,0,0,1-3.1-.636h0a9.15,9.15,0,0,1-3.372-2.412h0a8.8,8.8,0,0,1-1.472-2.323h0a7.547,7.547,0,0,1-.569-2.15h0a7.2,7.2,0,0,1,.111-2.213h0A9.429,9.429,0,0,1,45.8-39h0a8.87,8.87,0,0,1,5.377-3.411h0a8.33,8.33,0,0,0,1.382-.385h0c.282-.122.334-.239-.015-.244h-.072a8.02,8.02,0,0,0-3.178.718Z" fill="none" clip-rule="evenodd"/></clipPath><clipPath id="v"><path d="M41.215-43.31l13.009-1.324,2.1,20.58L43.309-22.73Z" fill="none" clip-rule="evenodd"/></clipPath><clipPath id="w"><path d="M43-24H55V-44H43Z" fill="none"/></clipPath><clipPath id="x"><path d="M50.211-41.849A9.535,9.535,0,0,0,45.6-34.485h0a7.609,7.609,0,0,0,1.345,4.931h0a9.542,9.542,0,0,0,4.9,3.605h0c3.267,1.069,7.51.433,9.809-2.316h0a8.554,8.554,0,0,0,1.587-6.367h0A9.349,9.349,0,0,0,58.808-41.7h0a8.437,8.437,0,0,0-4.438-1.254h0a8.26,8.26,0,0,0-4.159,1.108Z" fill="none" clip-rule="evenodd"/></clipPath><clipPath id="y"><rect width="23" height="23" transform="translate(43 -46)" fill="none"/></clipPath><clipPath id="z"><path d="M43.2-43.247l20.33-2.07L65.588-25.1l-20.329,2.07Z" fill="none" clip-rule="evenodd"/></clipPath><clipPath id="aa"><path d="M45-24H64V-43H45Z" fill="none"/></clipPath><clipPath id="ab"><path d="M51.551-42.717a8.557,8.557,0,0,0-1.487.658h0a9.741,9.741,0,0,0-1.331.93h0a9.469,9.469,0,0,0-1.149,1.145h0l-.133.154-.124.161c-.081.108-.165.214-.245.324h0c-.15.225-.31.444-.442.681h0a9.776,9.776,0,0,0-1.185,3.016h0c-.045.268-.1.534-.127.806h0a7.076,7.076,0,0,0-.058.817h0a7.7,7.7,0,0,0,.144,1.635h0a5.687,5.687,0,0,0,.56,1.565h0a4.505,4.505,0,0,0,.662.946h0c.39.4.525.4.2-.138h0a8.084,8.084,0,0,1-1-2.829h0a7.95,7.95,0,0,1,.154-3h0A9.289,9.289,0,0,1,48.2-40h0a9.164,9.164,0,0,1,2.07-1.668h0a8.05,8.05,0,0,1,2.476-.922h0a8.181,8.181,0,0,1,2.637-.081h0a8.775,8.775,0,0,1,1.295.269h0a8.567,8.567,0,0,1,1.23.481h0a9.045,9.045,0,0,1,2.443,1.736h0a9.037,9.037,0,0,1,2.166,3.475h0a9.023,9.023,0,0,1,.44,2.013h0a10.8,10.8,0,0,1,.029,2.069h0l-.012,0a8.559,8.559,0,0,1-.4,2.029h0a6.576,6.576,0,0,1-.913,1.823h0c-.049.07-.1.134-.156.2h0a1.869,1.869,0,0,1-.164.193h0L61-28.007a7.513,7.513,0,0,1-.783.655h0a7.546,7.546,0,0,1-1.8.969h0a9.98,9.98,0,0,1-5.435.428h0a9.737,9.737,0,0,1-4.749-2.41h0c-.867-.817-1.26-1.373-1.256-1.181h0a1.714,1.714,0,0,0,.071.24h0a1.392,1.392,0,0,0,.134.3h0a2.957,2.957,0,0,0,.271.4h0a7.323,7.323,0,0,0,1.3,1.25h0a9.139,9.139,0,0,0,1.134.743h0a10.4,10.4,0,0,0,5.933,1.26h0a11.383,11.383,0,0,0,1.966-.348h0a9.793,9.793,0,0,0,1.862-.755h0a8.227,8.227,0,0,0,1.63-1.193h0c.118-.12.231-.247.348-.37h0a4.361,4.361,0,0,0,.328-.39h0c.106-.133.2-.277.292-.417h0c.084-.147.181-.287.255-.44h0a7.141,7.141,0,0,0,.52-1.235h0a8.6,8.6,0,0,0,.311-1.3h0a10.978,10.978,0,0,0,.09-2.667h0A9.663,9.663,0,0,0,62.127-38.6h0a9.654,9.654,0,0,0-2.982-3.13h0a8.565,8.565,0,0,0-1.771-.9h0a8.923,8.923,0,0,0-1.934-.465h0a8.548,8.548,0,0,0-1.091-.07h0a9.012,9.012,0,0,0-2.8.451Z" fill="none" clip-rule="evenodd"/></clipPath><clipPath id="ac"><rect width="24" height="24" transform="translate(42 -46)" fill="none"/></clipPath><clipPath id="ad"><path d="M42.874-43.428l20.8-2.118,2.093,20.563-20.8,2.118Z" fill="none" clip-rule="evenodd"/></clipPath><clipPath id="ae"><path d="M45-25H64V-44H45Z" fill="none"/></clipPath><clipPath id="af"><path d="M54.575-39.571,54.7-38.3a4.359,4.359,0,0,1,1.973.415l-.623,1.59a2.2,2.2,0,0,0-1.375-.38,1.086,1.086,0,0,0-.632.25.522.522,0,0,0-.21.441.553.553,0,0,0,.241.378,1.466,1.466,0,0,0,.556.252l.641.147a3.532,3.532,0,0,1,1.59.724,1.964,1.964,0,0,1,.6,1.3,3.166,3.166,0,0,1-.025.9,1.868,1.868,0,0,1-.307.731,2.434,2.434,0,0,1-.633.6,5.767,5.767,0,0,1-.991.526l.132,1.3-.966.1-.127-1.249a3.354,3.354,0,0,1-.7-.008,5.525,5.525,0,0,1-.746-.136,4.627,4.627,0,0,1-.7-.237,2.517,2.517,0,0,1-.546-.31l.689-1.672a2.962,2.962,0,0,0,2.009.675,1.123,1.123,0,0,0,.656-.278.65.65,0,0,0,.232-.575q-.046-.462-.751-.613l-.618-.127a5.54,5.54,0,0,1-.95-.275,2.266,2.266,0,0,1-.666-.4,1.694,1.694,0,0,1-.417-.556,2.325,2.325,0,0,1-.193-.749,2.9,2.9,0,0,1,.043-.884,2.252,2.252,0,0,1,.323-.792,2.322,2.322,0,0,1,.61-.624,2.361,2.361,0,0,1,.916-.374l-.129-1.27Z" fill="none" clip-rule="evenodd"/></clipPath><clipPath id="ah"><path d="M54.378-39.529q.064.636.129,1.27c.008.074.07.088.136.089a4.4,4.4,0,0,1,1.888.4l-.042-.109q-.312.795-.623,1.59l.333-.127c-.676-.4-2-.719-2.486.168-.422.768.811,1.018,1.313,1.133.963.221,1.937.605,2.187,1.663a2.42,2.42,0,0,1-.249,1.876,3.36,3.36,0,0,1-1.5,1.046c-.048.022-.163.079-.156.151l.132,1.3.259-.173-.965.1.135.088q-.063-.624-.127-1.249c-.006-.069-.07-.094-.135-.089a4.372,4.372,0,0,1-1.95-.322,3.247,3.247,0,0,1-.41-.195c-.065-.1-.132-.115-.2-.056,0-.008.007-.015.01-.024-.005-.06.074-.18.1-.234l.581-1.41-.363.108c.78.545,1.962,1.068,2.852.446a.821.821,0,0,0,.384-.932c-.124-.346-.518-.47-.842-.541-.924-.2-2.077-.332-2.532-1.3a2.289,2.289,0,0,1,1.494-3.226c.064-.014.218-.077.209-.166q-.064-.636-.129-1.27l-.259.173.965-.1c.163-.017.391-.289.124-.262l-.965.1c-.07.008-.27.064-.259.173q.065.635.129,1.27l.209-.166a2.571,2.571,0,0,0-2.033,1.849A2.274,2.274,0,0,0,52.762-33.8a5.081,5.081,0,0,0,1.279.4,3.441,3.441,0,0,1,.877.225.545.545,0,0,1,.324.6c-.072.377-.478.506-.813.508a3.039,3.039,0,0,1-1.708-.655.278.278,0,0,0-.363.108L51.67-30.95a.078.078,0,0,0,.012.092,4.357,4.357,0,0,0,2.8.723l-.135-.089.127,1.249a.11.11,0,0,0,.136.089l.966-.1c.07-.007.269-.065.259-.173l-.132-1.3-.156.15A3.23,3.23,0,0,0,57.579-32.1a2.476,2.476,0,0,0-.636-2.568,4.85,4.85,0,0,0-2.036-.78c-.355-.081-1.172-.368-.777-.869.417-.529,1.334-.124,1.779.138a.289.289,0,0,0,.333-.127l.623-1.59A.078.078,0,0,0,56.823-38a4.786,4.786,0,0,0-2.057-.427l.136.089q-.065-.636-.129-1.27c-.019-.179-.409-.062-.394.084" fill="none" clip-rule="evenodd"/></clipPath><clipPath id="ai"><path d="M.307-5.687,5.77-17.954l20,4.4L23.932-.473" fill="none" clip-rule="evenodd"/></clipPath><clipPath id="aj"><path d="M0-18.27H26.082V-.156H0Z" fill="none" clip-rule="evenodd"/></clipPath><clipPath id="ak"><rect width="28" height="20" transform="translate(-1 -19)" fill="none"/></clipPath><clipPath id="al"><path d="M.583-5.526c1.7-3.818,3.493-7.606,5.1-11.462.056-.134.209-.685.343-.77.068-.044-.582.239-.121.161a7.323,7.323,0,0,1,2.017.444l7.445,1.637,7.642,1.681a14.739,14.739,0,0,1,2.276.5c.694.281,0-.639.1.164.262,2.112-.69,4.912-.985,7.018q-.394,2.8-.786,5.6c-.056.4.56.577.617.17q.919-6.541,1.837-13.084a.326.326,0,0,0-.223-.393l-20-4.4a.326.326,0,0,0-.361.147Q2.762-11.982.031-5.849c-.166.373.385.7.553.323" fill="none" clip-rule="evenodd"/></clipPath><clipPath id="am"><path d="M0,0H27V-19H0Z" fill="none"/></clipPath><clipPath id="an"><path d="M22.515-17.05l.777-2a8.386,8.386,0,0,0-3.555-8.795s4.38-3.934,2.4-6.447S11.024-22.351,11.024-22.351" fill="none" clip-rule="evenodd"/></clipPath><clipPath id="ao"><path d="M22.824-16.965c1.345-3.467,1.318-8.132-2.091-10.546-.536-.38-.621-.8-.706-.17.049-.364,1.351-1.475,1.555-1.752.849-1.161,2.275-3.734.806-5.057-2.945-2.65-10.36,9.956-11.64,11.976-.221.349.332.67.552.323a88.086,88.086,0,0,1,5.322-7.567c.977-1.235,2.341-3.338,3.82-4.028,2.579-1.2,1.448,2.786.609,3.972a11.13,11.13,0,0,1-1.539,1.739.324.324,0,0,0,.065.5c3.711,2.225,4.047,6.785,2.631,10.436-.149.385.47.551.617.17" fill="none" clip-rule="evenodd"/></clipPath><clipPath id="ap"><path d="M14.948-23.1c5.358,1.374,7.366,4.241,5.156,6.241s-8.723-.47-9.081-1.02A3.494,3.494,0,0,1,14.948-23.1" fill="none" clip-rule="evenodd"/></clipPath><clipPath id="aq"><path d="M12.511-15.544,7.933-16.673a2.978,2.978,0,0,0-3.1,1.492l-3.4,9.655c-.165.468.95-.984.786-.515A1.586,1.586,0,0,0,3.7-3.92l6.521.9c.029,0,.061,0,.09.005A2.3,2.3,0,0,0,10.842-3c.04,0,.081-.013.122-.019A2.766,2.766,0,0,0,13.328-4.51a1.7,1.7,0,0,0,.056-.22,1.9,1.9,0,0,0,.076-.255c.567-3.153-.145-4.385.422-7.537l.248-1.377c.179-.993-.866-1.46-1.618-1.645" fill="none" clip-rule="evenodd"/></clipPath></defs><g transform="translate(0 76.36)"><g clip-path="url(#a)"><path d="M2.05-44.944H31.068V-3.885H2.05Z" fill="#fff"/></g><g clip-path="url(#b)"><path d="M1.727-45.247H31.479V-3.569H1.727Z" fill="#221f1f"/></g><g clip-path="url(#c)"><path d="M3.642-76.936h58.98v63.394H3.642Z" fill="#fff"/></g><g clip-path="url(#d)"><path d="M3.484-77.266H62.875V-13.28H3.484Z" fill="#221f1f"/></g><g clip-path="url(#e)"><path d="M6.034-75.484h56.3V-15.36H6.034Z" fill="#ccccca"/></g><g clip-path="url(#f)"><path d="M7.472-81.086H64.88V-17.37H7.472Z" fill="#fff"/></g><g clip-path="url(#g)"><path d="M7.188-81.36H65.2v64.311H7.188Z" fill="#221f1f"/></g><g clip-path="url(#h)"><path d="M16.606-69.876H52.279v15.441H16.606Z" fill="#ccccca"/></g><g clip-path="url(#i)"><path d="M17.47-61.393H53.142v15.441H17.47Z" fill="#ccccca"/></g><g clip-path="url(#j)"><path d="M18.333-52.91H54.006v15.441H18.333Z" fill="#ccccca"/></g><g clip-path="url(#k)"><path d="M19.2-44.427H54.87v15.441H19.2Z" fill="#ccccca"/></g><g clip-path="url(#l)"><path d="M12.9-73.908H32.126v19.221H12.9Z" fill="#221f1f"/></g><g clip-path="url(#m)"><path d="M12.448-74.19H32.585v19.784H12.448Z" fill="#221f1f"/></g><g clip-path="url(#n)"><path d="M15.1-71.384H29.867v14.031H15.1Z" fill="#fff"/></g><g clip-path="url(#o)"><path d="M14.633-71.681h15.7v14.628h-15.7Z" fill="#fff"/></g><g clip-path="url(#p)"><g clip-path="url(#q)"><g clip-path="url(#r)"><g clip-path="url(#s)"><path d="M36.473-49.454h24.82v31.485H36.473Z" fill="#666"/></g></g></g></g><g clip-path="url(#t)"><g clip-path="url(#q)"><g clip-path="url(#v)"><g clip-path="url(#w)"><path d="M36.215-49.634h25.1v31.9h-25.1Z" fill="#221f1f"/></g></g></g></g><g clip-path="url(#x)"><g clip-path="url(#y)"><g clip-path="url(#z)"><g clip-path="url(#aa)"><path d="M38.2-50.317H70.588v32.289H38.2Z" fill="#ff533b"/></g></g></g></g><g clip-path="url(#ab)"><g clip-path="url(#ac)"><g clip-path="url(#ad)"><g clip-path="url(#ae)"><path d="M37.874-50.547h32.9v32.681h-32.9Z" fill="#221f1f"/></g></g></g></g><g clip-path="url(#af)"><path d="M46.832-44.571H62.484v20.552H46.832Z" fill="#fff"/></g><g clip-path="url(#af)"><path d="M46.832-44.571H62.484v20.552H46.832Z" fill="#fff"/></g><g clip-path="url(#ah)"><path d="M46.631-44.7H62.694v20.817H46.631Z" fill="#fff"/></g><g clip-path="url(#ai)"><path d="M-4.693-22.954H30.769V4.527H-4.693Z" fill="#fff"/></g><g clip-path="url(#aj)"><g clip-path="url(#ak)"><g clip-path="url(#al)"><g clip-path="url(#am)"><path d="M-5-23.27H31.082V4.844H-5Z" fill="#221f1f"/></g></g></g></g><g clip-path="url(#an)"><path d="M6.024-39.588H28.447V-12.05H6.024Z" fill="#fff"/></g><g clip-path="url(#ao)"><path d="M5.7-39.853H28.652v28.1H5.7Z" fill="#221f1f"/></g><g clip-path="url(#ap)"><path d="M5.514-28.24H25.989v17.154H5.514Z" fill="#fff"/></g><g clip-path="url(#aq)"><path d="M-3.586-21.725H19.149V2.012H-3.586Z" fill="#ccccca"/></g></g></svg>