<svg xmlns="http://www.w3.org/2000/svg" xmlns:xlink="http://www.w3.org/1999/xlink" width="12" height="12" viewBox="0 0 12 12"><defs><clipPath id="a"><path d="M6.8-9.82a.554.554,0,0,1,.146-.257l4.7-4.7a.554.554,0,0,1,.783,0l2.349,2.349a.554.554,0,0,1,0,.783l-4.7,4.7A.554.554,0,0,1,9.82-6.8l-3.132.783a.554.554,0,0,1-.671-.671Zm.515,2.505L9.4-7.837l4.2-4.2L12.034-13.6l-4.2,4.2Zm7.459-4.328a.554.554,0,0,1-.783,0,.554.554,0,0,1,0-.783l2.74-2.74a.554.554,0,0,0,0-.783l-.783-.783a.554.554,0,0,0-.783,0l-2.74,2.74a.554.554,0,0,1-.783,0,.554.554,0,0,1,0-.783l2.74-2.74a1.661,1.661,0,0,1,2.348,0l.783.783a1.661,1.661,0,0,1,0,2.348Z" fill="none"/></clipPath><clipPath id="b"><path d="M0,0H50V-24H0Z" fill="none"/></clipPath></defs><g transform="translate(-6 18)" clip-path="url(#a)"><g clip-path="url(#b)"><path d="M1-23H23V-1H1Z" fill="#ff3e3e"/></g></g></svg>