<svg xmlns="http://www.w3.org/2000/svg" xmlns:xlink="http://www.w3.org/1999/xlink" width="22" height="22" viewBox="0 0 22 22"><defs><clipPath id="a"><path d="M11.4,6.892a.217.217,0,0,1-.293,0L6.253,2.4,1.4,6.892a.217.217,0,0,1-.293,0L.085,5.92q-.171-.113,0-.271L6.107.068a.192.192,0,0,1,.293,0l6.046,5.581q.122.158,0,.271Z" fill="#656565" clip-rule="evenodd"/></clipPath><clipPath id="b"><path d="M0,0H212.618V27.793H0Z" fill="#656565"/></clipPath><clipPath id="c"><rect width="20.15" height="13.897" fill="#656565"/></clipPath><clipPath id="d"><path d="M0,0H13.2V7.643H0Z" fill="#656565"/></clipPath><clipPath id="e"><path d="M0,0H12.507V7.643H0Z" fill="#656565"/></clipPath></defs><g transform="translate(-297 -323)"><rect width="22" height="22" transform="translate(297 323)" fill="rgba(255,255,255,0)"/><g transform="translate(303 327)"><g transform="translate(0 12.507) rotate(-90)" clip-path="url(#a)"><g transform="translate(-186.909 -9.728)" clip-path="url(#b)"><g transform="translate(182.861 6.253)" style="isolation:isolate"><g clip-path="url(#c)"><g transform="translate(3.474 3.474)" clip-path="url(#d)"><path d="M0,13.9H19.455V0H0Z" transform="translate(-2.9 -3.474)" fill="#656565"/></g><g transform="translate(4.048 3.474)" clip-path="url(#e)"><path d="M0,19.455H19.455V0H0Z" transform="translate(-3.474 -5.559)" fill="#656565"/></g></g></g></g></g><g transform="translate(4 12.507) rotate(-90)" clip-path="url(#a)"><g transform="translate(-186.909 -9.728)" clip-path="url(#b)"><g transform="translate(182.861 6.253)" style="isolation:isolate"><g clip-path="url(#c)"><g transform="translate(3.474 3.474)" clip-path="url(#d)"><path d="M0,13.9H19.455V0H0Z" transform="translate(-2.9 -3.474)" fill="#656565"/></g><g transform="translate(4.048 3.474)" clip-path="url(#e)"><path d="M0,19.455H19.455V0H0Z" transform="translate(-3.474 -5.559)" fill="#656565"/></g></g></g></g></g></g></g></svg>