<svg xmlns="http://www.w3.org/2000/svg" xmlns:xlink="http://www.w3.org/1999/xlink" width="22" height="22" viewBox="0 0 22 22"><defs><clipPath id="a"><path d="M281.224-23.944a.217.217,0,0,0-.293,0l-4.852,4.5-4.852-4.5a.217.217,0,0,0-.293,0l-1.024.972q-.171.113,0,.271l6.022,5.581a.217.217,0,0,0,.146.068.217.217,0,0,0,.146-.068l6.046-5.581q.122-.158,0-.271Z" fill="#656565" clip-rule="evenodd"/></clipPath><clipPath id="b"><path d="M.826-12.207H213.444V-40H.826Z" transform="translate(-0.826 40)" fill="#656565"/></clipPath><clipPath id="c"><rect width="20.15" height="13.897" fill="#656565"/></clipPath><clipPath id="d"><path d="M269-17.357h13.2V-25H269Z" transform="translate(-269 25)" fill="#656565"/></clipPath><clipPath id="e"><path d="M269.826-17.357h12.507V-25H269.826Z" transform="translate(-269.826 25)" fill="#656565"/></clipPath></defs><g transform="translate(-248 -290)"><g transform="translate(280 577.333) rotate(-90)" clip-path="url(#a)"><g transform="translate(82.917 -35.117)" clip-path="url(#b)"><g transform="translate(182.861 7.643)" style="isolation:isolate"><g clip-path="url(#c)"><g transform="translate(3.474 2.779)" clip-path="url(#d)"><path d="M264.826-29h19.455v13.9H264.826Z" transform="translate(-267.726 26.221)" fill="#656565"/></g><g transform="translate(4.048 2.779)" clip-path="url(#e)"><path d="M264.826-34h19.455v19.455H264.826Z" transform="translate(-268.3 27.747)" fill="#656565"/></g></g></g></g></g><rect width="22" height="22" transform="translate(248 290)" fill="rgba(255,255,255,0)"/></g></svg>