<svg xmlns="http://www.w3.org/2000/svg" xmlns:xlink="http://www.w3.org/1999/xlink" width="58" height="58" viewBox="0 0 58 58"><defs><clipPath id="a"><path d="M22.969-303.031H34.125s1.582-8.763,5.449-13.949,3.515-18.535-9.139-18.535c-13.42,0-15.135,12.975-10.662,21.217,4.366,8.048,3.2,11.267,3.2,11.267" fill="none" clip-rule="evenodd"/></clipPath><clipPath id="b"><path d="M0-285H57v-58H0Z" fill="none"/></clipPath><clipPath id="c"><path d="M17.321-335.857H42.011v33.081H17.321Z" fill="none" clip-rule="evenodd"/></clipPath><clipPath id="e"><rect width="27" height="35" transform="translate(16 -337)" fill="none"/></clipPath><clipPath id="f"><path d="M22.969-302.776H34.125a.254.254,0,0,0,.242-.187,44.46,44.46,0,0,1,2-7.177,28.769,28.769,0,0,1,2.659-5.591,21.714,21.714,0,0,0,1.9-3.141c1.778-4.191,1.466-9.755-1.554-13.288-3.786-4.43-11.306-4.612-16.127-1.962-4.8,2.637-6.47,8.307-5.763,13.541.545,4.032,2.753,7.152,4.165,10.876.691,1.823,1.76,4.606,1.086,6.607-.1.311.379.445.483.136a7.656,7.656,0,0,0-.156-3.822c-.842-3.91-3.248-7.1-4.417-10.858-2.2-7.092.167-15.362,7.946-17.2,3.9-.922,8.756-.569,11.793,2.369a11.4,11.4,0,0,1,3.094,8.759c-.15,3.38-1.6,5.534-3.24,8.319a37.8,37.8,0,0,0-3.868,10.136,8.132,8.132,0,0,1-.406,1.8c-.331.56.3.047-.009.181-.839.358-2.566,0-3.467,0H22.969a.255.255,0,0,0,0,.51" fill="none" clip-rule="evenodd"/></clipPath><clipPath id="g"><path d="M17-302H43v-34H17Z" fill="none"/></clipPath><clipPath id="h"><path d="M6.65-290.987h43.7v-44.467H6.65Z" fill="none" clip-rule="evenodd"/></clipPath><clipPath id="j"><rect width="30" height="31" transform="translate(18 -322)" fill="none"/></clipPath><clipPath id="k"><path d="M22.815-299.819H34.679V-301.7H22.815Z" fill="none" clip-rule="evenodd"/></clipPath><clipPath id="l"><path d="M6-290H51v-46H6Z" fill="none"/></clipPath><clipPath id="m"><path d="M34.679-300.048H27.814c-1.393,0-2.815-.087-4.205,0-.114.008-.678.083-.769,0,.4.36.175-1.543.1-1.469.021-.02,1.861.045,2.282.045H29.91c1.316,0,2.661.082,3.975,0,.114-.008.678-.083.77,0-.317-.287-.2,1.347-.2,1.653a.226.226,0,0,0,.451,0V-301.7a.231.231,0,0,0-.226-.23H22.815a.231.231,0,0,0-.226.23v1.883a.231.231,0,0,0,.226.229H34.679a.23.23,0,0,0,0-.459" fill="none" clip-rule="evenodd"/></clipPath><clipPath id="o"><path d="M23.915-296.607h9.663v-1.883H23.915Z" fill="none" clip-rule="evenodd"/></clipPath><clipPath id="q"><path d="M33.578-296.836H27.612c-1.073,0-2.167.062-3.239,0-.646-.038-.183.2-.232-.065-.041-.22.024-1.588-.1-1.434a13.649,13.649,0,0,0,2,.074h4.029c1.032,0,2.106-.088,3.134,0,.576.049.082-.238.153.065a7.615,7.615,0,0,1,0,1.589.226.226,0,0,0,.451,0v-1.883a.231.231,0,0,0-.226-.229H23.916a.231.231,0,0,0-.226.229v1.883a.231.231,0,0,0,.226.229h9.663a.23.23,0,0,0,0-.459" fill="none" clip-rule="evenodd"/></clipPath><clipPath id="s"><path d="M26.855-295.517h3.919s-.358,2.847-1.478,3.073c-2.874.581-2.44-3.073-2.44-3.073" fill="none" clip-rule="evenodd"/></clipPath><clipPath id="u"><path d="M26.719-295.289h3.919l-.229-.188a8.638,8.638,0,0,1-.285,1.338,4.582,4.582,0,0,1-.39.973,1.726,1.726,0,0,1-.267.372.448.448,0,0,1-.117.1c-.069.046.014-.012-.037.022s.048,0-.03.011a1.5,1.5,0,0,1-1.554-.461,2.757,2.757,0,0,1-.508-1.461,4.28,4.28,0,0,1,0-.975c.038-.322-.7-.2-.729.081a3.743,3.743,0,0,0,.541,2.622,2.093,2.093,0,0,0,2.007.674,1.658,1.658,0,0,0,1.088-.534,3.357,3.357,0,0,0,.575-1.046,8.027,8.027,0,0,0,.437-1.8c.017-.127-.124-.188-.229-.188H26.991a.54.54,0,0,0-.477.21c-.077.15.067.247.2.247" fill="none" clip-rule="evenodd"/></clipPath><clipPath id="w"><path d="M21.06-316.105a32.215,32.215,0,0,1,2.82,6.661c.735,2.991,2.851,8.964,4.922,2.825s-4.888-14.907-7.779-14.786c-2.089.087-.781,3.765.037,5.3" fill="none" clip-rule="evenodd"/></clipPath><clipPath id="y"><path d="M26.995-305.536c.443-3.439.972-7.381.194-10.793-.256-1.119-.644-2.125-1.9-2.159-.75-.02-1.651.364-1.617,1.249.108,2.77,8.355,2.493,9.409.7.731-1.245-1.239-2.6-2.051-1.436a4.639,4.639,0,0,0-.249,1.927c-.1,1.42-.144,2.845-.189,4.267q-.1,3.122-.142,6.245a.251.251,0,0,0,.5,0c.038-2.626.1-5.252.2-7.876.03-.762-.257-3.634.291-4.218.681-.727,1.559.242.969,1.029-.641.857-3.254.709-4.09.709-.983,0-2.963.1-3.679-.772-.947-1.15.887-1.76,1.677-.716.838,1.108.659,3.4.662,4.722a55.232,55.232,0,0,1-.484,7.122c-.042.324.46.321.5,0" fill="none" clip-rule="evenodd"/></clipPath><clipPath id="aa"><path d="M40.777-302.1a6.669,6.669,0,0,1-6.61-6.726,6.669,6.669,0,0,1,6.61-6.726,6.668,6.668,0,0,1,6.61,6.726A6.668,6.668,0,0,1,40.777-302.1Z" fill="none" clip-rule="evenodd"/></clipPath><clipPath id="ac"><path d="M47.161-308.827a6.558,6.558,0,0,1-6.384,6.5,6.525,6.525,0,0,1-6.385-6.5,6.475,6.475,0,0,1,5.748-6.432,6.481,6.481,0,0,1,7.021,6.432c.015.294.466.3.451,0a7,7,0,0,0-6.835-6.956,6.963,6.963,0,0,0-6.836,6.956,6.969,6.969,0,0,0,6.836,6.956,7,7,0,0,0,6.835-6.956c.015-.3-.436-.294-.451,0" fill="none" clip-rule="evenodd"/></clipPath><clipPath id="ae"><path d="M39.229-308.885l-.991-1.534-1.207,1.534h.6s-.172,3.3,2.585,3.3a22.356,22.356,0,0,0,2.3-.157l.08-.793a7.8,7.8,0,0,1-2.464.1,2.07,2.07,0,0,1-1.718-2.409Z" fill="none" clip-rule="evenodd"/></clipPath><clipPath id="ag"><path d="M39.424-309l-.991-1.535a.225.225,0,0,0-.354-.046l-1.206,1.534a.234.234,0,0,0,.159.392h.6l-.226-.229a4.037,4.037,0,0,0,.717,2.555c1.038,1.349,2.928.993,4.393.818a.236.236,0,0,0,.226-.229q.04-.4.08-.794a.23.23,0,0,0-.286-.222c-1.221.241-3.155.469-3.76-.947a2.549,2.549,0,0,1-.15-1.013c0-.046-.266.041,0,.094a2.666,2.666,0,0,0,.6-.032c.289-.016.291-.475,0-.459l-.812.044a.229.229,0,0,0-.217.168c-.4,2.7,2.544,2.966,4.459,2.589l-.286-.221c-.026.265-.053.529-.08.794l.226-.23c-1.36.163-3.258.565-4.146-.794a3.714,3.714,0,0,1-.512-2.12.229.229,0,0,0-.225-.229h-.6l.159.392,1.206-1.534-.354-.047.991,1.535c.159.246.549.016.389-.232" fill="none" clip-rule="evenodd"/></clipPath><clipPath id="ai"><path d="M41.972-308.768l.991,1.534,1.206-1.534h-.6s.172-3.3-2.585-3.3a22.414,22.414,0,0,0-2.3.157l-.08.794a7.786,7.786,0,0,1,2.464-.1,2.069,2.069,0,0,1,1.717,2.408Z" fill="none" clip-rule="evenodd"/></clipPath><clipPath id="ak"><path d="M41.777-308.652l.991,1.534a.225.225,0,0,0,.354.046l1.206-1.534a.234.234,0,0,0-.16-.392h-.6l.226.229a4.035,4.035,0,0,0-.717-2.555c-1.038-1.349-2.929-.993-4.393-.817a.237.237,0,0,0-.226.229l-.08.794c-.016.16.156.246.286.221,1.221-.241,3.155-.469,3.76.947a2.561,2.561,0,0,1,.15,1.013c0,.046.265-.041,0-.094a2.668,2.668,0,0,0-.6.032c-.289.016-.291.475,0,.459l.812-.044a.23.23,0,0,0,.218-.169c.4-2.7-2.544-2.965-4.459-2.589l.286.222.08-.794-.226.23c1.359-.163,3.258-.565,4.147.793a3.713,3.713,0,0,1,.512,2.12.23.23,0,0,0,.225.23h.6c-.053-.131-.106-.262-.159-.392L42.8-307.4l.354.046-.991-1.535c-.159-.246-.549-.016-.389.232" fill="none" clip-rule="evenodd"/></clipPath></defs><g transform="translate(-192 -238)"><g transform="translate(37.35 -6.143)"><g transform="translate(155 587)" clip-path="url(#a)"><g clip-path="url(#b)"><path d="M12.56-340.515H46.738v42.484H12.56Z" fill="#fff"/></g></g><g transform="translate(155 587)" clip-path="url(#c)"><g clip-path="url(#b)"><g clip-path="url(#e)"><g clip-path="url(#f)"><g clip-path="url(#g)"><path d="M12.321-340.858h34.69v43.082H12.321Z" fill="#221f1f"/></g></g></g></g></g><g transform="translate(155 587)" clip-path="url(#h)"><g clip-path="url(#b)"><g clip-path="url(#j)"><g clip-path="url(#k)"><g clip-path="url(#l)"><path d="M17.815-306.7H39.679v11.883H17.815Z" fill="#ff533b"/></g></g><g clip-path="url(#m)"><g clip-path="url(#l)"><path d="M17.589-306.931H39.9v12.342H17.589Z" fill="#221f1f"/></g></g><g clip-path="url(#o)"><g clip-path="url(#l)"><path d="M18.915-303.489H38.578v11.883H18.915Z" fill="#ff533b"/></g></g><g clip-path="url(#q)"><g clip-path="url(#l)"><path d="M18.69-303.719H38.8v12.342H18.69Z" fill="#221f1f"/></g></g><g clip-path="url(#s)"><g clip-path="url(#l)"><path d="M21.832-300.517H35.774v13.136H21.832Z" fill="#221f1f"/></g></g><g clip-path="url(#u)"><g clip-path="url(#l)"><path d="M21.456-300.748H36.139v13.595H21.456Z" fill="#221f1f"/></g></g><g clip-path="url(#w)"><g clip-path="url(#l)"><path d="M14.9-326.407H34.182v27.455H14.9Z" fill="#dde2e7"/></g></g><g clip-path="url(#y)"><g clip-path="url(#l)"><path d="M18.669-323.489h19.57v23.2H18.669Z" fill="#221f1f"/></g></g><g clip-path="url(#aa)"><g clip-path="url(#l)"><path d="M29.167-320.552h23.22V-297.1H29.167Z" fill="#ff533b"/></g></g><g clip-path="url(#ac)"><g clip-path="url(#l)"><path d="M28.941-320.782H52.612v23.911H28.941Z" fill="#221f1f"/></g></g><g clip-path="url(#ae)"><g clip-path="url(#l)"><path d="M32.032-315.42H47.6v14.835H32.032Z" fill="#fff"/></g></g><g clip-path="url(#ag)"><g clip-path="url(#l)"><path d="M31.815-315.651h16.01v15.315H31.815Z" fill="#fff"/></g></g><g clip-path="url(#ai)"><g clip-path="url(#l)"><path d="M33.6-317.068H49.169v14.834H33.6Z" fill="#fff"/></g></g><g clip-path="url(#ak)"><g clip-path="url(#l)"><path d="M33.376-317.318h16.01V-302H33.376Z" fill="#fff"/></g></g></g></g></g></g><rect width="58" height="58" transform="translate(192 238)" fill="#fff" opacity="0"/></g></svg>