<svg xmlns="http://www.w3.org/2000/svg" xmlns:xlink="http://www.w3.org/1999/xlink" width="14.391" height="14.391" viewBox="0 0 14.391 14.391"><defs><clipPath id="a"><path d="M7.7-11.957a.3.3,0,0,0-.3.3.3.3,0,0,0,.3.3.3.3,0,0,0,.3-.3.305.305,0,0,0-.3-.3Z" fill="none" clip-rule="evenodd"/></clipPath></defs><g transform="translate(-0.804 15.196)"><g transform="translate(1.304 -14.696)"><path d="M13.391,6.7A6.7,6.7,0,1,1,6.7,0a6.7,6.7,0,0,1,6.7,6.7Z" fill="none" stroke="#909090" stroke-linecap="round" stroke-linejoin="round" stroke-width="1"/></g><g transform="translate(6.174 -3.739)"><path d="M0,0H3.652" fill="none" stroke="#909090" stroke-linecap="round" stroke-linejoin="round" stroke-width="1"/></g><g transform="translate(6.783 -9.217)"><path d="M0,0H1.217V5.174" fill="none" stroke="#909090" stroke-linecap="round" stroke-linejoin="round" stroke-width="1"/></g><g clip-path="url(#a)"><path d="M2.391-16.957H13V-6.348H2.391Z" fill="#909090"/></g><g transform="translate(7.391 -11.957)"><path d="M.3,0a.3.3,0,1,0,.3.3A.3.3,0,0,0,.3,0Z" fill="none" stroke="#909090" stroke-linejoin="round" stroke-width="1"/></g></g></svg>