<svg xmlns="http://www.w3.org/2000/svg" width="100" height="100" viewBox="0 0 100 100"><defs><clipPath id="ikfma"><path d="M.333 54.717h33.528v23.286H.333z"/></clipPath></defs><g><g><g><g><g><path fill="#fff" d="M53.036 63.79l-37.107 5.626-4.009-58.65c-.214-3.126 1.314-5.917 3.412-6.234L45.03.028c1.994-.302 3.775 1.86 3.977 4.83z"/></g><g><path fill="#231f20" d="M52.76 63.032L20.768 67.89c-1.204.183-3.363 1.183-4.551.691.061.025.252.704.13-.289-.136-1.12-.157-2.304-.234-3.438l-1.89-27.695-1.669-24.449c-.247-3.625.484-6.734 3.3-7.519 2.062-.574 4.25-.645 6.335-.962 6.444-.98 12.889-1.957 19.334-2.937 2.44-.37 5.704-1.71 6.794 2.958.447 1.916.413 4.159.55 6.16l3.619 53.03c.035.52.584.524.548 0l-2.508-36.754-1.31-19.202c-.288-4.21-1.312-7.771-4.682-7.467-8.998.814-18.008 2.736-26.978 4.098-2.974.451-5.794 1.611-5.65 7.12.126 4.883.67 9.823 1.002 14.682l2.94 43.088c.014.202.115.432.274.409L52.76 63.85c.348-.052.351-.87 0-.818"/></g></g><g transform="rotate(-5 32.5 33.5)"><path fill="#ececec" d="M17.7 10.057c0-.713.578-1.29 1.29-1.29h27.42c.712 0 1.29.577 1.29 1.29v47.42a1.29 1.29 0 0 1-1.29 1.29H18.99a1.29 1.29 0 0 1-1.29-1.29z"/></g><g><path fill="#fff" d="M31.985 38.955c6.831 0 12.37-5.556 12.37-12.41 0-6.855-5.539-12.412-12.37-12.412-6.83 0-12.368 5.557-12.368 12.411 0 6.855 5.537 12.411 12.368 12.411z"/></g><g><g><path fill="#ec0000" d="M28.477 22.956c-.575-.476-1.144-.937-1.622-1.328.376.459.81.994 1.258 1.534.941 1.135 1.626 1.852 1.638 2.517 0 .671-.688 1.39-1.637 2.536-.421.508-.83 1.011-1.19 1.45.463-.378 1.006-.818 1.553-1.272 1.136-.94 1.853-1.625 2.519-1.637.671 0 1.39.688 2.537 1.637.548.454 1.09.894 1.554 1.273-.36-.44-.769-.943-1.19-1.451-.95-1.146-1.638-1.865-1.638-2.536.014-.665.698-1.382 1.639-2.517.447-.54.882-1.075 1.258-1.534-.478.39-1.048.853-1.623 1.329-1.146.95-1.866 1.638-2.537 1.638-.666-.014-1.383-.698-2.519-1.639zm-3.533 8.408c-.648 0-1.174-.545-1.178-1.22v-.076c.003-.276.082-.471.082-.471.305-.707.948-2.029.953-3.9 0-1.88-.647-3.208-.953-3.917 0 0-.08-.195-.083-.471v-.077c.005-.674.53-1.22 1.179-1.22.15 0 .293.03.424.083a1.134 1.134 0 0 1-.042-.308c0-.648.545-1.174 1.22-1.179h.077c.276.004.471.083.471.083.71.306 2.04.952 3.92.952 1.872-.004 3.195-.647 3.902-.952 0 0 .196-.079.472-.082h.076c.675.004 1.22.53 1.22 1.178 0 .107-.014.21-.042.308.132-.053.276-.082.425-.082.648 0 1.174.545 1.179 1.22v.076c-.004.276-.083.471-.083.471-.306.71-.952 2.038-.952 3.918.004 1.87.647 3.192.952 3.899 0 0 .079.195.082.471v.077c-.004.674-.53 1.22-1.178 1.22-.147 0-.287-.029-.416-.08.022.09.034.182.034.278 0 .648-.546 1.174-1.22 1.178h-.077c-.276-.003-.472-.082-.472-.082-.707-.305-2.03-.948-3.901-.953-1.882 0-3.211.647-3.92.953 0 0-.196.079-.472.082h-.077c-.675-.004-1.22-.53-1.22-1.178 0-.095.012-.188.034-.277-.13.05-.27.078-.416.078z"/></g></g><g><g><path fill="#fff" d="M.733 70.886l7.022-15.77 25.71 5.653-2.362 16.82"/></g><g><g/><g clip-path="url(#ikfma)"><path fill="#231f20" d="M1.084 71.1c2.185-4.908 4.49-9.778 6.56-14.734.073-.172.27-.88.442-.99.088-.056-.748.307-.156.207.663-.11 1.965.432 2.593.57l9.571 2.105 9.824 2.16c.92.202 2.054.29 2.926.643.892.361.005-.821.134.21.336 2.716-.887 6.315-1.266 9.022-.338 2.398-.674 4.796-1.01 7.193-.073.518.72.742.792.218l2.362-16.82c.03-.21-.049-.452-.288-.504C25 58.495 16.43 56.61 7.86 54.727c-.162-.036-.39.02-.464.188-2.341 5.257-4.683 10.513-7.023 15.77-.213.479.495.898.71.415"/></g></g><g><path fill="#fff" d="M12.817 51.676l1.313-2.69c5.257-6.794 11.366-5.396 12.118-4.162.751 1.233 2.145-6.626 6.487-6.757 4.345-.13-4.083 21.354-4.083 21.354s-3.103-.458-3.895-1.392"/></g><g><path fill="#231f20" d="M25.98 44.444c.994.217 1.571-.073.92.59.38-.386.354-2.777.473-3.246.497-1.96 2.066-5.82 5.126-5.484 6.13.676-1.118 20.049-2.186 23.25-.184.552-1.129.263-.945-.288 1.375-4.121 2.576-8.318 3.46-12.546.453-2.162 1.533-5.528.833-7.72-1.221-3.821-4.76 1.027-5.297 3a14.027 14.027 0 0 0-.471 3.216c-.01.293-.364.478-.659.393-6.414-1.874-12.123 1.951-14.972 6.791-.3.51-1.13.01-.832-.494 2.704-4.596 8.22-8.844 14.55-7.462z"/></g><g><path fill="#fff" d="M26.442 57.006c-1.494 1.583-4.812.89-7.61.209-2.281-.555-4.335-.95-4.586-1.202-2.715-2.726 1.31-9.348 5.868-7.979 6.576 1.975 9.04 6.097 6.328 8.972z"/></g><g><path fill="#cccccb" d="M16.414 58.219l-5.884-1.452c-1.328-.326-3.515.571-3.99 1.919L2.173 71.097c-.213.603 1.221-1.264 1.01-.662-.505 1.43.474 2.527 1.911 2.726l8.383 1.16c.037.005.078.004.116.007.238.032.47.04.677.019.052-.004.104-.016.156-.024 1.248-.126 2.606-.77 3.04-1.92.037-.097.048-.188.072-.282.034-.108.076-.212.097-.328.729-4.053-.187-5.638.542-9.69l.318-1.77c.23-1.276-1.113-1.876-2.08-2.114"/></g></g><g><path fill="#231f20" d="M48.74 54.543a5.927 5.927 0 1 1-11.794 1.2 5.927 5.927 0 0 1 11.793-1.2"/></g><g><path fill="#231f20" d="M48.146 54.699c.197 2.238-.94 4.542-3.01 5.524-2.079.987-4.568.35-6.1-1.313-1.534-1.665-1.96-4.184-1.002-6.247.94-2.028 3.036-3.33 5.288-3.045 2.602.331 4.53 2.533 4.824 5.08.051.44 1.248.167 1.193-.318a6.264 6.264 0 0 0-4.886-5.381c-2.637-.567-5.494.513-7.036 2.737-1.52 2.192-1.434 5.206.216 7.303 1.658 2.11 4.568 2.879 7.097 2.079 2.924-.927 4.88-3.655 4.609-6.738-.038-.433-1.235-.17-1.193.319"/></g><g><path fill="#fff" d="M44.846 52.45l-2.47 3.56-2.15-1.226-.476 1.344 2.897 1.504 3.224-4.247z"/></g><g><path fill="#fff" d="M44.275 52.413l-2.47 3.56 1.029-.275-2.15-1.228c-.342-.195-.935.002-1.067.375l-.477 1.344c-.033.094.056.21.132.25l2.897 1.504c.341.177.809.015 1.029-.276a10938.687 10938.687 0 0 1 3.224-4.247c.053-.07.059-.22-.011-.282l-1.025-.935c-.212-.193-.552-.155-.798-.045-.146.066-.516.341-.302.537l1.025.934-.012-.282-2.82 3.715-.403.532 1.029-.276-2.898-1.503.132.249.476-1.344-1.067.375 2.15 1.227c.323.184.828.015 1.029-.276l2.47-3.561c.166-.24-.142-.4-.34-.415-.288-.02-.614.1-.782.343"/></g></g></g></g></svg>