<svg xmlns="http://www.w3.org/2000/svg" xmlns:xlink="http://www.w3.org/1999/xlink" width="12" height="9" viewBox="0 0 12 9"><defs><clipPath id="a"><path d="M1.555-9.142a.891.891,0,0,0-1.246-.1.865.865,0,0,0-.1,1.23l2.343,2.7.671-.567-.672.569A.893.893,0,0,0,3.8-5.211a.913.913,0,0,0,.07-.066l7.846-7.212a.866.866,0,0,0,.045-1.234.892.892,0,0,0-1.249-.044L3.3-7.133,1.555-9.142Z" fill="none"/></clipPath></defs><g transform="translate(0 14)" clip-path="url(#a)"><path d="M-5-19H17V0H-5Z" fill="#219921"/></g></svg>