<svg xmlns="http://www.w3.org/2000/svg" width="100" height="100" viewBox="0 0 100 100"><defs><clipPath id="s80ba"><path d="M48.453 37.16c-1.634 1.488-2.819 3.866-3.048 6.073-.347 3.334 1.72 6.504 4.52 8.127a9.73 9.73 0 0 0 6.605 1.138L54.503 34.8a9.147 9.147 0 0 0-6.05 2.36z"/></clipPath><clipPath id="s80bb"><path d="M50.944 35.366c-.813.351-1.583.826-2.28 1.385a9.395 9.395 0 0 0-1.987 2.268 10.611 10.611 0 0 0-1.234 2.762 8.191 8.191 0 0 0-.289 1.709c-.122 1.597.302 3.21 1.091 4.59l-.009.007a9.826 9.826 0 0 0 3.33 3.41c1.833 1.14 4.043 1.591 6.04 1.339.335-.043.593-.106.751-.17.159-.06.22-.115.169-.154-.03-.024-.093-.041-.141-.063-.106-.048-.227-.057-.435-.059-.206.002-.496.032-.938.045-.12.007-.238.01-.355.008-.117.001-.234.006-.353-.002a9.24 9.24 0 0 1-3.167-.648c-1.31-.53-2.494-1.395-3.438-2.46a8.97 8.97 0 0 1-1.501-2.369c-.3-.7-.5-1.44-.58-2.193a7.345 7.345 0 0 1 .113-2.257c.279-1.348.843-2.68 1.649-3.76 1.324-1.82 3.328-3.034 5.484-3.478.606-.127 1.12-.269 1.41-.393.287-.124.34-.244-.016-.249h-.073c-1.116 0-2.224.288-3.241.732z"/></clipPath><clipPath id="s80bc"><path d="M51.877 35.847c-2.646 1.543-4.462 4.442-4.703 7.51-.147 1.865.388 3.59 1.371 5.03 1.166 1.705 2.96 3.011 4.994 3.676 3.332 1.09 7.659.441 10.003-2.361 1.357-1.622 1.872-3.993 1.618-6.494-.336-3.308-2.212-5.787-4.515-7.213a8.605 8.605 0 0 0-4.526-1.278 8.424 8.424 0 0 0-4.242 1.13z"/></clipPath><clipPath id="s80bd"><path d="M53.24 34.96a8.726 8.726 0 0 0-1.517.67c-.476.281-.934.593-1.357.949-.418.36-.82.74-1.172 1.168l-.136.156-.126.165c-.083.11-.169.218-.25.33-.153.23-.316.453-.451.695a9.97 9.97 0 0 0-1.209 3.076c-.045.273-.106.545-.129.822a7.855 7.855 0 0 0 .088 2.5 5.8 5.8 0 0 0 .571 1.596c.234.433.48.758.676.965.398.41.535.405.205-.141a8.245 8.245 0 0 1-1.022-2.885 8.108 8.108 0 0 1 .157-3.064 9.474 9.474 0 0 1 2.25-4.234 9.346 9.346 0 0 1 2.112-1.702 8.21 8.21 0 0 1 2.524-.94 8.343 8.343 0 0 1 2.69-.083 8.95 8.95 0 0 1 1.32.274c.429.138.854.289 1.255.49a9.217 9.217 0 0 1 4.7 5.314c.227.665.38 1.354.45 2.054.078.7.086 1.41.03 2.11l-.012.003a8.729 8.729 0 0 1-.405 2.07 6.706 6.706 0 0 1-.931 1.859c-.05.071-.106.137-.16.206a1.906 1.906 0 0 1-.166.197l-.354.382c-.258.232-.51.47-.799.667a7.695 7.695 0 0 1-1.833.988c-1.758.675-3.72.792-5.543.437a9.93 9.93 0 0 1-4.844-2.457c-.884-.834-1.285-1.401-1.281-1.205.004.055.046.161.072.245.028.095.071.19.137.306.064.117.154.248.277.406.251.312.636.746 1.324 1.275.37.285.752.533 1.156.758 1.831 1.04 3.956 1.446 6.052 1.284a11.608 11.608 0 0 0 2.005-.355 9.987 9.987 0 0 0 1.9-.77 8.39 8.39 0 0 0 1.662-1.217c.12-.122.235-.252.354-.377.121-.123.227-.26.334-.397.108-.136.2-.283.299-.426.086-.15.184-.293.26-.449.218-.4.392-.826.53-1.26.139-.434.249-.878.318-1.327.145-.9.168-1.816.092-2.72-.122-1.474-.559-2.932-1.317-4.21a9.846 9.846 0 0 0-3.041-3.192 8.735 8.735 0 0 0-1.806-.921 9.1 9.1 0 0 0-1.973-.474 8.718 8.718 0 0 0-1.113-.071c-.975 0-1.944.161-2.853.46z"/></clipPath><clipPath id="s80be"><path d="M.667 59.9h26.6v18.474H.667z"/></clipPath></defs><g><g><g><g><g><path fill="#fff" d="M7.85 61.348s3.968-23.185 14.39-23.545c10.421-.36 1.34 31.673 1.34 31.673z"/></g><g><path fill="#231f20" d="M8.177 61.427c.807-4.649 2.18-9.336 4.126-13.63 1.411-3.116 3.271-6.526 6.224-8.429 2.765-1.782 6.064-1.785 7.472 1.491 2.36 5.497.587 13.235-.479 18.835a128.658 128.658 0 0 1-1.66 7.482c-.15.593-.25 1.257-.478 1.828-.214.538.631.323-.158-.092-5.041-2.663-10.132-5.236-15.197-7.854-.372-.192-.703.37-.33.564l15.73 8.128c.187.096.42.016.48-.195 2.276-8.066 4.625-17.463 3.464-25.866-.448-3.249-1.923-6.586-5.73-6.17-5.2.567-8.31 6.281-10.162 10.537-1.824 4.185-3.15 8.695-3.931 13.197-.072.41.557.588.629.174"/></g><g><path fill="#fff" d="M54.974 55.945l-35.86 3.65a4.965 4.965 0 0 1-5.444-4.436L9.51 14.286a4.966 4.966 0 0 1 4.436-5.443l35.86-3.65A4.965 4.965 0 0 1 55.25 9.63l4.16 40.872a4.964 4.964 0 0 1-4.436 5.443"/></g><g><path fill="#231f20" d="M54.968 55.622L20.83 59.098c-3.174.323-6.128-.31-6.86-4.147-.332-1.738-.366-3.59-.545-5.35L11.232 28.06c-.462-4.53-1.317-9.2-1.401-13.757-.084-4.573 3.497-5.067 6.826-5.407 3.055-.31 6.11-.62 9.164-.932 6.963-.71 13.927-1.419 20.89-2.127 3.069-.312 6.801-.968 8.048 3.003.45 1.434.4 3.162.55 4.64l2.367 23.255 1.07 10.497c.355 3.504 1.057 7.451-3.865 8.402-.412.08-.238.708.173.629 6.641-1.283 4.34-9.06 3.86-13.786L56.44 18.192c-.433-4.255.293-12.748-5.657-13.321-1.72-.166-3.61.266-5.311.44l-11.34 1.153c-6.592.672-13.338.987-19.884 2.025-6.1.967-5.013 6.384-4.552 10.91l2.454 24.1.975 9.577c.198 1.953.286 3.899 1.794 5.382 1.995 1.963 4.616 1.423 7.09 1.172l12.123-1.234 20.835-2.121c.413-.042.418-.695 0-.653"/></g><g><path fill="#cccccb" d="M53.392 54.603l-30.774 3.133a6.396 6.396 0 0 1-7.01-5.715l-3.662-35.96a5.626 5.626 0 0 1 5.027-6.167l31.54-3.21a6.396 6.396 0 0 1 7.012 5.715l3.582 35.193a6.395 6.395 0 0 1-5.715 7.011"/></g><g><path fill="#fff" d="M61.733 51.276l-43.614 4.44L13.407 9.43a4.488 4.488 0 0 1 4.01-4.92L52.324.956a4.265 4.265 0 0 1 4.675 3.81z"/></g><g><path fill="#231f20" d="M61.74 50.946l-38.083 3.877c-1.434.146-4.003.944-5.418.551.073.02.3.562.155-.23-.163-.894-.187-1.839-.279-2.743l-2.25-22.1-1.986-19.508c-.294-2.892.576-5.373 3.928-6 2.454-.458 5.059-.515 7.54-.768l23.016-2.343c2.904-.296 6.79-1.365 8.087 2.36.532 1.529.493 3.319.655 4.915l4.308 42.315c.042.415.695.419.653 0L59.08 21.944 57.52 6.622c-.342-3.358-1.56-6.2-5.573-5.957-10.711.649-21.437 2.182-32.114 3.269-3.54.36-6.897 1.286-6.727 5.682.152 3.896.798 7.838 1.193 11.715l3.5 34.382c.017.16.137.345.327.326l43.613-4.44c.415-.042.419-.695 0-.653"/></g><g><path fill="#cccccb" d="M25.219 17.897c5.956-.607 11.911-1.212 17.867-1.82l2.58-.262c1.103-.112 2.97-.751 3.197-2.031.234-1.318-1.648-1.485-2.499-1.398-5.956.605-11.911 1.212-17.867 1.819l-2.58.262c-1.103.113-2.97.75-3.197 2.03-.234 1.32 1.648 1.486 2.499 1.4"/></g><g><path fill="#cccccb" d="M26.102 26.547c5.956-.607 11.911-1.212 17.867-1.82l2.58-.262c1.103-.112 2.97-.751 3.197-2.031.234-1.318-1.648-1.485-2.499-1.398L29.38 22.854l-2.58.263c-1.103.113-2.97.75-3.197 2.03-.234 1.32 1.648 1.486 2.499 1.4"/></g><g><path fill="#cccccb" d="M26.985 35.197l17.868-1.82 2.58-.261c1.102-.113 2.97-.752 3.196-2.032.235-1.318-1.647-1.485-2.498-1.398l-17.868 1.819-2.58.262c-1.102.112-2.97.751-3.196 2.03-.235 1.32 1.648 1.487 2.498 1.4"/></g><g><path fill="#cccccb" d="M27.869 43.847l17.867-1.819 2.58-.262c1.103-.112 2.97-.752 3.197-2.031.234-1.319-1.648-1.486-2.499-1.4l-17.867 1.82-2.58.262c-1.103.113-2.97.752-3.197 2.03-.234 1.32 1.648 1.486 2.499 1.4"/></g><g><path fill="#231f20" d="M28.313 12.476a4.703 4.703 0 1 1-9.357.951 4.703 4.703 0 0 1 9.357-.95"/></g><g><path fill="#231f20" d="M27.839 12.607c.156 1.775-.746 3.604-2.388 4.383-1.65.782-3.624.278-4.84-1.042-1.217-1.321-1.554-3.32-.795-4.956.746-1.61 2.409-2.642 4.195-2.416 2.065.263 3.594 2.01 3.828 4.03.04.349.99.133.946-.252a4.97 4.97 0 0 0-3.876-4.27c-2.092-.449-4.36.408-5.583 2.172-1.206 1.74-1.137 4.13.172 5.795 1.315 1.673 3.624 2.283 5.63 1.648 2.32-.735 3.872-2.899 3.657-5.345-.03-.344-.98-.135-.946.253"/></g><g><path fill="#fff" d="M25.21 10.833l-1.96 2.825-1.706-.973-.377 1.066 2.298 1.194 2.558-3.37z"/></g><g><path fill="#fff" d="M24.763 10.791l-1.96 2.825.816-.219-1.706-.973c-.271-.155-.741 0-.846.297l-.378 1.066c-.026.075.044.167.104.199l2.299 1.193c.27.14.641.011.816-.219a8817.369 8817.369 0 0 1 2.558-3.37c.042-.055.046-.174-.009-.223-.27-.248-.542-.495-.813-.742-.168-.154-.438-.123-.633-.036-.116.053-.41.27-.24.426l.813.742-.009-.224-2.237 2.947-.32.422.816-.219-2.298-1.193.104.198.378-1.066-.847.297 1.705.974c.257.146.657.012.817-.22l1.96-2.824c.132-.19-.113-.318-.27-.33-.229-.016-.487.08-.62.272"/></g></g><g><g/><g clip-path="url(#s80ba)"><path fill="#666" d="M42.967 34.525L55.986 33.2l2.096 20.587-13.02 1.325z"/></g></g><g><g/><g clip-path="url(#s80bb)"><path fill="#231f20" d="M42.7 34.367l13.268-1.35 2.137 20.988-13.269 1.35z"/></g></g><g><g/><g clip-path="url(#s80bc)"><path fill="#ff543c" d="M44.733 34.428l20.734-2.111 2.098 20.62-20.733 2.111z"/></g></g><g><g/><g clip-path="url(#s80bd)"><path fill="#231f20" d="M44.4 34.244l21.216-2.16 2.134 20.97-21.215 2.16z"/></g></g><g><g><path fill="#fff" d="M56.331 38.167l.132 1.295c.78 0 1.45.14 2.012.423l-.635 1.622c-.492-.303-.96-.432-1.402-.388-.272.028-.487.113-.645.255-.159.143-.23.293-.214.45.015.142.096.27.245.385.148.115.338.2.567.256l.653.15c.731.17 1.272.417 1.622.738.35.321.554.764.611 1.328.035.342.026.65-.025.922-.052.272-.156.52-.314.745-.158.226-.372.431-.645.617-.274.188-.61.366-1.011.537l.135 1.327-.985.1-.13-1.274c-.22.022-.46.02-.714-.008a5.636 5.636 0 0 1-.76-.139 4.718 4.718 0 0 1-.712-.242 2.567 2.567 0 0 1-.557-.316l.703-1.705c.73.525 1.414.754 2.05.689.263-.027.486-.12.668-.284a.663.663 0 0 0 .237-.587c-.031-.314-.287-.522-.766-.625l-.63-.13a5.649 5.649 0 0 1-.97-.28 2.311 2.311 0 0 1-.679-.407 1.728 1.728 0 0 1-.425-.567 2.371 2.371 0 0 1-.198-.765 2.952 2.952 0 0 1 .044-.901 2.296 2.296 0 0 1 .951-1.444c.255-.18.567-.308.934-.381l-.131-1.296z"/></g><g><path fill="#fff" d="M56.331 38.167l.132 1.295c.78 0 1.45.14 2.012.423l-.635 1.622c-.492-.303-.96-.432-1.402-.388-.272.028-.487.113-.645.255-.159.143-.23.293-.214.45.015.142.096.27.245.385.148.115.338.2.567.256l.653.15c.731.17 1.272.417 1.622.738.35.321.554.764.611 1.328.035.342.026.65-.025.922-.052.272-.156.52-.314.745-.158.226-.372.431-.645.617-.274.188-.61.366-1.011.537l.135 1.327-.985.1-.13-1.274c-.22.022-.46.02-.714-.008a5.636 5.636 0 0 1-.76-.139 4.718 4.718 0 0 1-.712-.242 2.567 2.567 0 0 1-.557-.316l.703-1.705c.73.525 1.414.754 2.05.689.263-.027.486-.12.668-.284a.663.663 0 0 0 .237-.587c-.031-.314-.287-.522-.766-.625l-.63-.13a5.649 5.649 0 0 1-.97-.28 2.311 2.311 0 0 1-.679-.407 1.728 1.728 0 0 1-.425-.567 2.371 2.371 0 0 1-.198-.765 2.952 2.952 0 0 1 .044-.901 2.296 2.296 0 0 1 .951-1.444c.255-.18.567-.308.934-.381l-.131-1.296z"/></g><g><path fill="#fff" d="M56.118 38.211l.132 1.295c.008.076.072.09.139.091.668.007 1.32.118 1.925.41l-.042-.112-.635 1.622.34-.129c-.69-.408-2.038-.733-2.536.172-.43.783.827 1.038 1.34 1.156.981.225 1.975.617 2.23 1.696.147.62.116 1.374-.254 1.913-.357.522-.966.822-1.53 1.068-.049.022-.166.08-.158.154l.135 1.327.264-.177c-.329.034-.656.068-.985.1.046.03.092.062.138.091l-.13-1.273c-.006-.071-.072-.096-.138-.091-.67.055-1.366-.08-1.988-.329a3.31 3.31 0 0 1-.419-.198c-.066-.099-.134-.117-.207-.057a.27.27 0 0 0 .01-.024c-.004-.061.077-.183.1-.239l.592-1.438-.37.11c.796.556 2 1.09 2.91.456.304-.213.526-.573.39-.951-.126-.354-.527-.48-.858-.552-.941-.206-2.118-.339-2.582-1.321-.626-1.328.082-2.973 1.524-3.29.065-.014.222-.079.212-.169l-.131-1.295-.264.176.984-.1c.167-.018.399-.295.126-.268l-.984.1c-.072.009-.276.066-.264.177l.131 1.296.213-.17c-.987.217-1.822.875-2.073 1.886-.263 1.06.052 2.21 1.065 2.726.406.208.86.314 1.304.407.29.06.63.09.895.229.234.122.382.336.33.61-.073.385-.488.516-.829.518-.638.004-1.233-.312-1.741-.668-.105-.073-.32-.011-.37.11l-.703 1.704c-.012.029-.016.073.013.094.782.572 1.902.814 2.858.737l-.137-.091.129 1.273c.007.07.072.098.138.091l.985-.1c.071-.007.275-.066.264-.176l-.135-1.327-.16.153c.852-.37 1.784-.873 2.072-1.824.266-.875.09-2.023-.648-2.62-.59-.476-1.356-.629-2.077-.795-.362-.083-1.196-.375-.793-.886.425-.54 1.361-.127 1.814.14.097.058.3-.03.34-.13l.635-1.621c.02-.05.006-.088-.042-.112-.659-.317-1.372-.428-2.098-.435l.138.09-.131-1.295c-.02-.183-.418-.063-.403.085"/></g><g><path fill="#fff" d="M.983 72.727l5.571-12.51L26.951 64.7l-1.873 13.344"/></g><g><g/><g clip-path="url(#s80be)"><path fill="#231f20" d="M1.262 72.898c1.734-3.894 3.562-7.758 5.205-11.69.058-.136.214-.698.35-.785.07-.044-.593.244-.123.165.526-.089 1.559.342 2.057.452l7.593 1.67c2.598.57 5.197 1.142 7.794 1.714.73.16 1.63.23 2.321.51.708.286.005-.652.107.166.267 2.154-.704 5.01-1.005 7.158l-.801 5.707c-.058.41.57.588.629.173.625-4.448 1.25-8.896 1.873-13.344.024-.167-.038-.36-.228-.401L6.638 59.908c-.128-.028-.309.016-.368.15L.698 72.568c-.169.38.393.714.564.33"/></g></g><g><path fill="#fff" d="M23.636 61.137l.793-2.043c1.069-6.28-3.626-8.97-3.626-8.97s4.467-4.012 2.447-6.575C21.229 40.986 11.917 55.73 11.917 55.73"/></g><g><path fill="#231f20" d="M23.952 61.227c1.371-3.535 1.344-8.293-2.133-10.755-.546-.387-.633-.811-.72-.173.05-.371 1.378-1.504 1.586-1.787.866-1.184 2.32-3.808.822-5.157-3.004-2.702-10.567 10.154-11.871 12.214-.226.356.338.684.563.33 1.68-2.654 3.478-5.257 5.428-7.718.997-1.26 2.388-3.404 3.895-4.108 2.63-1.228 1.477 2.841.621 4.05a11.352 11.352 0 0 1-1.57 1.774c-.157.145-.107.409.066.513 3.785 2.269 4.127 6.92 2.684 10.644-.153.392.479.562.629.173"/></g><g><path fill="#fff" d="M15.906 54.98c5.464 1.402 7.512 4.326 5.259 6.366-2.254 2.039-8.896-.48-9.262-1.04-1.45-2.227.215-6.297 4.003-5.325"/></g><g><path fill="#cccccb" d="M13.434 62.671l-4.669-1.15c-1.053-.26-2.789.452-3.165 1.521L2.134 72.89c-.169.478.969-1.003.801-.525-.4 1.134.376 2.005 1.517 2.162 2.216.308 4.433.614 6.65.921.03.004.062.003.092.005.19.026.373.032.537.015.041-.003.083-.013.124-.019.99-.1 2.068-.611 2.412-1.523.03-.077.039-.149.057-.224.027-.085.06-.168.077-.26.578-3.216-.148-4.473.43-7.687l.253-1.404c.182-1.013-.884-1.49-1.65-1.678"/></g></g></g></g></g></svg>