<svg xmlns="http://www.w3.org/2000/svg" width="100" height="100" viewBox="0 0 100 100"><defs><clipPath id="lnlla"><path d="M52.906 35.986c-1.433 1.304-2.471 3.39-2.673 5.325-.304 2.922 1.508 5.702 3.963 7.125a8.53 8.53 0 0 0 5.791.998L58.21 33.917a8.02 8.02 0 0 0-5.304 2.07z"/></clipPath><clipPath id="lnllb"><path d="M55.078 34.425a8.787 8.787 0 0 0-1.999 1.215 8.238 8.238 0 0 0-1.742 1.989 9.304 9.304 0 0 0-1.082 2.421 7.182 7.182 0 0 0-.254 1.499c-.107 1.4.265 2.814.957 4.024l-.008.006a8.616 8.616 0 0 0 2.92 2.99c1.607 1 3.545 1.395 5.295 1.174.294-.037.52-.093.66-.148.138-.054.193-.102.147-.136-.026-.02-.081-.036-.124-.055-.092-.042-.199-.05-.38-.052-.182.002-.436.029-.823.04a4.748 4.748 0 0 1-.312.007c-.102 0-.205.004-.31-.002a8.103 8.103 0 0 1-2.775-.568 8.183 8.183 0 0 1-3.015-2.157 7.865 7.865 0 0 1-1.316-2.077 6.749 6.749 0 0 1-.51-1.923 6.44 6.44 0 0 1 .1-1.979c.245-1.182.74-2.35 1.446-3.296 1.16-1.596 2.918-2.66 4.808-3.05.531-.112.983-.236 1.236-.344.252-.11.299-.215-.013-.22h-.064c-.979 0-1.95.253-2.842.642z"/></clipPath><clipPath id="lnllc"><path d="M55.895 34.84c-2.32 1.354-3.913 3.896-4.124 6.586-.129 1.635.34 3.147 1.202 4.41 1.023 1.495 2.596 2.64 4.378 3.223 2.922.956 6.716.387 8.771-2.07 1.19-1.422 1.641-3.501 1.42-5.693-.296-2.901-1.94-5.075-3.96-6.325a7.545 7.545 0 0 0-3.968-1.121c-1.295 0-2.585.33-3.719.99z"/></clipPath><clipPath id="lnlld"><path d="M57.1 34.07a7.652 7.652 0 0 0-1.33.588c-.417.246-.819.52-1.19.831-.366.316-.719.65-1.027 1.024l-.119.138-.11.144c-.074.096-.149.192-.22.29-.134.2-.277.397-.396.608a8.742 8.742 0 0 0-1.059 2.698c-.04.24-.093.477-.113.72a6.886 6.886 0 0 0 .077 2.192c.11.542.295 1.021.5 1.4.206.38.421.665.593.846.349.36.47.355.18-.124a7.229 7.229 0 0 1-.896-2.53 7.11 7.11 0 0 1 .138-2.686 8.307 8.307 0 0 1 1.972-3.712 8.194 8.194 0 0 1 1.852-1.492 7.198 7.198 0 0 1 2.213-.825 7.316 7.316 0 0 1 2.359-.072c.392.045.777.137 1.157.24.376.121.748.253 1.1.43a8.08 8.08 0 0 1 4.122 4.659c.199.583.332 1.187.394 1.8.068.615.075 1.237.025 1.85l-.01.003a7.653 7.653 0 0 1-.355 1.815 5.88 5.88 0 0 1-.816 1.63c-.044.063-.093.12-.14.18-.045.06-.092.12-.146.173l-.31.335c-.226.204-.448.413-.7.586a6.747 6.747 0 0 1-1.608.866c-1.541.592-3.261.694-4.86.383a8.707 8.707 0 0 1-4.247-2.155c-.775-.73-1.126-1.228-1.123-1.056.004.048.04.141.063.215.025.083.063.167.12.268.056.103.135.217.243.356.22.273.557.654 1.16 1.118.326.25.66.467 1.015.664 1.605.912 3.468 1.268 5.305 1.127.593-.052 1.181-.157 1.758-.312a8.757 8.757 0 0 0 1.666-.675 7.356 7.356 0 0 0 1.457-1.067c.106-.107.207-.22.311-.33.107-.108.2-.229.293-.349.095-.12.175-.248.262-.373.075-.132.162-.257.228-.394.191-.351.343-.724.465-1.104.122-.381.218-.77.278-1.164a9.816 9.816 0 0 0 .081-2.385 8.64 8.64 0 0 0-1.155-3.69 8.633 8.633 0 0 0-2.666-2.8 7.66 7.66 0 0 0-1.584-.807 7.978 7.978 0 0 0-1.729-.416 7.644 7.644 0 0 0-.976-.062c-.855 0-1.704.141-2.502.403z"/></clipPath><clipPath id="lnlle"><path d="M11.45 55.867H34.7v14.208H11.45z"/></clipPath></defs><g><g><g transform="rotate(92 40.5 30)"><g><g><path fill="#fff" d="M17.3 57.196s3.479-20.327 12.616-20.643c9.138-.316 1.176 27.77 1.176 27.77z"/></g><g><path fill="#231f20" d="M17.58 57.277c.709-4.076 1.912-8.186 3.618-11.952 1.238-2.73 2.869-5.72 5.458-7.389 2.424-1.563 5.317-1.565 6.55 1.307 2.07 4.82.516 11.604-.419 16.514-.419 2.2-.906 4.389-1.455 6.56-.132.52-.22 1.103-.42 1.603-.187.472.554.284-.138-.08-4.42-2.335-8.883-4.592-13.324-6.887-.327-.169-.617.325-.29.495l13.792 7.126c.164.085.369.014.421-.17 1.995-7.073 4.055-15.312 3.037-22.68-.393-2.848-1.686-5.774-5.025-5.41-4.559.498-7.284 5.508-8.909 9.24-1.599 3.669-2.761 7.623-3.447 11.57-.062.36.489.515.552.153"/></g><g><path fill="#fff" d="M58.618 52.455l-31.441 3.2a4.353 4.353 0 0 1-4.773-3.89L18.756 15.93a4.354 4.354 0 0 1 3.89-4.772l31.442-3.2a4.353 4.353 0 0 1 4.772 3.89l3.648 35.835a4.353 4.353 0 0 1-3.89 4.773"/></g><g><path fill="#231f20" d="M58.61 51.34l-29.932 3.725c-2.783.347-5.373-.33-6.015-4.444-.291-1.863-.32-3.85-.478-5.735l-1.923-23.09c-.404-4.855-1.154-9.861-1.228-14.746-.074-4.901 3.067-5.431 5.985-5.795l8.035-1L51.37-2.024c2.69-.335 5.963-1.038 7.056 3.218.395 1.538.35 3.39.482 4.973l2.076 24.928.938 11.252c.312 3.755.927 7.987-3.389 9.006-.36.085-.208.76.152.674 5.823-1.375 3.806-9.711 3.384-14.777L59.902 11.22c-.38-4.561.256-13.665-4.961-14.28-1.508-.177-3.165.286-4.657.472l-9.942 1.237c-5.78.72-11.694 1.058-17.434 2.17-5.35 1.037-4.395 6.844-3.991 11.694l2.151 25.833.855 10.266c.174 2.094.25 4.18 1.573 5.769 1.75 2.104 4.048 1.526 6.217 1.256l10.629-1.323 18.267-2.274c.363-.044.367-.744 0-.7"/></g><g><path fill="#cccccb" d="M58.127 50.361L31.32 53.108c-3.06.314-5.795-1.93-6.107-5.01l-3.188-31.53c-.274-2.71 1.686-5.131 4.378-5.407l27.473-2.815c3.061-.314 5.795 1.93 6.107 5.01l3.12 30.858c.312 3.081-1.916 5.833-4.977 6.147"/></g><g><path fill="#fff" d="M64.542 47.484l-38.24 4.783L22.17 2.404c-.22-2.658 1.354-5.031 3.516-5.301l30.605-3.83c2.054-.256 3.89 1.582 4.098 4.107z"/></g><g><path fill="#231f20" d="M64.546 47.123l-33.39 4.13c-1.257.156-3.51 1.006-4.75.588.063.022.263.6.136-.245-.143-.953-.164-1.96-.245-2.923l-1.972-23.546L22.583 4.34c-.258-3.081.505-5.725 3.444-6.392 2.152-.489 4.435-.55 6.612-.818l20.179-2.497c2.546-.315 5.954-1.455 7.091 2.515.466 1.629.431 3.536.574 5.237 1.26 15.028 2.519 30.057 3.777 45.085.037.442.61.446.572 0l-2.617-31.248L60.847-.103c-.3-3.579-1.368-6.607-4.886-6.348-9.392.692-18.796 2.325-28.157 3.483-3.105.384-6.048 1.37-5.899 6.054.133 4.151.7 8.351 1.047 12.483l3.068 36.633c.015.171.12.368.286.347l38.24-4.73c.364-.045.367-.74 0-.696"/></g><g transform="rotate(88 48 26)"><path fill="#cccccb" d="M21.011 22.145c-1.761.14-3.524.283-5.287.423-2.259.18-6.084 1.211-6.55 3.273-.48 2.124 3.378 2.394 5.12 2.254l36.614-2.932 5.287-.422c2.259-.181 6.084-1.21 6.55-3.272.48-2.126-3.378-2.394-5.12-2.255-12.205.978-24.409 1.954-36.614 2.93z"/></g><g transform="rotate(88 58 37)"><path fill="#cccccb" d="M39.343 14.167l-2.467.183c-1.055.078-2.84.525-3.057 1.418-.224.92 1.576 1.038 2.39.977l17.086-1.27 2.467-.183c1.054-.079 2.84-.525 3.057-1.418.224-.921-1.576-1.038-2.39-.977l-17.086 1.27z"/></g><g transform="rotate(-90 72 47.5)"><g><g><path fill="#231f20" d="M63.826-1.849A7.809 7.809 0 0 1 48.29-.268a7.808 7.808 0 0 1 15.535-1.581"/></g><g><path fill="#231f20" d="M63.046-1.645c.26 2.949-1.238 5.985-3.965 7.279-2.74 1.3-6.018.461-8.037-1.73-2.02-2.194-2.581-5.513-1.32-8.23 1.24-2.673 4-4.388 6.967-4.012 3.428.436 5.967 3.337 6.355 6.693.068.578 1.645.22 1.571-.42a8.252 8.252 0 0 0-6.436-7.089c-3.474-.747-7.238.677-9.27 3.606-2.004 2.888-1.889 6.86.285 9.622 2.184 2.78 6.017 3.793 9.35 2.738 3.851-1.22 6.429-4.815 6.071-8.877-.05-.57-1.627-.223-1.57.42"/></g><g><path fill="#fff" d="M58.697-4.583L55.442.107 52.61-1.507l-.627 1.77L55.8 2.244l4.247-5.596z"/></g><g><path fill="#fff" d="M57.957-4.644L54.702.046l1.356-.362-2.832-1.617c-.45-.257-1.231.002-1.406.493L51.193.33c-.044.124.073.278.173.33 1.273.66 2.544 1.32 3.816 1.982.45.233 1.066.02 1.356-.363a14367.335 14367.335 0 0 1 4.248-5.595c.07-.093.077-.29-.015-.372l-1.35-1.233c-.28-.254-.728-.203-1.05-.06-.194.089-.682.45-.399.709l1.35 1.23-.015-.37-3.715 4.893-.532.701 1.356-.363-3.818-1.981.174.328.627-1.77-1.405.493 2.83 1.617c.427.243 1.092.02 1.357-.364l3.255-4.69c.218-.316-.188-.529-.448-.547-.38-.027-.81.132-1.03.45"/></g></g></g></g><g><g><g/><g clip-path="url(#lnlla)"><path fill="#666" d="M48.083 33.678l11.415-1.161 1.838 18.05-11.415 1.162z"/></g></g><g><g/><g clip-path="url(#lnllb)"><path fill="#231f20" d="M47.85 33.534l11.633-1.184 1.874 18.403-11.634 1.184z"/></g></g><g><g/><g clip-path="url(#lnllc)" transform="rotate(90 30 49)"><path fill="#ff543c" d="M49.633 33.6l18.18-1.85 1.839 18.08-18.178 1.85z"/></g></g><g><g/><g clip-path="url(#lnlld)"><path fill="#231f20" d="M49.333 33.428l18.602-1.895 1.871 18.387-18.6 1.895z"/></g></g></g><g><g transform="rotate(90 30 50)"><path fill="#fff" d="M59.951 46.32l-.116-1.136c-.683 0-1.27-.124-1.764-.371l.557-1.422c.432.265.842.379 1.23.34.238-.025.426-.1.565-.224.14-.125.202-.256.188-.394-.013-.125-.085-.238-.215-.338a1.31 1.31 0 0 0-.497-.225l-.573-.13c-.64-.15-1.115-.367-1.422-.648-.307-.282-.485-.67-.536-1.164-.03-.3-.023-.57.023-.809a1.67 1.67 0 0 1 .274-.653c.139-.198.327-.378.566-.541.24-.164.535-.32.887-.47l-.119-1.164.864-.088.113 1.117a3 3 0 0 1 .627.007c.224.025.446.066.667.122.22.056.429.127.623.212.196.084.359.176.489.277l-.617 1.495c-.64-.46-1.24-.661-1.796-.604a1.004 1.004 0 0 0-.587.249.582.582 0 0 0-.208.514c.028.276.252.458.672.549l.553.114c.329.067.612.15.85.245.237.096.436.215.595.357.16.142.285.307.373.497.089.19.147.414.173.67.028.269.015.533-.038.791a2.014 2.014 0 0 1-.834 1.266c-.224.158-.497.27-.819.334l.115 1.136z"/></g><g transform="rotate(90 29.5 49.5)"><path fill="#fff" d="M60.132 46.283l-.116-1.135c-.007-.067-.063-.08-.121-.08-.586-.006-1.158-.103-1.689-.36l.038.099.556-1.423-.297.114c.605.357 1.786.643 2.223-.15.377-.687-.725-.911-1.175-1.014-.86-.198-1.732-.542-1.955-1.488-.13-.543-.102-1.204.222-1.677.313-.457.847-.72 1.341-.936.043-.02.146-.07.14-.135l-.12-1.163-.23.154.863-.088-.121-.079.114 1.117c.006.061.063.084.12.08.588-.049 1.198.068 1.744.287.126.05.25.107.367.174.058.086.118.103.182.05a.24.24 0 0 0-.01.021c.005.054-.066.16-.086.21l-.52 1.26c.109-.031.217-.064.325-.096-.698-.487-1.754-.955-2.55-.4-.268.187-.463.503-.344.834.11.31.463.42.752.484.826.18 1.858.297 2.264 1.158.55 1.164-.071 2.607-1.335 2.885-.058.012-.195.069-.187.148l.116 1.136.23-.155c-.287.03-.574.06-.862.088-.146.015-.35.259-.11.235.287-.03.575-.06.862-.088.063-.007.242-.058.232-.155a674.17 674.17 0 0 1-.115-1.136l-.187.149c.865-.19 1.598-.768 1.818-1.654.23-.93-.046-1.937-.934-2.39-.356-.182-.755-.275-1.143-.357-.254-.053-.553-.08-.785-.2-.205-.107-.335-.295-.29-.536.065-.337.428-.452.727-.453.56-.004 1.081.273 1.527.585.092.064.28.01.325-.097l.615-1.494c.01-.024.015-.063-.01-.082-.686-.502-1.669-.714-2.507-.646l.12.08-.113-1.117c-.006-.061-.063-.086-.12-.08l-.864.088c-.063.007-.241.058-.232.155l.119 1.163.14-.134c-.747.324-1.564.766-1.817 1.6-.233.767-.078 1.773.569 2.296.517.418 1.188.552 1.82.697.318.073 1.05.33.696.778-.373.473-1.194.11-1.59-.123-.085-.05-.264.025-.299.113-.185.474-.37.948-.557 1.422-.017.043-.005.077.037.098.578.278 1.203.375 1.84.382l-.122-.08c.04.379.078.757.116 1.136.017.16.366.056.353-.075"/></g><g><path fill="#fff" d="M11.267 67.186l4.884-10.97 17.884 3.932-1.643 11.7"/></g><g><g/><g clip-path="url(#lnlle)"><path fill="#231f20" d="M11.97 65.863c1.516-2.995 3.114-5.966 4.55-8.99.05-.105.186-.537.306-.604.06-.034-.519.187-.108.126.46-.067 1.362.264 1.798.348l6.637 1.284 6.812 1.319c.638.123 1.424.176 2.028.392.619.22.004-.501.093.128.234 1.657-.615 3.853-.878 5.505l-.7 4.389c-.05.315.5.452.55.133l1.637-10.263c.02-.128-.034-.276-.199-.308l-17.827-3.45c-.112-.02-.27.013-.322.116l-4.87 9.621c-.147.293.344.549.493.254"/></g></g><g><path fill="#fff" d="M31.602 57.017l.727-1.792c.3-1.683.926-3.062.512-4.179-.94-2.539-3.838-3.686-3.838-3.686s4.098-3.517 2.245-5.764c-1.854-2.248-10.398 10.68-10.398 10.68"/></g><g><path fill="#231f20" d="M33.111 54.346c1.202-3.1 1.179-7.271-1.87-9.43-.479-.34-.555-.711-.63-.152.043-.325 1.207-1.318 1.39-1.567.759-1.038 2.034-3.338.72-4.521-2.633-2.37-9.264 8.903-10.408 10.709-.198.312.297.6.493.288 1.474-2.325 3.05-4.608 4.76-6.766.873-1.104 2.093-2.984 3.415-3.602 2.306-1.076 1.295 2.491.544 3.552a9.952 9.952 0 0 1-1.376 1.555c-.138.127-.095.358.058.45 3.318 1.989 3.618 6.066 2.352 9.332-.133.344.42.493.552.152"/></g><g><path fill="#fff" d="M24.365 51.612c4.791 1.23 6.587 3.793 4.611 5.581-1.975 1.788-7.8-.42-8.12-.911-1.272-1.953.188-5.521 3.51-4.67"/></g><g><path fill="#cccccb" d="M22.19 58.205l-4.094-.849c-.924-.191-2.445.334-2.775 1.123l-3.04 7.262c-.147.353.85-.74.703-.387-.35.837.33 1.479 1.33 1.595l5.83.679c.027.003.055.002.082.004.166.019.326.023.47.011.037-.002.073-.01.11-.014.867-.074 1.812-.451 2.114-1.124.026-.056.034-.11.05-.165.024-.063.053-.123.067-.192.507-2.371-.13-3.298.377-5.67l.222-1.035c.16-.747-.774-1.098-1.447-1.238"/></g></g></g></g></g></svg>